STARTFONT 2.1
FONT -FontForge-Good Times Rg-Book-R-Normal--131-1260-75-75-P-972-ISO10646-1
SIZE 126 75 75
FONTBOUNDINGBOX 261 155 -36 -27
COMMENT "Generated by fontforge, http://fontforge.sourceforge.net"
COMMENT "(c) 1998-2012 Typodermic Fonts Inc. See attached license agreement. If agreement is missing visit typodermicfonts.com for more info. Languages by Chikako Larabie"
STARTPROPERTIES 39
FOUNDRY "FontForge"
FAMILY_NAME "Good Times Rg"
WEIGHT_NAME "Book"
SLANT "R"
SETWIDTH_NAME "Normal"
ADD_STYLE_NAME ""
PIXEL_SIZE 131
POINT_SIZE 1260
RESOLUTION_X 75
RESOLUTION_Y 75
SPACING "P"
AVERAGE_WIDTH 972
CHARSET_REGISTRY "ISO10646"
CHARSET_ENCODING "1"
FONTNAME_REGISTRY ""
CHARSET_COLLECTIONS "ISO8859-2 ISO8859-9 ISO8859-4 ISO10646-1"
FONT_NAME "GoodTimesRg-Regular"
FACE_NAME "GoodTimesRg-Regular"
COPYRIGHT "(c) 1998-2012 Typodermic Fonts Inc. See attached license agreement. If agreement is missing visit typodermicfonts.com for more info. Languages by Chikako Larabie"
FONT_VERSION "4.001"
FONT_ASCENT 105
FONT_DESCENT 26
UNDERLINE_POSITION -19
UNDERLINE_THICKNESS 3
X_HEIGHT 94
CAP_HEIGHT 94
RAW_ASCENT 799
RAW_DESCENT 201
NORM_SPACE 39
RELATIVE_WEIGHT 40
RELATIVE_SETWIDTH 50
SUPERSCRIPT_X 0
SUPERSCRIPT_Y 39
SUPERSCRIPT_SIZE 39
SUBSCRIPT_X 0
SUBSCRIPT_Y 0
SUBSCRIPT_SIZE 39
AVG_LOWERCASE_WIDTH 1116
AVG_UPPERCASE_WIDTH 1111
ENDPROPERTIES
CHARS 372
STARTCHAR space
ENCODING 32
SWIDTH 294 0
DWIDTH 39 0
BBX 1 1 0 0
BITMAP
00
ENDCHAR
STARTCHAR exclam
ENCODING 33
SWIDTH 298 0
DWIDTH 39 0
BBX 18 95 11 0
BITMAP
7FFF00
7FFF00
7FFF00
7FFF00
7FFF00
7FFF00
7FFF00
7FFF00
7FFF00
7FFF00
7FFF00
7FFF00
7FFF00
7FFF00
7FFF00
7FFF00
7FFF00
7FFF00
7FFF00
7FFF00
7FFF00
7FFF00
7FFF00
7FFF00
7FFF00
7FFF00
7FFF00
7FFF00
7FFF00
7FFF00
7FFF00
7FFF00
7FFF00
7FFF00
7FFF00
7FFF00
7FFF00
7FFF00
7FFF00
7FFF00
7FFF00
7FFF00
7FFF00
7FFF00
7FFF00
7FFF00
7FFF00
7FFF00
7FFF00
7FFF00
7FFF00
7FFF00
7FFF00
7FFF00
7FFF00
7FFF00
7FFF00
7FFF00
7FFF00
7FFF00
7FFF00
7FFF00
7FFF00
7FFF00
7FFF00
000000
000000
000000
000000
000000
000000
000000
000000
000000
000000
000000
000000
03F000
0FFC00
3FFE00
3FFF00
7FFF80
FFFF80
FFFF80
FFFFC0
FFFFC0
FFFFC0
FFFFC0
FFFF80
FFFF80
7FFF80
3FFF00
3FFE00
0FFC00
03F000
ENDCHAR
STARTCHAR quotedbl
ENCODING 34
SWIDTH 452 0
DWIDTH 59 0
BBX 41 34 9 61
BITMAP
FFFF80FFFF80
FFFF807FFF80
FFFF807FFF80
FFFF807FFF80
FFFF007FFF80
FFFF007FFF80
FFFF007FFF80
7FFF007FFF80
7FFF007FFF80
7FFF007FFF00
7FFF007FFF00
7FFF007FFF00
7FFF003FFF00
7FFF003FFF00
7FFF003FFF00
7FFE003FFF00
7FFE003FFF00
7FFE003FFF00
3FFE003FFF00
3FFE003FFF00
3FFE003FFF00
3FFE003FFE00
3FFE003FFE00
3FFE001FFE00
3FFE001FFE00
3FFE001FFE00
3FFC001FFE00
3FFC001FFE00
3FFC001FFE00
1FFC001FFE00
1FFC001FFE00
1FFC001FFE00
1FFC001FFC00
1FFC001FFC00
ENDCHAR
STARTCHAR numbersign
ENCODING 35
SWIDTH 697 0
DWIDTH 91 0
BBX 80 95 6 0
BITMAP
00000000FFF00000FFF0
00000000FFF00001FFE0
00000000FFF00001FFE0
00000001FFE00001FFE0
00000001FFE00003FFC0
00000001FFE00003FFC0
00000001FFC00003FFC0
00000003FFC00003FF80
00000003FFC00007FF80
00000003FFC00007FF80
00000007FF800007FF00
00000007FF80000FFF00
00000007FF80000FFF00
0000000FFF00000FFE00
0000000FFF00001FFE00
0000000FFF00001FFE00
0000001FFE00001FFE00
0000001FFE00003FFC00
0000001FFE00003FFC00
0000001FFC00003FFC00
0000003FFC00003FF800
0000003FFC00007FF800
0000003FFC00007FF800
0000007FF800007FF000
003FFFFFFFFFFFFFFFFF
003FFFFFFFFFFFFFFFFF
003FFFFFFFFFFFFFFFFF
003FFFFFFFFFFFFFFFFF
003FFFFFFFFFFFFFFFFF
003FFFFFFFFFFFFFFFFF
003FFFFFFFFFFFFFFFFF
003FFFFFFFFFFFFFFFFF
003FFFFFFFFFFFFFFFFF
003FFFFFFFFFFFFFFFFF
003FFFFFFFFFFFFFFFFF
000003FF800007FF8000
000007FF800007FF0000
000007FF80000FFF0000
000007FF80000FFF0000
00000FFF00000FFF0000
00000FFF00001FFE0000
00000FFF00001FFE0000
00000FFE00001FFE0000
00001FFE00001FFC0000
00001FFE00003FFC0000
00001FFC00003FFC0000
00003FFC00003FF80000
00003FFC00007FF80000
00003FFC00007FF80000
00007FF800007FF80000
00007FF80000FFF00000
00007FF80000FFF00000
00007FF00000FFF00000
0000FFF00000FFE00000
0000FFF00001FFE00000
0000FFF00001FFE00000
0001FFE00001FFE00000
0001FFE00003FFC00000
FFFFFFFFFFFFFFFFFC00
FFFFFFFFFFFFFFFFFC00
FFFFFFFFFFFFFFFFFC00
FFFFFFFFFFFFFFFFFC00
FFFFFFFFFFFFFFFFFC00
FFFFFFFFFFFFFFFFFC00
FFFFFFFFFFFFFFFFFC00
FFFFFFFFFFFFFFFFFC00
FFFFFFFFFFFFFFFFFC00
FFFFFFFFFFFFFFFFFC00
FFFFFFFFFFFFFFFFFC00
001FFE00001FFE000000
001FFE00003FFC000000
001FFE00003FFC000000
001FFC00003FFC000000
003FFC00003FF8000000
003FFC00007FF8000000
003FF800007FF8000000
007FF800007FF0000000
007FF80000FFF0000000
007FF80000FFF0000000
00FFF00000FFF0000000
00FFF00001FFE0000000
00FFF00001FFE0000000
00FFE00001FFE0000000
01FFE00001FFC0000000
01FFE00003FFC0000000
01FFC00003FFC0000000
03FFC00003FF80000000
03FFC00007FF80000000
03FFC00007FF80000000
03FF800007FF80000000
07FF80000FFF00000000
07FF80000FFF00000000
07FF00000FFF00000000
0FFF00000FFE00000000
0FFF00001FFE00000000
ENDCHAR
STARTCHAR dollar
ENCODING 36
SWIDTH 744 0
DWIDTH 97 0
BBX 83 95 7 0
BITMAP
0000000001FC0000000000
0000000001FC0000000000
0000000001FC0000000000
0000000001FC0000000000
0000000001FC0000000000
0000000001FC0000000000
0000000001FC0000000000
0000000001FC0000000000
0000000001FC0000000000
00003FFFFFFFFFFFFFFE00
0003FFFFFFFFFFFFFFFE00
000FFFFFFFFFFFFFFFFE00
003FFFFFFFFFFFFFFFFE00
00FFFFFFFFFFFFFFFFFE00
01FFFFFFFFFFFFFFFFFE00
03FFFFFFFFFFFFFFFFFE00
07FFFFFFFFFFFFFFFFFE00
0FFFFFFFFFFFFFFFFFFE00
0FFFFFFFFFFFFFFFFFFE00
1FFFFFFFFFFFFFFFFFFE00
1FFFFFFFFFFFFFFFFFFE00
3FFFFFFFFFFFFFFFFFFE00
3FFFF00001FC0000000000
7FFFC00001FC0000000000
7FFF800001FC0000000000
7FFF000001FC0000000000
7FFE000001FC0000000000
7FFE000001FC0000000000
7FFE000001FC0000000000
FFFE000001FC0000000000
FFFC000001FC0000000000
FFFC000001FC0000000000
7FFC000001FC0000000000
7FFE000001FC0000000000
7FFE000001FC0000000000
7FFE000001FC0000000000
7FFE000001FC0000000000
3FFF000001FC0000000000
3FFF800001FC0000000000
3FFFC00001FC0000000000
1FFFF80001FC0000000000
1FFFFFFFFFFFFFFF800000
0FFFFFFFFFFFFFFFFC0000
07FFFFFFFFFFFFFFFF0000
07FFFFFFFFFFFFFFFFC000
03FFFFFFFFFFFFFFFFE000
01FFFFFFFFFFFFFFFFF800
007FFFFFFFFFFFFFFFFC00
003FFFFFFFFFFFFFFFFE00
000FFFFFFFFFFFFFFFFE00
0003FFFFFFFFFFFFFFFF00
00003FFFFFFFFFFFFFFF00
0000000001FC0001FFFF80
0000000001FC00003FFF80
0000000001FC00001FFFC0
0000000001FC00000FFFC0
0000000001FC000007FFC0
0000000001FC000007FFC0
0000000001FC000003FFC0
0000000001FC000003FFE0
0000000001FC000003FFE0
0000000001FC000003FFE0
0000000001FC000003FFE0
0000000001FC000003FFE0
0000000001FC000003FFE0
0000000001FC000003FFE0
0000000001FC000007FFE0
0000000001FC000007FFC0
0000000001FC00000FFFC0
0000000001FC00001FFFC0
0000000001FC00003FFFC0
0000000001FC0001FFFFC0
3FFFFFFFFFFFFFFFFFFF80
3FFFFFFFFFFFFFFFFFFF80
3FFFFFFFFFFFFFFFFFFF00
3FFFFFFFFFFFFFFFFFFF00
3FFFFFFFFFFFFFFFFFFE00
3FFFFFFFFFFFFFFFFFFE00
3FFFFFFFFFFFFFFFFFFC00
3FFFFFFFFFFFFFFFFFF800
3FFFFFFFFFFFFFFFFFF000
3FFFFFFFFFFFFFFFFFE000
3FFFFFFFFFFFFFFFFF8000
3FFFFFFFFFFFFFFFFE0000
3FFFFFFFFFFFFFFFF80000
3FFFFFFFFFFFFFFF800000
0000000001FC0000000000
0000000001FC0000000000
0000000001FC0000000000
0000000001FC0000000000
0000000001FC0000000000
0000000001FC0000000000
0000000001FC0000000000
0000000001FC0000000000
0000000001FC0000000000
ENDCHAR
STARTCHAR percent
ENCODING 37
SWIDTH 965 0
DWIDTH 126 0
BBX 116 110 5 -9
BITMAP
000000000000000000000003FF8000
000000000000000000000007FF0000
00000000000000000000000FFE0000
00000000000000000000001FFE0000
00000FFC000000000000001FFC0000
0000FFFFC00000000000003FF80000
0003FFFFF80000000000007FF00000
000FFFFFFC000000000000FFE00000
003FFFFFFF000000000001FFE00000
007FFFFFFF800000000001FFC00000
00FFFFFFFFC00000000003FF800000
01FFFFFFFFE00000000007FF000000
03FFF003FFF0000000000FFF000000
07FF80007FF8000000000FFE000000
0FFF00001FFC000000001FFC000000
0FFC00000FFC000000003FF8000000
1FF8000007FE000000007FF0000000
1FF0000003FF00000000FFF0000000
3FF0000001FF00000000FFE0000000
3FE0000001FF00000001FFC0000000
3FC0000000FF80000003FF80000000
7FC0000000FF80000007FF00000000
7FC00000007F8000000FFF00000000
7F800000007F8000000FFE00000000
7F800000007FC000001FFC00000000
7F800000007FC000003FF800000000
7F800000007FC000007FF800000000
FF800000007FC000007FF000000000
FF800000007FC00000FFE000000000
7F800000007FC00001FFC000000000
7F800000007FC00003FF8000000000
7F800000007FC00007FF8000000000
7F800000007FC00007FF0000000000
7F800000007F80000FFE0000000000
7FC00000007F80001FFC0000000000
3FC0000000FF80003FF80000000000
3FC0000000FF00007FF80000000000
3FE0000001FF00007FF00000000000
1FF0000001FF0000FFE00000000000
1FF0000003FE0001FFC00000000000
0FF8000007FE0003FFC00000000000
0FFC00000FFC0003FF800000000000
07FF00001FF80007FF000000000000
03FF80007FF8000FFE000000000000
03FFF003FFF0001FFC000000000000
01FFFFFFFFE0003FFC000000000000
00FFFFFFFFC0003FF8000000000000
007FFFFFFF80007FF0000000000000
001FFFFFFE0000FFE0000000000000
000FFFFFFC0001FFE0000000000000
0003FFFFF00003FFC0000000000000
0000FFFFC00003FF80000000000000
00000FFC000007FF00000000000000
0000000000000FFE00000000000000
0000000000001FFE000003FF800000
0000000000001FFC00003FFFF00000
0000000000003FF80000FFFFFE0000
0000000000007FF00003FFFFFF0000
000000000000FFE0000FFFFFFFC000
000000000001FFE0001FFFFFFFE000
000000000001FFC0003FFFFFFFF000
000000000003FF80007FFFFFFFF800
000000000007FF0000FFFC00FFFC00
00000000000FFF0001FFE0001FFE00
00000000001FFE0003FFC00007FF00
00000000001FFC0003FF000003FF80
00000000003FF80007FE000001FF80
00000000007FF00007FC000000FFC0
0000000000FFF0000FFC0000007FC0
0000000000FFE0000FF80000007FC0
0000000001FFC0000FF00000003FE0
0000000003FF80001FF00000003FE0
0000000007FF80001FF00000001FE0
000000000FFF00001FE00000001FF0
000000000FFE00001FE00000001FF0
000000001FFC00001FE00000001FF0
000000003FF800001FE00000001FF0
000000007FF800001FE00000001FF0
00000000FFF000001FE00000000FF0
00000000FFE000001FE00000001FF0
00000001FFC000001FE00000001FF0
00000003FF8000001FE00000001FF0
00000007FF8000001FE00000001FF0
00000007FF0000001FE00000001FE0
0000000FFE0000001FF00000001FE0
0000001FFC0000000FF00000003FE0
0000003FFC0000000FF00000003FC0
0000007FF80000000FF80000007FC0
0000007FF000000007FC0000007FC0
000000FFE000000007FC000000FF80
000001FFC000000003FE000001FF80
000003FFC000000003FF000003FF00
000007FF8000000001FFC00007FE00
000007FF0000000000FFE0001FFE00
00000FFE0000000000FFFE00FFFC00
00001FFC00000000007FFFFFFFF800
00003FFC00000000003FFFFFFFF000
00003FF800000000000FFFFFFFE000
00007FF0000000000007FFFFFF8000
0000FFE0000000000003FFFFFF0000
0001FFE0000000000000FFFFFC0000
0003FFC00000000000001FFFF00000
0003FF8000000000000003FF000000
0007FF000000000000000000000000
000FFE000000000000000000000000
001FFE000000000000000000000000
003FFC000000000000000000000000
003FF8000000000000000000000000
007FF0000000000000000000000000
00FFF0000000000000000000000000
ENDCHAR
STARTCHAR ampersand
ENCODING 38
SWIDTH 759 0
DWIDTH 99 0
BBX 90 95 6 0
BITMAP
0000003FFFFFE00000000000
000007FFFFFFE00000000000
00003FFFFFFFE00000000000
0001FFFFFFFFE00000000000
0007FFFFFFFFE00000000000
000FFFFFFFFFE00000000000
003FFFFFFFFFE00000000000
007FFFFFFFFFE00000000000
00FFFFFFFFFFE00000000000
01FFFFFFFFFFE00000000000
03FFFFFFFFFFE00000000000
03FFFFFFFFFFE00000000000
07FFFFFFFFFFE00000000000
07FFFFFFFFFFE00000000000
0FFFFFFFFFFFE00000000000
0FFFFFFFFFFFE00000000000
1FFFFFFFFFFFE00000000000
1FFFFFC00000000000000000
1FFFFF000000000000000000
1FFFFC000000000000000000
1FFFFC000000000000000000
3FFFF8000000000000000000
3FFFF0000000000000000000
3FFFF0000000000000000000
3FFFE0000000000000000000
3FFFE0000000000000000000
3FFFE0000000000000000000
3FFFE0000000000000000000
3FFFE0000000000000000000
1FFFE0000000000000000000
1FFFE0000000000000000000
1FFFE0000000000000000000
1FFFF0000000000000000000
1FFFF0000000000000000000
0FFFF0000000000000000000
0FFFF8000000000000000000
07FFFC000000000000000000
07FFFE000000000000000000
03FFFF800000000000000000
01FFFFF00000000000000000
00FFFFFFFFFFFFFFFFFFF000
007FFFFFFFFFFFFFFFFFF000
003FFFFFFFFFFFFFFFFFF000
001FFFFFFFFFFFFFFFFFF000
0007FFFFFFFFFFFFFFFFF000
0001FFFFFFFFFFFFFFFFF000
000FFFFFFFFFFFFFFFFFF000
003FFFFFFFFFFFFFFFFFF000
007FFFFFFFFFFFFFFFFFF000
00FFFFFFFFFFFFFFFFFFF000
01FFFFFFFFFFFFFFFFFFF000
03FFFFFFFFFFFFFFFFFFF000
07FFFFFFFFFFFFFFFFFFF000
0FFFFFFFFFFFFFFFFFFFF000
1FFFFFF0000000FFFF000000
1FFFFF00000000FFFF000000
3FFFFC00000000FFFF000000
3FFFF000000000FFFF000000
3FFFE000000000FFFF000000
7FFFE000000000FFFF000000
7FFFC000000000FFFF000000
7FFFC000000000FFFF000000
7FFFC000000000FFFF000000
7FFF8000000000FFFF000000
FFFF8000000000FFFF000000
FFFF8000000000FFFF000000
FFFF8000000000FFFF000000
FFFF8000000000FFFF000000
FFFF8000000000FFFF000000
7FFFC000000000FFFF000000
7FFFC000000000FFFF000000
7FFFC000000000FFFF000000
7FFFE000000000FFFF000000
7FFFF000000000FFFF000000
7FFFF800000000FFFF000000
3FFFFC00000000FFFF000000
3FFFFF00000000FFFF000000
3FFFFFC0000000FFFF000000
1FFFFFFFFFFFFFFFFFFFFFC0
1FFFFFFFFFFFFFFFFFFFFFC0
0FFFFFFFFFFFFFFFFFFFFFC0
0FFFFFFFFFFFFFFFFFFFFFC0
07FFFFFFFFFFFFFFFFFFFFC0
07FFFFFFFFFFFFFFFFFFFFC0
03FFFFFFFFFFFFFFFFFFFFC0
01FFFFFFFFFFFFFFFFFFFFC0
00FFFFFFFFFFFFFFFFFFFFC0
007FFFFFFFFFFFFFFFFFFFC0
003FFFFFFFFFFFFFFFFFFFC0
001FFFFFFFFFFFFFFFFFFFC0
0007FFFFFFFFFFFFFFFFFFC0
0001FFFFFFFFFFFFFFFFFFC0
00007FFFFFFFFFFFFFFFFFC0
00000FFFFFFFFFFFFFFFFFC0
000000FFFFFFFFFFFFFFFFC0
ENDCHAR
STARTCHAR quotesingle
ENCODING 39
SWIDTH 255 0
DWIDTH 33 0
BBX 17 34 8 61
BITMAP
FFFF80
FFFF80
FFFF80
7FFF80
7FFF80
7FFF80
7FFF80
7FFF00
7FFF00
7FFF00
7FFF00
7FFF00
7FFF00
7FFF00
3FFF00
3FFF00
3FFF00
3FFF00
3FFE00
3FFE00
3FFE00
3FFE00
3FFE00
3FFE00
1FFE00
1FFE00
1FFE00
1FFE00
1FFE00
1FFC00
1FFC00
1FFC00
1FFC00
1FFC00
ENDCHAR
STARTCHAR parenleft
ENCODING 40
SWIDTH 356 0
DWIDTH 47 0
BBX 26 120 12 -12
BITMAP
0003FFC0
0003FFC0
0007FF80
0007FF80
000FFF00
000FFF00
001FFF00
001FFE00
001FFE00
003FFC00
003FFC00
003FF800
007FF800
007FF800
00FFF000
00FFF000
00FFF000
01FFE000
01FFE000
01FFE000
01FFC000
03FFC000
03FFC000
03FF8000
07FF8000
07FF8000
07FF0000
0FFF0000
0FFF0000
0FFE0000
0FFE0000
0FFE0000
1FFE0000
1FFC0000
1FFC0000
1FFC0000
3FFC0000
3FF80000
3FF80000
3FF80000
3FF80000
3FF80000
7FF00000
7FF00000
7FF00000
7FF00000
7FF00000
7FF00000
7FF00000
7FE00000
7FE00000
7FE00000
FFE00000
FFE00000
FFE00000
FFE00000
FFE00000
FFE00000
FFE00000
FFE00000
FFE00000
FFE00000
FFE00000
FFE00000
FFE00000
FFE00000
FFE00000
7FE00000
7FE00000
7FE00000
7FE00000
7FF00000
7FF00000
7FF00000
7FF00000
7FF00000
7FF00000
3FF00000
3FF80000
3FF80000
3FF80000
3FF80000
3FF80000
1FF80000
1FFC0000
1FFC0000
1FFC0000
1FFC0000
0FFE0000
0FFE0000
0FFE0000
0FFE0000
07FF0000
07FF0000
07FF0000
07FF8000
03FF8000
03FF8000
03FFC000
01FFC000
01FFC000
01FFE000
00FFE000
00FFE000
00FFF000
007FF000
007FF000
007FF800
003FF800
003FFC00
003FFC00
001FFE00
001FFE00
000FFE00
000FFF00
0007FF00
0007FF80
0007FF80
0003FFC0
0003FFC0
ENDCHAR
STARTCHAR parenright
ENCODING 41
SWIDTH 355 0
DWIDTH 47 0
BBX 26 120 8 -12
BITMAP
7FF80000
7FF80000
3FF80000
3FFC0000
3FFC0000
1FFE0000
1FFE0000
0FFE0000
0FFF0000
0FFF0000
07FF8000
07FF8000
03FF8000
03FFC000
03FFC000
01FFC000
01FFE000
01FFE000
00FFE000
00FFF000
00FFF000
007FF000
007FF800
007FF800
003FF800
003FF800
003FFC00
001FFC00
001FFC00
001FFE00
001FFE00
000FFE00
000FFE00
000FFE00
000FFF00
0007FF00
0007FF00
0007FF00
0007FF00
0003FF80
0003FF80
0003FF80
0003FF80
0003FF80
0003FF80
0001FF80
0001FFC0
0001FFC0
0001FFC0
0001FFC0
0001FFC0
0001FFC0
0001FFC0
0001FFC0
0001FFC0
0001FFC0
0000FFC0
0000FFC0
0000FFC0
0000FFC0
0000FFC0
0000FFC0
0000FFC0
0001FFC0
0001FFC0
0001FFC0
0001FFC0
0001FFC0
0001FFC0
0001FFC0
0001FFC0
0001FFC0
0001FFC0
0001FFC0
0001FF80
0003FF80
0003FF80
0003FF80
0003FF80
0003FF80
0003FF80
0007FF00
0007FF00
0007FF00
0007FF00
0007FF00
000FFE00
000FFE00
000FFE00
000FFE00
001FFE00
001FFC00
001FFC00
003FFC00
003FFC00
003FF800
003FF800
007FF800
007FF000
007FF000
00FFF000
00FFE000
00FFE000
01FFE000
01FFC000
03FFC000
03FFC000
03FF8000
07FF8000
07FF8000
0FFF0000
0FFF0000
0FFE0000
1FFE0000
1FFC0000
3FFC0000
3FFC0000
7FF80000
7FF80000
FFF00000
ENDCHAR
STARTCHAR asterisk
ENCODING 42
SWIDTH 469 0
DWIDTH 61 0
BBX 45 43 8 52
BITMAP
00001FE00000
00001FE00000
00001FE00000
00001FE00000
00001FE00000
00001FE00000
00001FE00000
00001FE00000
00001FE00000
00001FE00000
00001FE00000
00001FE00000
38001FE000E0
3F001FE007E0
3FF01FE03FF0
7FFE1FE1FFF0
7FFFDFFFFFF0
7FFFFFFFFFF8
FFFFFFFFFFF8
3FFFFFFFFFF0
07FFFFFFFF80
00FFFFFFF800
001FFFFFC000
0001FFFE0000
0000FFF80000
0001FFFC0000
0001FFFE0000
0003FFFE0000
0007FFFF0000
0007FDFF8000
000FF8FFC000
001FF87FC000
003FF07FE000
003FE03FF000
007FE01FF000
00FFC00FF800
00FF800FFC00
01FF0007FC00
03FF0003FE00
00FE0003F800
007C0001F000
001C0000E000
000800008000
ENDCHAR
STARTCHAR plus
ENCODING 43
SWIDTH 690 0
DWIDTH 90 0
BBX 74 74 8 11
BITMAP
00000000FFE000000000
00000000FFE000000000
00000000FFE000000000
00000000FFE000000000
00000000FFE000000000
00000000FFE000000000
00000000FFE000000000
00000000FFE000000000
00000000FFE000000000
00000000FFE000000000
00000000FFE000000000
00000000FFE000000000
00000000FFE000000000
00000000FFE000000000
00000000FFE000000000
00000000FFE000000000
00000000FFE000000000
00000000FFE000000000
00000000FFE000000000
00000000FFE000000000
00000000FFE000000000
00000000FFE000000000
00000000FFE000000000
00000000FFE000000000
00000000FFE000000000
00000000FFE000000000
00000000FFE000000000
00000000FFE000000000
00000000FFE000000000
00000000FFE000000000
00000000FFE000000000
00000000FFE000000000
FFFFFFFFFFFFFFFFFFC0
FFFFFFFFFFFFFFFFFFC0
FFFFFFFFFFFFFFFFFFC0
FFFFFFFFFFFFFFFFFFC0
FFFFFFFFFFFFFFFFFFC0
FFFFFFFFFFFFFFFFFFC0
FFFFFFFFFFFFFFFFFFC0
FFFFFFFFFFFFFFFFFFC0
FFFFFFFFFFFFFFFFFFC0
FFFFFFFFFFFFFFFFFFC0
FFFFFFFFFFFFFFFFFFC0
00000000FFE000000000
00000000FFE000000000
00000000FFE000000000
00000000FFE000000000
00000000FFE000000000
00000000FFE000000000
00000000FFE000000000
00000000FFE000000000
00000000FFE000000000
00000000FFE000000000
00000000FFE000000000
00000000FFE000000000
00000000FFE000000000
00000000FFE000000000
00000000FFE000000000
00000000FFE000000000
00000000FFE000000000
00000000FFE000000000
00000000FFE000000000
00000000FFE000000000
00000000FFE000000000
00000000FFE000000000
00000000FFE000000000
00000000FFE000000000
00000000FFE000000000
00000000FFE000000000
00000000FFE000000000
00000000FFE000000000
00000000FFE000000000
00000000FFE000000000
00000000FFE000000000
ENDCHAR
STARTCHAR comma
ENCODING 44
SWIDTH 259 0
DWIDTH 34 0
BBX 17 34 9 -15
BITMAP
FFFF80
FFFF00
FFFF00
FFFF00
FFFF00
FFFF00
FFFE00
FFFE00
FFFE00
FFFE00
FFFE00
FFFC00
FFFC00
FFFC00
FFFC00
FFFC00
FFFC00
FFF800
FFF800
FFF800
FFF800
FFF800
FFF000
FFF000
FFF000
FFF000
FFF000
FFE000
FFE000
FFE000
FFE000
FFE000
FFC000
FFC000
ENDCHAR
STARTCHAR hyphen
ENCODING 45
SWIDTH 296 0
DWIDTH 39 0
BBX 31 11 4 43
BITMAP
FFFFFFFE
FFFFFFFE
FFFFFFFE
FFFFFFFE
FFFFFFFE
FFFFFFFE
FFFFFFFE
FFFFFFFE
FFFFFFFE
FFFFFFFE
FFFFFFFE
ENDCHAR
STARTCHAR period
ENCODING 46
SWIDTH 262 0
DWIDTH 34 0
BBX 18 18 8 0
BITMAP
03F000
0FFC00
1FFE00
3FFF00
7FFF80
7FFF80
7FFFC0
FFFFC0
FFFFC0
FFFFC0
FFFFC0
7FFFC0
7FFF80
7FFF80
3FFF00
1FFE00
0FFC00
03F000
ENDCHAR
STARTCHAR slash
ENCODING 47
SWIDTH 444 0
DWIDTH 58 0
BBX 56 95 1 0
BITMAP
000000000007FF
00000000000FFE
00000000000FFE
00000000001FFC
00000000001FFC
00000000003FF8
00000000003FF8
00000000007FF0
00000000007FF0
0000000000FFE0
0000000000FFE0
0000000000FFE0
0000000001FFC0
0000000001FFC0
0000000003FF80
0000000003FF80
0000000007FF00
0000000007FF00
000000000FFE00
000000000FFE00
000000001FFC00
000000001FFC00
000000003FF800
000000003FF800
000000007FF000
000000007FF000
00000000FFF000
00000000FFE000
00000000FFE000
00000001FFC000
00000001FFC000
00000003FF8000
00000003FF8000
00000007FF0000
00000007FF0000
0000000FFE0000
0000000FFE0000
0000001FFC0000
0000001FFC0000
0000003FFC0000
0000003FF80000
0000007FF80000
0000007FF00000
000000FFF00000
000000FFE00000
000000FFE00000
000001FFC00000
000001FFC00000
000003FF800000
000003FF800000
000007FF000000
000007FF000000
00000FFE000000
00000FFE000000
00001FFE000000
00001FFC000000
00003FFC000000
00003FF8000000
00007FF8000000
00007FF0000000
0000FFF0000000
0000FFE0000000
0001FFE0000000
0001FFC0000000
0001FFC0000000
0003FF80000000
0003FF80000000
0007FF00000000
0007FF00000000
000FFF00000000
000FFE00000000
001FFE00000000
001FFC00000000
003FFC00000000
003FF800000000
007FF800000000
007FF000000000
00FFF000000000
00FFE000000000
01FFE000000000
01FFC000000000
01FFC000000000
03FFC000000000
03FF8000000000
07FF8000000000
07FF0000000000
0FFF0000000000
0FFE0000000000
1FFE0000000000
1FFC0000000000
3FFC0000000000
3FF80000000000
7FF80000000000
7FF00000000000
FFF00000000000
ENDCHAR
STARTCHAR zero
ENCODING 48
SWIDTH 838 0
DWIDTH 110 0
BBX 99 95 5 0
BITMAP
00000000003FFFC00000000000
0000000007FFFFFE0000000000
000000007FFFFFFFE000000000
00000003FFFFFFFFF800000000
0000000FFFFFFFFFFF00000000
0000003FFFFFFFFFFFC0000000
000000FFFFFFFFFFFFF0000000
000003FFFFFFFFFFFFFC000000
00000FFFFFFFFFFFFFFE000000
00001FFFFFFFFFFFFFFF800000
00003FFFFFFFFFFFFFFFC00000
0000FFFFFFFFFFFFFFFFE00000
0001FFFFFFFFFFFFFFFFF00000
0003FFFFFFFFFFFFFFFFF80000
0007FFFFFFFFFFFFFFFFFC0000
000FFFFFFFFFFFFFFFFFFE0000
001FFFFFFFFFFFFFFFFFFF0000
001FFFFFFF80001FFFFFFF8000
003FFFFFF8000003FFFFFFC000
007FFFFFE00000007FFFFFE000
00FFFFFF800000001FFFFFE000
00FFFFFE0000000007FFFFF000
01FFFFF80000000003FFFFF800
03FFFFF00000000000FFFFF800
03FFFFE000000000007FFFFC00
07FFFF8000000000003FFFFC00
07FFFF0000000000001FFFFE00
0FFFFF0000000000000FFFFE00
0FFFFE00000000000007FFFF00
0FFFFC00000000000007FFFF00
1FFFF800000000000003FFFF80
1FFFF800000000000001FFFF80
1FFFF000000000000001FFFF80
3FFFF000000000000000FFFFC0
3FFFE000000000000000FFFFC0
3FFFE0000000000000007FFFC0
7FFFE0000000000000007FFFC0
7FFFC0000000000000007FFFC0
7FFFC0000000000000007FFFE0
7FFFC0000000000000003FFFE0
7FFFC0000000000000003FFFE0
7FFFC0000000000000003FFFE0
7FFF80000000000000003FFFE0
7FFF80000000000000003FFFE0
7FFF80000000000000003FFFE0
FFFF80000000000000003FFFE0
FFFF80000000000000003FFFE0
FFFF80000000000000003FFFE0
7FFF80000000000000003FFFE0
7FFF80000000000000003FFFE0
7FFF80000000000000003FFFE0
7FFF80000000000000003FFFE0
7FFF80000000000000003FFFE0
7FFFC0000000000000003FFFE0
7FFFC0000000000000003FFFE0
7FFFC0000000000000003FFFC0
7FFFC0000000000000007FFFC0
3FFFE0000000000000007FFFC0
3FFFE0000000000000007FFFC0
3FFFE000000000000000FFFFC0
3FFFF000000000000000FFFF80
1FFFF000000000000000FFFF80
1FFFF800000000000001FFFF80
1FFFF800000000000001FFFF00
0FFFFC00000000000003FFFF00
0FFFFC00000000000007FFFF00
07FFFE00000000000007FFFE00
07FFFF0000000000000FFFFE00
03FFFF8000000000001FFFFC00
03FFFFC000000000003FFFFC00
01FFFFE000000000007FFFF800
01FFFFF00000000000FFFFF000
00FFFFF80000000003FFFFF000
007FFFFE0000000007FFFFE000
007FFFFF800000001FFFFFC000
003FFFFFE00000007FFFFFC000
001FFFFFF8000003FFFFFF8000
000FFFFFFF80001FFFFFFF0000
000FFFFFFFFFFFFFFFFFFE0000
0007FFFFFFFFFFFFFFFFFC0000
0003FFFFFFFFFFFFFFFFF80000
0001FFFFFFFFFFFFFFFFF00000
0000FFFFFFFFFFFFFFFFE00000
00003FFFFFFFFFFFFFFFC00000
00001FFFFFFFFFFFFFFF800000
00000FFFFFFFFFFFFFFF000000
000007FFFFFFFFFFFFFC000000
000001FFFFFFFFFFFFF8000000
0000007FFFFFFFFFFFE0000000
0000001FFFFFFFFFFF80000000
00000007FFFFFFFFFE00000000
00000001FFFFFFFFF800000000
000000003FFFFFFFC000000000
0000000007FFFFFE0000000000
00000000003FFF800000000000
ENDCHAR
STARTCHAR one
ENCODING 49
SWIDTH 385 0
DWIDTH 50 0
BBX 39 95 3 0
BITMAP
FFFF000000
FFFFF00000
FFFFFE0000
FFFFFF8000
FFFFFFE000
FFFFFFF000
FFFFFFFC00
FFFFFFFE00
FFFFFFFF00
FFFFFFFF80
FFFFFFFF80
FFFFFFFFC0
FFFFFFFFE0
FFFFFFFFE0
FFFFFFFFF0
FFFFFFFFF0
FFFFFFFFF8
0001FFFFF8
00007FFFF8
00003FFFFC
00001FFFFC
00000FFFFC
000007FFFC
000007FFFE
000003FFFE
000003FFFE
000003FFFE
000003FFFE
000001FFFE
000001FFFE
000001FFFE
000001FFFE
000001FFFE
000001FFFE
000001FFFE
000001FFFE
000001FFFE
000001FFFE
000001FFFE
000001FFFE
000001FFFE
000001FFFE
000001FFFE
000001FFFE
000001FFFE
000001FFFE
000001FFFE
000001FFFE
000001FFFE
000001FFFE
000001FFFE
000001FFFE
000001FFFE
000001FFFE
000001FFFE
000001FFFE
000001FFFE
000001FFFE
000001FFFE
000001FFFE
000001FFFE
000001FFFE
000001FFFE
000001FFFE
000001FFFE
000001FFFE
000001FFFE
000001FFFE
000001FFFE
000001FFFE
000001FFFE
000001FFFE
000001FFFE
000001FFFE
000001FFFE
000001FFFE
000001FFFE
000001FFFE
000001FFFE
000001FFFE
000001FFFE
000001FFFE
000001FFFE
000001FFFE
000001FFFE
000001FFFE
000001FFFE
000001FFFE
000001FFFE
000001FFFE
000001FFFE
000001FFFE
000001FFFE
000001FFFE
000001FFFE
ENDCHAR
STARTCHAR two
ENCODING 50
SWIDTH 825 0
DWIDTH 108 0
BBX 93 95 8 0
BITMAP
7FFFFFFFFFFFFFFFFE000000
7FFFFFFFFFFFFFFFFFE00000
7FFFFFFFFFFFFFFFFFFC0000
7FFFFFFFFFFFFFFFFFFF0000
7FFFFFFFFFFFFFFFFFFFC000
7FFFFFFFFFFFFFFFFFFFE000
7FFFFFFFFFFFFFFFFFFFF000
7FFFFFFFFFFFFFFFFFFFFC00
7FFFFFFFFFFFFFFFFFFFFE00
7FFFFFFFFFFFFFFFFFFFFE00
7FFFFFFFFFFFFFFFFFFFFF00
7FFFFFFFFFFFFFFFFFFFFF80
7FFFFFFFFFFFFFFFFFFFFFC0
7FFFFFFFFFFFFFFFFFFFFFC0
7FFFFFFFFFFFFFFFFFFFFFE0
7FFFFFFFFFFFFFFFFFFFFFE0
7FFFFFFFFFFFFFFFFFFFFFF0
000000000000000007FFFFF0
000000000000000001FFFFF0
0000000000000000007FFFF0
0000000000000000003FFFF8
0000000000000000003FFFF8
0000000000000000001FFFF8
0000000000000000001FFFF8
0000000000000000000FFFF8
0000000000000000000FFFF8
0000000000000000000FFFF8
0000000000000000000FFFF8
0000000000000000000FFFF8
0000000000000000000FFFF8
0000000000000000000FFFF8
0000000000000000000FFFF8
0000000000000000000FFFF8
0000000000000000001FFFF8
0000000000000000001FFFF0
0000000000000000003FFFF0
0000000000000000007FFFF0
000000000000000000FFFFE0
000000000000000001FFFFE0
00000000000000000FFFFFC0
000003FFFFFFFFFFFFFFFFC0
00003FFFFFFFFFFFFFFFFF80
0001FFFFFFFFFFFFFFFFFF80
000FFFFFFFFFFFFFFFFFFF00
001FFFFFFFFFFFFFFFFFFE00
007FFFFFFFFFFFFFFFFFFC00
00FFFFFFFFFFFFFFFFFFF800
01FFFFFFFFFFFFFFFFFFF000
03FFFFFFFFFFFFFFFFFFE000
07FFFFFFFFFFFFFFFFFF8000
0FFFFFFFFFFFFFFFFFFF0000
0FFFFFFFFFFFFFFFFFF80000
1FFFFFFFFFFFFFFFFFE00000
1FFFFFFFFFFFFFFFFE000000
3FFFFF800000000000000000
3FFFFC000000000000000000
3FFFF0000000000000000000
7FFFE0000000000000000000
7FFFC0000000000000000000
7FFF80000000000000000000
7FFF80000000000000000000
7FFF80000000000000000000
FFFF00000000000000000000
FFFF00000000000000000000
FFFF00000000000000000000
FFFF00000000000000000000
FFFF00000000000000000000
FFFF00000000000000000000
FFFF00000000000000000000
FFFF00000000000000000000
FFFF00000000000000000000
FFFF00000000000000000000
FFFF00000000000000000000
FFFF00000000000000000000
FFFF00000000000000000000
FFFF00000000000000000000
FFFF00000000000000000000
FFFF00000000000000000000
FFFFFFFFFFFFFFFFFFFFFFF0
FFFFFFFFFFFFFFFFFFFFFFF0
FFFFFFFFFFFFFFFFFFFFFFF0
FFFFFFFFFFFFFFFFFFFFFFF0
FFFFFFFFFFFFFFFFFFFFFFF0
FFFFFFFFFFFFFFFFFFFFFFF0
FFFFFFFFFFFFFFFFFFFFFFF0
FFFFFFFFFFFFFFFFFFFFFFF0
FFFFFFFFFFFFFFFFFFFFFFF0
FFFFFFFFFFFFFFFFFFFFFFF0
FFFFFFFFFFFFFFFFFFFFFFF0
FFFFFFFFFFFFFFFFFFFFFFF0
FFFFFFFFFFFFFFFFFFFFFFF0
FFFFFFFFFFFFFFFFFFFFFFF0
FFFFFFFFFFFFFFFFFFFFFFF0
FFFFFFFFFFFFFFFFFFFFFFF0
FFFFFFFFFFFFFFFFFFFFFFF0
ENDCHAR
STARTCHAR three
ENCODING 51
SWIDTH 827 0
DWIDTH 108 0
BBX 96 95 6 0
BITMAP
FFFFFFFFFFFFFFFFFE000000
FFFFFFFFFFFFFFFFFFF00000
FFFFFFFFFFFFFFFFFFFE0000
FFFFFFFFFFFFFFFFFFFF8000
FFFFFFFFFFFFFFFFFFFFE000
FFFFFFFFFFFFFFFFFFFFF800
FFFFFFFFFFFFFFFFFFFFFC00
FFFFFFFFFFFFFFFFFFFFFE00
FFFFFFFFFFFFFFFFFFFFFF00
FFFFFFFFFFFFFFFFFFFFFF80
FFFFFFFFFFFFFFFFFFFFFFC0
FFFFFFFFFFFFFFFFFFFFFFE0
FFFFFFFFFFFFFFFFFFFFFFE0
FFFFFFFFFFFFFFFFFFFFFFF0
FFFFFFFFFFFFFFFFFFFFFFF0
FFFFFFFFFFFFFFFFFFFFFFF8
FFFFFFFFFFFFFFFFFFFFFFF8
00000000000000000FFFFFF8
000000000000000001FFFFF8
0000000000000000007FFFFC
0000000000000000001FFFFC
0000000000000000001FFFFC
0000000000000000000FFFFC
0000000000000000000FFFFC
00000000000000000007FFFC
00000000000000000007FFFC
00000000000000000007FFFC
00000000000000000007FFFC
00000000000000000007FFFC
00000000000000000007FFFC
00000000000000000007FFFC
00000000000000000007FFF8
00000000000000000007FFF8
00000000000000000007FFF8
0000000000000000000FFFF8
0000000000000000000FFFF0
0000000000000000001FFFF0
0000000000000000003FFFE0
000000000000000000FFFFC0
000000000000000007FFFFC0
000001FFFFFFFFFFFFFFFF00
000001FFFFFFFFFFFFFFFE00
000001FFFFFFFFFFFFFFFC00
000001FFFFFFFFFFFFFFF800
000001FFFFFFFFFFFFFFE000
000001FFFFFFFFFFFFFFC000
000001FFFFFFFFFFFFFFF000
000001FFFFFFFFFFFFFFFC00
000001FFFFFFFFFFFFFFFF00
000001FFFFFFFFFFFFFFFF80
000001FFFFFFFFFFFFFFFFC0
000001FFFFFFFFFFFFFFFFE0
000001FFFFFFFFFFFFFFFFF0
000001FFFFFFFFFFFFFFFFF0
000000000000000003FFFFF8
0000000000000000007FFFFC
0000000000000000001FFFFC
0000000000000000000FFFFC
00000000000000000007FFFE
00000000000000000007FFFE
00000000000000000003FFFE
00000000000000000003FFFF
00000000000000000001FFFF
00000000000000000001FFFF
00000000000000000001FFFF
00000000000000000001FFFF
00000000000000000001FFFF
00000000000000000001FFFF
00000000000000000001FFFF
00000000000000000001FFFF
00000000000000000003FFFF
00000000000000000003FFFF
00000000000000000007FFFE
0000000000000000000FFFFE
0000000000000000001FFFFE
0000000000000000003FFFFE
000000000000000000FFFFFC
000000000000000007FFFFFC
FFFFFFFFFFFFFFFFFFFFFFFC
FFFFFFFFFFFFFFFFFFFFFFF8
FFFFFFFFFFFFFFFFFFFFFFF8
FFFFFFFFFFFFFFFFFFFFFFF0
FFFFFFFFFFFFFFFFFFFFFFE0
FFFFFFFFFFFFFFFFFFFFFFE0
FFFFFFFFFFFFFFFFFFFFFFC0
FFFFFFFFFFFFFFFFFFFFFF80
FFFFFFFFFFFFFFFFFFFFFF00
FFFFFFFFFFFFFFFFFFFFFE00
FFFFFFFFFFFFFFFFFFFFFC00
FFFFFFFFFFFFFFFFFFFFF800
FFFFFFFFFFFFFFFFFFFFE000
FFFFFFFFFFFFFFFFFFFF8000
FFFFFFFFFFFFFFFFFFFE0000
FFFFFFFFFFFFFFFFFFF00000
FFFFFFFFFFFFFFFFFF000000
ENDCHAR
STARTCHAR four
ENCODING 52
SWIDTH 845 0
DWIDTH 111 0
BBX 101 95 6 0
BITMAP
FFFF80000000000001FFFF0000
FFFF80000000000001FFFF0000
FFFF80000000000001FFFF0000
FFFF80000000000001FFFF0000
FFFF80000000000001FFFF0000
FFFF80000000000001FFFF0000
FFFF80000000000001FFFF0000
FFFF80000000000001FFFF0000
FFFF80000000000001FFFF0000
FFFF80000000000001FFFF0000
FFFF80000000000001FFFF0000
FFFF80000000000001FFFF0000
FFFF80000000000001FFFF0000
FFFF80000000000001FFFF0000
FFFF80000000000001FFFF0000
FFFF80000000000001FFFF0000
FFFF80000000000001FFFF0000
FFFF80000000000001FFFF0000
FFFF80000000000001FFFF0000
FFFF80000000000001FFFF0000
FFFF80000000000001FFFF0000
FFFF80000000000001FFFF0000
FFFF80000000000001FFFF0000
FFFF80000000000001FFFF0000
FFFF80000000000001FFFF0000
FFFF80000000000001FFFF0000
FFFF80000000000001FFFF0000
FFFF80000000000001FFFF0000
FFFF80000000000001FFFF0000
FFFF80000000000001FFFF0000
FFFF80000000000001FFFF0000
FFFF80000000000001FFFF0000
FFFF80000000000001FFFF0000
FFFF80000000000001FFFF0000
FFFF80000000000001FFFF0000
FFFF80000000000001FFFF0000
FFFF80000000000001FFFF0000
FFFF80000000000001FFFF0000
FFFF80000000000001FFFF0000
FFFF80000000000001FFFF0000
FFFF80000000000001FFFF0000
FFFF80000000000001FFFF0000
FFFF80000000000001FFFF0000
FFFF80000000000001FFFF0000
7FFF80000000000001FFFF0000
7FFFC0000000000001FFFF0000
7FFFC0000000000001FFFF0000
7FFFC0000000000001FFFF0000
7FFFE0000000000001FFFF0000
7FFFE0000000000001FFFF0000
3FFFF0000000000001FFFF0000
3FFFF8000000000001FFFF0000
3FFFFE000000000001FFFF0000
3FFFFFC00000000001FFFF0000
1FFFFFFFFFFFFFFFFFFFFFFFF8
1FFFFFFFFFFFFFFFFFFFFFFFF8
0FFFFFFFFFFFFFFFFFFFFFFFF8
0FFFFFFFFFFFFFFFFFFFFFFFF8
07FFFFFFFFFFFFFFFFFFFFFFF8
03FFFFFFFFFFFFFFFFFFFFFFF8
03FFFFFFFFFFFFFFFFFFFFFFF8
01FFFFFFFFFFFFFFFFFFFFFFF8
00FFFFFFFFFFFFFFFFFFFFFFF8
007FFFFFFFFFFFFFFFFFFFFFF8
001FFFFFFFFFFFFFFFFFFFFFF8
000FFFFFFFFFFFFFFFFFFFFFF8
0003FFFFFFFFFFFFFFFFFFFFF8
0000FFFFFFFFFFFFFFFFFFFFF8
00001FFFFFFFFFFFFFFFFFFFF8
000000FFFFFFFFFFFFFFFFFFF8
000000000000000001FFFF0000
000000000000000001FFFF0000
000000000000000001FFFF0000
000000000000000001FFFF0000
000000000000000001FFFF0000
000000000000000001FFFF0000
000000000000000001FFFF0000
000000000000000001FFFF0000
000000000000000001FFFF0000
000000000000000001FFFF0000
000000000000000001FFFF0000
000000000000000001FFFF0000
000000000000000001FFFF0000
000000000000000001FFFF0000
000000000000000001FFFF0000
000000000000000001FFFF0000
000000000000000001FFFF0000
000000000000000001FFFF0000
000000000000000001FFFF0000
000000000000000001FFFF0000
000000000000000001FFFF0000
000000000000000001FFFF0000
000000000000000001FFFF0000
000000000000000001FFFF0000
000000000000000001FFFF0000
ENDCHAR
STARTCHAR five
ENCODING 53
SWIDTH 885 0
DWIDTH 116 0
BBX 101 95 8 0
BITMAP
FFFFFFFFFFFFFFFFFFFFFFFF80
FFFFFFFFFFFFFFFFFFFFFFFF80
FFFFFFFFFFFFFFFFFFFFFFFF80
FFFFFFFFFFFFFFFFFFFFFFFF80
FFFFFFFFFFFFFFFFFFFFFFFF80
FFFFFFFFFFFFFFFFFFFFFFFF80
FFFFFFFFFFFFFFFFFFFFFFFF80
FFFFFFFFFFFFFFFFFFFFFFFF80
FFFFFFFFFFFFFFFFFFFFFFFF80
FFFFFFFFFFFFFFFFFFFFFFFF80
FFFFFFFFFFFFFFFFFFFFFFFF80
FFFFFFFFFFFFFFFFFFFFFFFF80
FFFFFFFFFFFFFFFFFFFFFFFF80
FFFFFFFFFFFFFFFFFFFFFFFF80
FFFFFFFFFFFFFFFFFFFFFFFF80
FFFFFFFFFFFFFFFFFFFFFFFF80
FFFFFFFFFFFFFFFFFFFFFFFF80
FFFF8000000000000000000000
FFFF8000000000000000000000
FFFF8000000000000000000000
FFFF8000000000000000000000
FFFF8000000000000000000000
FFFF8000000000000000000000
FFFF8000000000000000000000
FFFF8000000000000000000000
FFFF8000000000000000000000
FFFF8000000000000000000000
FFFF8000000000000000000000
FFFF8000000000000000000000
FFFF8000000000000000000000
FFFF8000000000000000000000
FFFF8000000000000000000000
FFFF8000000000000000000000
FFFF8000000000000000000000
FFFF8000000000000000000000
FFFF8000000000000000000000
FFFF8000000000000000000000
FFFF8000000000000000000000
FFFF8000000000000000000000
FFFF8000000000000000000000
FFFFFFFFFFFFFFFFFFFE000000
FFFFFFFFFFFFFFFFFFFFF00000
FFFFFFFFFFFFFFFFFFFFFE0000
FFFFFFFFFFFFFFFFFFFFFF8000
FFFFFFFFFFFFFFFFFFFFFFE000
FFFFFFFFFFFFFFFFFFFFFFF000
FFFFFFFFFFFFFFFFFFFFFFF800
FFFFFFFFFFFFFFFFFFFFFFFC00
FFFFFFFFFFFFFFFFFFFFFFFE00
FFFFFFFFFFFFFFFFFFFFFFFF00
FFFFFFFFFFFFFFFFFFFFFFFF80
FFFFFFFFFFFFFFFFFFFFFFFF80
FFFFFFFFFFFFFFFFFFFFFFFFC0
FFFFFFFFFFFFFFFFFFFFFFFFE0
0000000000000000000FFFFFE0
00000000000000000001FFFFE0
000000000000000000007FFFF0
000000000000000000003FFFF0
000000000000000000001FFFF0
000000000000000000000FFFF0
000000000000000000000FFFF8
0000000000000000000007FFF8
0000000000000000000007FFF8
0000000000000000000007FFF8
0000000000000000000007FFF8
0000000000000000000007FFF8
0000000000000000000007FFF8
0000000000000000000007FFF8
0000000000000000000007FFF8
0000000000000000000007FFF8
0000000000000000000007FFF8
000000000000000000000FFFF8
000000000000000000000FFFF8
000000000000000000001FFFF8
000000000000000000003FFFF0
000000000000000000007FFFF0
00000000000000000000FFFFF0
00000000000000000003FFFFF0
FFFFFFFFFFFFFFFFFFFFFFFFE0
FFFFFFFFFFFFFFFFFFFFFFFFE0
FFFFFFFFFFFFFFFFFFFFFFFFC0
FFFFFFFFFFFFFFFFFFFFFFFFC0
FFFFFFFFFFFFFFFFFFFFFFFF80
FFFFFFFFFFFFFFFFFFFFFFFF80
FFFFFFFFFFFFFFFFFFFFFFFF00
FFFFFFFFFFFFFFFFFFFFFFFE00
FFFFFFFFFFFFFFFFFFFFFFFC00
FFFFFFFFFFFFFFFFFFFFFFF800
FFFFFFFFFFFFFFFFFFFFFFF000
FFFFFFFFFFFFFFFFFFFFFFE000
FFFFFFFFFFFFFFFFFFFFFFC000
FFFFFFFFFFFFFFFFFFFFFF0000
FFFFFFFFFFFFFFFFFFFFFC0000
FFFFFFFFFFFFFFFFFFFFE00000
FFFFFFFFFFFFFFFFFFFE000000
ENDCHAR
STARTCHAR six
ENCODING 54
SWIDTH 872 0
DWIDTH 114 0
BBX 102 95 5 0
BITMAP
000000000FFFFFFFFFFFFFFFC0
00000003FFFFFFFFFFFFFFFFC0
0000003FFFFFFFFFFFFFFFFFC0
000000FFFFFFFFFFFFFFFFFFC0
000007FFFFFFFFFFFFFFFFFFC0
00001FFFFFFFFFFFFFFFFFFFC0
00003FFFFFFFFFFFFFFFFFFFC0
0000FFFFFFFFFFFFFFFFFFFFC0
0001FFFFFFFFFFFFFFFFFFFFC0
0003FFFFFFFFFFFFFFFFFFFFC0
0007FFFFFFFFFFFFFFFFFFFFC0
000FFFFFFFFFFFFFFFFFFFFFC0
001FFFFFFFFFFFFFFFFFFFFFC0
003FFFFFFFFFFFFFFFFFFFFFC0
007FFFFFFFFFFFFFFFFFFFFFC0
00FFFFFFFFFFFFFFFFFFFFFFC0
00FFFFFFFFFFFFFFFFFFFFFFC0
01FFFFFFF00000000000000000
01FFFFFF000000000000000000
03FFFFFC000000000000000000
07FFFFF0000000000000000000
07FFFFC0000000000000000000
07FFFF80000000000000000000
0FFFFF00000000000000000000
0FFFFE00000000000000000000
1FFFFE00000000000000000000
1FFFFC00000000000000000000
1FFFF800000000000000000000
1FFFF800000000000000000000
3FFFF000000000000000000000
3FFFF000000000000000000000
3FFFE000000000000000000000
3FFFE000000000000000000000
7FFFE000000000000000000000
7FFFE000000000000000000000
7FFFC000000000000000000000
7FFFC000000000000000000000
7FFFC000000000000000000000
7FFFC000000000000000000000
7FFFC000000000000000000000
7FFFFFFFFFFFFFFFFFFF000000
7FFFFFFFFFFFFFFFFFFFF80000
7FFFFFFFFFFFFFFFFFFFFF0000
7FFFFFFFFFFFFFFFFFFFFFC000
FFFFFFFFFFFFFFFFFFFFFFF000
FFFFFFFFFFFFFFFFFFFFFFFC00
FFFFFFFFFFFFFFFFFFFFFFFE00
FFFFFFFFFFFFFFFFFFFFFFFF00
7FFFFFFFFFFFFFFFFFFFFFFF80
7FFFFFFFFFFFFFFFFFFFFFFFC0
7FFFFFFFFFFFFFFFFFFFFFFFC0
7FFFFFFFFFFFFFFFFFFFFFFFE0
7FFFFFFFFFFFFFFFFFFFFFFFE0
7FFFFFFFFFFFFFFFFFFFFFFFF0
7FFF8000000000000007FFFFF0
7FFFC000000000000000FFFFF8
7FFFC0000000000000003FFFF8
7FFFC0000000000000001FFFF8
7FFFC0000000000000000FFFFC
7FFFC00000000000000007FFFC
3FFFE00000000000000007FFFC
3FFFE00000000000000003FFFC
3FFFE00000000000000003FFFC
3FFFE00000000000000003FFFC
3FFFF00000000000000003FFFC
1FFFF00000000000000003FFFC
1FFFF80000000000000003FFFC
1FFFF80000000000000003FFFC
0FFFFC0000000000000003FFFC
0FFFFE0000000000000003FFFC
0FFFFE0000000000000003FFFC
07FFFF0000000000000007FFFC
07FFFF8000000000000007FFFC
03FFFFE00000000000000FFFFC
03FFFFF00000000000001FFFF8
01FFFFFC0000000000003FFFF8
01FFFFFF0000000000007FFFF8
00FFFFFFE00000000003FFFFF8
00FFFFFFFFFFFFFFFFFFFFFFF0
007FFFFFFFFFFFFFFFFFFFFFF0
003FFFFFFFFFFFFFFFFFFFFFF0
001FFFFFFFFFFFFFFFFFFFFFE0
000FFFFFFFFFFFFFFFFFFFFFC0
000FFFFFFFFFFFFFFFFFFFFFC0
0007FFFFFFFFFFFFFFFFFFFF80
0001FFFFFFFFFFFFFFFFFFFF00
0000FFFFFFFFFFFFFFFFFFFF00
00007FFFFFFFFFFFFFFFFFFE00
00001FFFFFFFFFFFFFFFFFF800
00000FFFFFFFFFFFFFFFFFF000
000003FFFFFFFFFFFFFFFFE000
000000FFFFFFFFFFFFFFFF8000
0000001FFFFFFFFFFFFFFE0000
00000003FFFFFFFFFFFFF00000
000000000FFFFFFFFFFF000000
ENDCHAR
STARTCHAR seven
ENCODING 55
SWIDTH 756 0
DWIDTH 99 0
BBX 90 95 6 0
BITMAP
FFFFFFFFFFFFFFFFFFFFF000
FFFFFFFFFFFFFFFFFFFFFE00
FFFFFFFFFFFFFFFFFFFFFF00
FFFFFFFFFFFFFFFFFFFFFF80
FFFFFFFFFFFFFFFFFFFFFFC0
FFFFFFFFFFFFFFFFFFFFFFC0
FFFFFFFFFFFFFFFFFFFFFFC0
FFFFFFFFFFFFFFFFFFFFFFC0
FFFFFFFFFFFFFFFFFFFFFFC0
FFFFFFFFFFFFFFFFFFFFFFC0
FFFFFFFFFFFFFFFFFFFFFFC0
FFFFFFFFFFFFFFFFFFFFFFC0
FFFFFFFFFFFFFFFFFFFFFF80
FFFFFFFFFFFFFFFFFFFFFF80
FFFFFFFFFFFFFFFFFFFFFF00
FFFFFFFFFFFFFFFFFFFFFE00
FFFFFFFFFFFFFFFFFFFFFC00
00000000000000007FFFFC00
0000000000000000FFFFF800
0000000000000001FFFFF000
0000000000000003FFFFE000
0000000000000003FFFFC000
0000000000000007FFFFC000
000000000000000FFFFF8000
000000000000001FFFFF0000
000000000000003FFFFE0000
000000000000007FFFFC0000
000000000000007FFFF80000
00000000000000FFFFF80000
00000000000001FFFFF00000
00000000000003FFFFE00000
00000000000007FFFFC00000
0000000000000FFFFF800000
0000000000000FFFFF800000
0000000000001FFFFF000000
0000000000003FFFFE000000
0000000000007FFFFC000000
000000000000FFFFF8000000
000000000001FFFFF0000000
000000000001FFFFF0000000
000000000003FFFFE0000000
000000000007FFFFC0000000
00000000000FFFFF80000000
00000000001FFFFF00000000
00000000003FFFFF00000000
00000000003FFFFE00000000
00000000007FFFFC00000000
0000000000FFFFF800000000
0000000001FFFFF000000000
0000000003FFFFE000000000
0000000007FFFFE000000000
0000000007FFFFC000000000
000000000FFFFF8000000000
000000001FFFFF0000000000
000000003FFFFE0000000000
000000007FFFFE0000000000
000000007FFFFC0000000000
00000000FFFFF80000000000
00000001FFFFF00000000000
00000003FFFFE00000000000
00000007FFFFC00000000000
0000000FFFFFC00000000000
0000000FFFFF800000000000
0000001FFFFF000000000000
0000003FFFFE000000000000
0000007FFFFC000000000000
000000FFFFFC000000000000
000001FFFFF8000000000000
000001FFFFF0000000000000
000003FFFFE0000000000000
000007FFFFC0000000000000
00000FFFFF80000000000000
00001FFFFF80000000000000
00003FFFFF00000000000000
00003FFFFE00000000000000
00007FFFFC00000000000000
0000FFFFF800000000000000
0001FFFFF800000000000000
0003FFFFF000000000000000
0007FFFFE000000000000000
0007FFFFC000000000000000
000FFFFF8000000000000000
001FFFFF0000000000000000
003FFFFF0000000000000000
007FFFFE0000000000000000
00FFFFFC0000000000000000
00FFFFF80000000000000000
01FFFFF00000000000000000
03FFFFF00000000000000000
07FFFFE00000000000000000
0FFFFFC00000000000000000
1FFFFF800000000000000000
1FFFFF000000000000000000
3FFFFE000000000000000000
7FFFFE000000000000000000
ENDCHAR
STARTCHAR eight
ENCODING 56
SWIDTH 898 0
DWIDTH 118 0
BBX 104 95 7 0
BITMAP
0000007FFFFFFFFFFFFE000000
00000FFFFFFFFFFFFFFFF00000
00007FFFFFFFFFFFFFFFFE0000
0003FFFFFFFFFFFFFFFFFF8000
0007FFFFFFFFFFFFFFFFFFE000
001FFFFFFFFFFFFFFFFFFFF800
003FFFFFFFFFFFFFFFFFFFFC00
00FFFFFFFFFFFFFFFFFFFFFE00
01FFFFFFFFFFFFFFFFFFFFFF00
03FFFFFFFFFFFFFFFFFFFFFF80
03FFFFFFFFFFFFFFFFFFFFFFC0
07FFFFFFFFFFFFFFFFFFFFFFE0
0FFFFFFFFFFFFFFFFFFFFFFFE0
0FFFFFFFFFFFFFFFFFFFFFFFF0
1FFFFFFFFFFFFFFFFFFFFFFFF0
1FFFFFFFFFFFFFFFFFFFFFFFF8
1FFFFFFFFFFFFFFFFFFFFFFFF8
3FFFFFE0000000000007FFFFF8
3FFFFF00000000000000FFFFFC
3FFFFC000000000000007FFFFC
3FFFF8000000000000001FFFFC
3FFFF0000000000000001FFFFC
3FFFF0000000000000000FFFFC
3FFFE00000000000000007FFFC
3FFFE00000000000000007FFFC
3FFFE00000000000000007FFFC
3FFFC00000000000000007FFFC
3FFFC00000000000000007FFFC
3FFFC00000000000000007FFFC
3FFFC00000000000000007FFFC
3FFFC00000000000000007FFFC
3FFFE00000000000000007FFFC
3FFFE00000000000000007FFF8
1FFFE00000000000000007FFF8
1FFFE0000000000000000FFFF8
1FFFF0000000000000000FFFF0
0FFFF8000000000000001FFFF0
07FFFC000000000000003FFFE0
07FFFF00000000000000FFFFC0
03FFFFE0000000000007FFFFC0
01FFFFFFFFFFFFFFFFFFFFFF80
00FFFFFFFFFFFFFFFFFFFFFF00
007FFFFFFFFFFFFFFFFFFFFC00
001FFFFFFFFFFFFFFFFFFFF800
0007FFFFFFFFFFFFFFFFFFE000
0007FFFFFFFFFFFFFFFFFFC000
001FFFFFFFFFFFFFFFFFFFF000
007FFFFFFFFFFFFFFFFFFFFC00
00FFFFFFFFFFFFFFFFFFFFFF00
01FFFFFFFFFFFFFFFFFFFFFF80
03FFFFFFFFFFFFFFFFFFFFFFC0
07FFFFFFFFFFFFFFFFFFFFFFE0
0FFFFFFFFFFFFFFFFFFFFFFFF0
1FFFFFFFFFFFFFFFFFFFFFFFF0
1FFFFFC0000000000003FFFFF8
3FFFFE000000000000007FFFFC
3FFFF8000000000000001FFFFC
7FFFF0000000000000000FFFFC
7FFFE00000000000000007FFFE
7FFFC00000000000000007FFFE
FFFFC00000000000000003FFFE
FFFF800000000000000003FFFF
FFFF800000000000000001FFFF
FFFF800000000000000001FFFF
FFFF800000000000000001FFFF
FFFF000000000000000001FFFF
FFFF000000000000000001FFFF
FFFF800000000000000001FFFF
FFFF800000000000000001FFFF
FFFF800000000000000001FFFF
FFFF800000000000000003FFFF
FFFFC00000000000000003FFFF
FFFFC00000000000000007FFFE
FFFFE0000000000000000FFFFE
7FFFF0000000000000001FFFFE
7FFFFC000000000000003FFFFE
7FFFFF00000000000000FFFFFC
3FFFFFE0000000000007FFFFFC
3FFFFFFFFFFFFFFFFFFFFFFFFC
3FFFFFFFFFFFFFFFFFFFFFFFF8
1FFFFFFFFFFFFFFFFFFFFFFFF8
1FFFFFFFFFFFFFFFFFFFFFFFF0
0FFFFFFFFFFFFFFFFFFFFFFFF0
07FFFFFFFFFFFFFFFFFFFFFFE0
07FFFFFFFFFFFFFFFFFFFFFFC0
03FFFFFFFFFFFFFFFFFFFFFF80
01FFFFFFFFFFFFFFFFFFFFFF00
00FFFFFFFFFFFFFFFFFFFFFE00
007FFFFFFFFFFFFFFFFFFFFC00
001FFFFFFFFFFFFFFFFFFFF800
000FFFFFFFFFFFFFFFFFFFE000
0003FFFFFFFFFFFFFFFFFFC000
0000FFFFFFFFFFFFFFFFFE0000
00001FFFFFFFFFFFFFFFF00000
000000FFFFFFFFFFFFFF000000
ENDCHAR
STARTCHAR nine
ENCODING 57
SWIDTH 861 0
DWIDTH 113 0
BBX 102 95 5 0
BITMAP
000003FFFFFFFFFFE000000000
00001FFFFFFFFFFFFF00000000
0000FFFFFFFFFFFFFFF0000000
0003FFFFFFFFFFFFFFFC000000
0007FFFFFFFFFFFFFFFF800000
001FFFFFFFFFFFFFFFFFC00000
003FFFFFFFFFFFFFFFFFF00000
007FFFFFFFFFFFFFFFFFFC0000
00FFFFFFFFFFFFFFFFFFFE0000
01FFFFFFFFFFFFFFFFFFFF0000
03FFFFFFFFFFFFFFFFFFFF8000
03FFFFFFFFFFFFFFFFFFFFC000
07FFFFFFFFFFFFFFFFFFFFE000
0FFFFFFFFFFFFFFFFFFFFFF000
0FFFFFFFFFFFFFFFFFFFFFF800
1FFFFFFFFFFFFFFFFFFFFFF800
1FFFFFFFFFFFFFFFFFFFFFFC00
1FFFFF80000000001FFFFFFE00
3FFFFE000000000003FFFFFE00
3FFFFC0000000000007FFFFF00
3FFFF80000000000001FFFFF80
7FFFF00000000000000FFFFF80
7FFFE000000000000007FFFF80
7FFFE000000000000003FFFFC0
7FFFC000000000000001FFFFC0
7FFFC000000000000000FFFFE0
7FFFC0000000000000007FFFE0
7FFFC0000000000000007FFFE0
FFFFC0000000000000003FFFF0
FFFF80000000000000003FFFF0
FFFF80000000000000001FFFF0
7FFF80000000000000001FFFF0
7FFF80000000000000001FFFF8
7FFFC0000000000000000FFFF8
7FFFC0000000000000000FFFF8
7FFFC0000000000000000FFFF8
7FFFC0000000000000000FFFF8
7FFFE00000000000000007FFFC
7FFFE00000000000000007FFFC
7FFFF00000000000000007FFFC
3FFFF80000000000000007FFFC
3FFFFC0000000000000007FFFC
3FFFFF0000000000000007FFFC
1FFFFFC000000000000007FFFC
1FFFFFFFFFFFFFFFFFFFFFFFFC
1FFFFFFFFFFFFFFFFFFFFFFFFC
0FFFFFFFFFFFFFFFFFFFFFFFFC
07FFFFFFFFFFFFFFFFFFFFFFFC
07FFFFFFFFFFFFFFFFFFFFFFFC
03FFFFFFFFFFFFFFFFFFFFFFFC
01FFFFFFFFFFFFFFFFFFFFFFFC
00FFFFFFFFFFFFFFFFFFFFFFFC
007FFFFFFFFFFFFFFFFFFFFFFC
003FFFFFFFFFFFFFFFFFFFFFFC
000FFFFFFFFFFFFFFFFFFFFFFC
0003FFFFFFFFFFFFFFFFFFFFFC
00007FFFFFFFFFFFFFFFFFFFFC
000007FFFFFFFFFFFFFFFFFFFC
0000000000000000000007FFFC
0000000000000000000007FFFC
000000000000000000000FFFF8
000000000000000000000FFFF8
000000000000000000000FFFF8
000000000000000000001FFFF8
000000000000000000001FFFF8
000000000000000000001FFFF0
000000000000000000003FFFF0
000000000000000000003FFFF0
000000000000000000007FFFF0
00000000000000000000FFFFE0
00000000000000000000FFFFE0
00000000000000000001FFFFE0
00000000000000000003FFFFC0
00000000000000000007FFFFC0
0000000000000000001FFFFF80
0000000000000000007FFFFF80
000000000000000001FFFFFF00
00000000000000000FFFFFFF00
001FFFFFFFFFFFFFFFFFFFFE00
001FFFFFFFFFFFFFFFFFFFFC00
001FFFFFFFFFFFFFFFFFFFFC00
001FFFFFFFFFFFFFFFFFFFF800
001FFFFFFFFFFFFFFFFFFFF000
001FFFFFFFFFFFFFFFFFFFE000
001FFFFFFFFFFFFFFFFFFFC000
001FFFFFFFFFFFFFFFFFFF8000
001FFFFFFFFFFFFFFFFFFF0000
001FFFFFFFFFFFFFFFFFFE0000
001FFFFFFFFFFFFFFFFFF80000
001FFFFFFFFFFFFFFFFFF00000
001FFFFFFFFFFFFFFFFFC00000
001FFFFFFFFFFFFFFFFE000000
001FFFFFFFFFFFFFFFF8000000
001FFFFFFFFFFFFFFF80000000
001FFFFFFFFFFFFFF000000000
ENDCHAR
STARTCHAR colon
ENCODING 58
SWIDTH 262 0
DWIDTH 34 0
BBX 18 61 8 0
BITMAP
03F000
0FFC00
1FFE00
3FFF00
7FFF80
7FFF80
7FFFC0
FFFFC0
FFFFC0
FFFFC0
FFFFC0
FFFFC0
7FFF80
7FFF80
3FFF00
1FFE00
0FFC00
03F000
000000
000000
000000
000000
000000
000000
000000
000000
000000
000000
000000
000000
000000
000000
000000
000000
000000
000000
000000
000000
000000
000000
000000
000000
000000
03F000
0FFC00
1FFE00
3FFF00
7FFF80
7FFF80
7FFFC0
FFFFC0
FFFFC0
FFFFC0
FFFFC0
7FFFC0
7FFF80
7FFF80
3FFF00
1FFE00
0FFC00
03F000
ENDCHAR
STARTCHAR semicolon
ENCODING 59
SWIDTH 262 0
DWIDTH 34 0
BBX 18 75 8 -15
BITMAP
03F000
0FFC00
1FFF00
3FFF00
7FFF80
7FFF80
7FFFC0
FFFFC0
FFFFC0
FFFFC0
FFFFC0
7FFFC0
7FFF80
7FFF80
3FFF00
1FFF00
0FFC00
03F000
000000
000000
000000
000000
000000
000000
000000
000000
000000
000000
000000
000000
000000
000000
000000
000000
000000
000000
000000
000000
000000
000000
000000
7FFFC0
7FFF80
7FFF80
7FFF80
7FFF80
7FFF80
7FFF00
7FFF00
7FFF00
7FFF00
7FFF00
7FFE00
7FFE00
7FFE00
7FFE00
7FFE00
7FFE00
7FFC00
7FFC00
7FFC00
7FFC00
7FFC00
7FF800
7FF800
7FF800
7FF800
7FF800
7FF000
7FF000
7FF000
7FF000
7FF000
7FE000
7FE000
ENDCHAR
STARTCHAR less
ENCODING 60
SWIDTH 690 0
DWIDTH 90 0
BBX 74 71 8 13
BITMAP
00000000000000000040
000000000000000000C0
000000000000000007C0
00000000000000001FC0
00000000000000007FC0
0000000000000003FFC0
000000000000000FFFC0
000000000000007FFFC0
00000000000001FFFFC0
00000000000007FFFFC0
0000000000003FFFFFC0
000000000000FFFFFFC0
000000000007FFFFFFC0
00000000001FFFFFFE00
00000000007FFFFFF800
0000000003FFFFFFC000
000000000FFFFFFF0000
000000007FFFFFF80000
00000001FFFFFFC00000
00000007FFFFFF000000
0000003FFFFFF8000000
000000FFFFFFE0000000
000007FFFFFF00000000
00001FFFFFFC00000000
00007FFFFFE000000000
0003FFFFFF0000000000
000FFFFFFC0000000000
003FFFFFE00000000000
01FFFFFF800000000000
07FFFFFC000000000000
1FFFFFF0000000000000
3FFFFF80000000000000
7FFFFE00000000000000
7FFFF000000000000000
FFFF8000000000000000
FFFE0000000000000000
FFFF8000000000000000
FFFFE000000000000000
7FFFFC00000000000000
3FFFFF00000000000000
1FFFFFE0000000000000
0FFFFFF8000000000000
03FFFFFF000000000000
007FFFFFC00000000000
001FFFFFF80000000000
0007FFFFFE0000000000
0000FFFFFFC000000000
00003FFFFFF000000000
000007FFFFFE00000000
000001FFFFFFC0000000
0000007FFFFFF0000000
0000000FFFFFFE000000
00000003FFFFFF800000
000000007FFFFFF00000
000000001FFFFFFC0000
0000000007FFFFFF8000
0000000000FFFFFFE000
00000000003FFFFFFC00
00000000000FFFFFFF00
000000000001FFFFFFC0
0000000000007FFFFFC0
0000000000000FFFFFC0
00000000000003FFFFC0
00000000000000FFFFC0
000000000000001FFFC0
0000000000000007FFC0
0000000000000000FFC0
00000000000000003FC0
00000000000000000FC0
000000000000000001C0
00000000000000000040
ENDCHAR
STARTCHAR equal
ENCODING 61
SWIDTH 690 0
DWIDTH 90 0
BBX 74 46 8 25
BITMAP
FFFFFFFFFFFFFFFFFFC0
FFFFFFFFFFFFFFFFFFC0
FFFFFFFFFFFFFFFFFFC0
FFFFFFFFFFFFFFFFFFC0
FFFFFFFFFFFFFFFFFFC0
FFFFFFFFFFFFFFFFFFC0
FFFFFFFFFFFFFFFFFFC0
FFFFFFFFFFFFFFFFFFC0
FFFFFFFFFFFFFFFFFFC0
FFFFFFFFFFFFFFFFFFC0
FFFFFFFFFFFFFFFFFFC0
00000000000000000000
00000000000000000000
00000000000000000000
00000000000000000000
00000000000000000000
00000000000000000000
00000000000000000000
00000000000000000000
00000000000000000000
00000000000000000000
00000000000000000000
00000000000000000000
00000000000000000000
00000000000000000000
00000000000000000000
00000000000000000000
00000000000000000000
00000000000000000000
00000000000000000000
00000000000000000000
00000000000000000000
00000000000000000000
00000000000000000000
00000000000000000000
FFFFFFFFFFFFFFFFFFC0
FFFFFFFFFFFFFFFFFFC0
FFFFFFFFFFFFFFFFFFC0
FFFFFFFFFFFFFFFFFFC0
FFFFFFFFFFFFFFFFFFC0
FFFFFFFFFFFFFFFFFFC0
FFFFFFFFFFFFFFFFFFC0
FFFFFFFFFFFFFFFFFFC0
FFFFFFFFFFFFFFFFFFC0
FFFFFFFFFFFFFFFFFFC0
FFFFFFFFFFFFFFFFFFC0
ENDCHAR
STARTCHAR greater
ENCODING 62
SWIDTH 690 0
DWIDTH 90 0
BBX 74 71 8 13
BITMAP
80000000000000000000
E0000000000000000000
F8000000000000000000
FE000000000000000000
FFC00000000000000000
FFF00000000000000000
FFFE0000000000000000
FFFF8000000000000000
FFFFE000000000000000
FFFFFC00000000000000
FFFFFF00000000000000
FFFFFFE0000000000000
FFFFFFF8000000000000
1FFFFFFE000000000000
03FFFFFFC00000000000
00FFFFFFF00000000000
001FFFFFFE0000000000
0007FFFFFF8000000000
0000FFFFFFE000000000
00003FFFFFFC00000000
000007FFFFFF00000000
000000FFFFFFE0000000
0000003FFFFFF8000000
00000007FFFFFE000000
00000001FFFFFFC00000
000000003FFFFFF00000
000000000FFFFFFC0000
0000000001FFFFFF8000
00000000003FFFFFE000
00000000000FFFFFFC00
000000000001FFFFFE00
0000000000007FFFFF00
0000000000000FFFFF80
00000000000003FFFFC0
000000000000007FFFC0
000000000000000FFFC0
000000000000003FFFC0
00000000000001FFFFC0
00000000000007FFFFC0
0000000000003FFFFF80
000000000000FFFFFF00
000000000007FFFFFC00
00000000001FFFFFF000
0000000000FFFFFFC000
0000000003FFFFFE0000
000000001FFFFFF80000
00000000FFFFFFC00000
00000003FFFFFF000000
0000001FFFFFFC000000
0000007FFFFFE0000000
000003FFFFFF80000000
00000FFFFFFE00000000
00007FFFFFF000000000
0001FFFFFFC000000000
000FFFFFFE0000000000
003FFFFFF80000000000
01FFFFFFE00000000000
0FFFFFFF000000000000
3FFFFFFC000000000000
FFFFFFF0000000000000
FFFFFF80000000000000
FFFFFE00000000000000
FFFFF000000000000000
FFFFC000000000000000
FFFF0000000000000000
FFF80000000000000000
FFE00000000000000000
FF000000000000000000
FC000000000000000000
F0000000000000000000
80000000000000000000
ENDCHAR
STARTCHAR question
ENCODING 63
SWIDTH 776 0
DWIDTH 102 0
BBX 92 95 6 0
BITMAP
FFFFFFFFFFFFFFFFF8000000
FFFFFFFFFFFFFFFFFFC00000
FFFFFFFFFFFFFFFFFFF00000
FFFFFFFFFFFFFFFFFFFE0000
FFFFFFFFFFFFFFFFFFFF0000
FFFFFFFFFFFFFFFFFFFFC000
FFFFFFFFFFFFFFFFFFFFE000
FFFFFFFFFFFFFFFFFFFFF000
FFFFFFFFFFFFFFFFFFFFF800
FFFFFFFFFFFFFFFFFFFFFC00
FFFFFFFFFFFFFFFFFFFFFE00
FFFFFFFFFFFFFFFFFFFFFF00
FFFFFFFFFFFFFFFFFFFFFF00
FFFFFFFFFFFFFFFFFFFFFF80
FFFFFFFFFFFFFFFFFFFFFF80
FFFFFFFFFFFFFFFFFFFFFFC0
FFFFFFFFFFFFFFFFFFFFFFC0
00000000000000000FFFFFC0
000000000000000003FFFFE0
000000000000000001FFFFE0
000000000000000000FFFFE0
0000000000000000007FFFE0
0000000000000000003FFFE0
0000000000000000003FFFF0
0000000000000000003FFFF0
0000000000000000001FFFF0
0000000000000000001FFFF0
0000000000000000001FFFF0
0000000000000000001FFFF0
0000000000000000001FFFF0
0000000000000000003FFFE0
0000000000000000003FFFE0
0000000000000000003FFFE0
0000000000000000007FFFE0
0000000000000000007FFFE0
000000000000000000FFFFC0
000000000000000001FFFFC0
000000000000000007FFFFC0
00000000000000001FFFFF80
000000FFFFFFFFFFFFFFFF80
00000FFFFFFFFFFFFFFFFF00
00003FFFFFFFFFFFFFFFFE00
0000FFFFFFFFFFFFFFFFFE00
0001FFFFFFFFFFFFFFFFFC00
0003FFFFFFFFFFFFFFFFF800
0007FFFFFFFFFFFFFFFFF000
000FFFFFFFFFFFFFFFFFE000
001FFFFFFFFFFFFFFFFFC000
001FFFFFFFFFFFFFFFFF0000
003FFFFFFFFFFFFFFFFC0000
003FFFFFFFFFFFFFFFF00000
003FFFFFFFFFFFFFFFC00000
007FFFFFFFFFFFFFF8000000
007FFFE00000000000000000
007FFFC00000000000000000
007FFF800000000000000000
007FFF800000000000000000
007FFF000000000000000000
007FFF000000000000000000
007FFF000000000000000000
007FFF000000000000000000
007FFF000000000000000000
007FFF000000000000000000
000000000000000000000000
000000000000000000000000
000000000000000000000000
000000000000000000000000
000000000000000000000000
000000000000000000000000
000000000000000000000000
000000000000000000000000
000000000000000000000000
000000000000000000000000
000000000000000000000000
000000000000000000000000
000000000000000000000000
000000000000000000000000
0003F0000000000000000000
000FFC000000000000000000
003FFE000000000000000000
003FFF000000000000000000
007FFF800000000000000000
00FFFF800000000000000000
00FFFF800000000000000000
00FFFFC00000000000000000
00FFFFC00000000000000000
00FFFFC00000000000000000
00FFFFC00000000000000000
00FFFF800000000000000000
00FFFF800000000000000000
007FFF800000000000000000
003FFF000000000000000000
003FFE000000000000000000
000FFC000000000000000000
0003F0000000000000000000
ENDCHAR
STARTCHAR at
ENCODING 64
SWIDTH 833 0
DWIDTH 109 0
BBX 96 95 5 0
BITMAP
00000000007FFFFFFFFFFFFF
000000000FFFFFFFFFFFFFFF
000000007FFFFFFFFFFFFFFF
00000003FFFFFFFFFFFFFFFF
0000000FFFFFFFFFFFFFFFFF
0000003FFFFFFFFFFFFFFFFF
000000FFFFFFFFFFFFFFFFFF
000003FFFFFFFFFFFFFFFFFF
000007FFFFFFFFFFFFFFFFFF
00001FFFFFFFFFFFFFFFFFFF
00003FFFFFFFFFFFFFFFFFFF
00007FFFFFFFFFFFFFFFFFFF
0000FFFFFFC0000000001FFF
0001FFFFF800000000001FFF
0003FFFFC000000000001FFF
0007FFFF0000000000001FFF
000FFFFC0000000000001FFF
001FFFF00000000000001FFF
003FFFC00000000000001FFF
003FFF800000000000001FFF
007FFF000000000000001FFF
00FFFE000000000000001FFF
00FFFC000000000000001FFF
01FFF8000000000000001FFF
03FFF0000000000000001FFF
03FFE0000000000000001FFF
07FFE000003FFFFFFF001FFF
07FFC00001FFFFFFFF001FFF
0FFF800007FFFFFFFF001FFF
0FFF80000FFFFFFFFF001FFF
0FFF00003FFFFFFFFF001FFF
1FFF00007FFFFFFFFF001FFF
1FFF0000FFFFFFFFFF001FFF
1FFE0000FFFFFFFFFF001FFF
3FFE0001FFFFFFFFFF001FFF
3FFE0003FFFC0007FF001FFF
3FFC0003FFF00007FF001FFF
3FFC0007FFC00007FF001FFF
7FFC0007FF800007FF001FFF
7FFC0007FF800007FF001FFF
7FF8000FFF000007FF001FFF
7FF8000FFF000007FF001FFF
7FF8000FFE000007FF001FFF
7FF8000FFE000007FF001FFF
7FF8000FFE000007FF001FFF
7FF8000FFE000007FF001FFF
7FF8000FFE000007FF001FFF
FFF8000FFE000007FF001FFF
FFF8000FFE000007FF001FFF
FFF8000FFE000007FF001FFF
7FF8000FFE000007FF001FFF
7FF8000FFE000007FF001FFF
7FF8000FFF000007FF001FFF
7FF8000FFF000007FF001FFF
7FF80007FF800007FF001FFF
7FFC0007FFC00007FF001FFF
7FFC0007FFE00007FF001FFF
7FFC0003FFF00007FF001FFF
7FFC0003FFFC0007FF001FFF
3FFE0001FFFFFFFFFFFFFFFF
3FFE0001FFFFFFFFFFFFFFFF
3FFE0000FFFFFFFFFFFFFFFF
3FFF00007FFFFFFFFFFFFFFF
1FFF00007FFFFFFFFFFFFFFF
1FFF00003FFFFFFFFFFFFFFF
1FFF80000FFFFFFFFFFFFFFF
0FFFC00007FFFFFFFFFFFFFF
0FFFC00001FFFFFFFFFFFFFF
0FFFE000003FFFFFFFFFFFFF
07FFE0000000000000000000
07FFF0000000000000000000
03FFF8000000000000000000
03FFFC000000000000000000
01FFFE000000000000000000
00FFFF000000000000000000
00FFFF800000000000000000
007FFFC00000000000000000
003FFFF00000000000000000
001FFFFC0000000000000000
001FFFFF0000000000000000
000FFFFFC000000000000000
0007FFFFF800000000000000
0003FFFFFFC0000000000000
0001FFFFFFFFFFFFFFFFFFFF
00007FFFFFFFFFFFFFFFFFFF
00003FFFFFFFFFFFFFFFFFFF
00001FFFFFFFFFFFFFFFFFFF
000007FFFFFFFFFFFFFFFFFF
000003FFFFFFFFFFFFFFFFFF
000000FFFFFFFFFFFFFFFFFF
0000003FFFFFFFFFFFFFFFFF
00000007FFFFFFFFFFFFFFFF
00000001FFFFFFFFFFFFFFFF
000000001FFFFFFFFFFFFFFF
00000000007FFFFFFFFFFFFF
ENDCHAR
STARTCHAR A
ENCODING 65
SWIDTH 989 0
DWIDTH 130 0
BBX 126 97 2 0
BITMAP
00000000000000020000000000000000
000000000000001FE000000000000000
000000000000007FF000000000000000
00000000000000FFF800000000000000
00000000000001FFFC00000000000000
00000000000001FFFC00000000000000
00000000000003FFFE00000000000000
00000000000003FFFF00000000000000
00000000000007FFFF00000000000000
0000000000000FFFFF80000000000000
0000000000000FFFFF80000000000000
0000000000001FFFFFC0000000000000
0000000000001FFFFFE0000000000000
0000000000003FFFFFE0000000000000
0000000000007FFFFFF0000000000000
0000000000007FFFFFF8000000000000
000000000000FFFFFFF8000000000000
000000000000FFFFFFFC000000000000
000000000001FFFFFFFC000000000000
000000000003FFFFFFFE000000000000
000000000003FFFFFFFF000000000000
000000000007FFFFFFFF000000000000
000000000007FFFFFFFF800000000000
00000000000FFFFFFFFF800000000000
00000000001FFFFFFFFFC00000000000
00000000001FFFF9FFFFE00000000000
00000000003FFFF9FFFFE00000000000
00000000003FFFF0FFFFF00000000000
00000000007FFFF0FFFFF00000000000
0000000000FFFFE07FFFF80000000000
0000000000FFFFC03FFFFC0000000000
0000000001FFFFC03FFFFC0000000000
0000000001FFFF801FFFFE0000000000
0000000003FFFF801FFFFE0000000000
0000000007FFFF000FFFFF0000000000
0000000007FFFF0007FFFF8000000000
000000000FFFFE0007FFFF8000000000
000000000FFFFC0003FFFFC000000000
000000001FFFFC0003FFFFC000000000
000000003FFFF80001FFFFE000000000
000000003FFFF80000FFFFF000000000
000000007FFFF00000FFFFF000000000
000000007FFFE000007FFFF800000000
00000000FFFFE000007FFFF800000000
00000001FFFFC000003FFFFC00000000
00000001FFFFC000001FFFFE00000000
00000003FFFF8000001FFFFE00000000
00000003FFFF0000000FFFFF00000000
00000007FFFF0000000FFFFF00000000
0000000FFFFE00000007FFFF80000000
0000000FFFFE00000003FFFFC0000000
0000001FFFFC00000003FFFFC0000000
0000001FFFF800000001FFFFE0000000
0000003FFFF800000001FFFFE0000000
0000007FFFF000000000FFFFF0000000
0000007FFFF0000000007FFFF8000000
000000FFFFE0000000007FFFF8000000
000000FFFFC0000000003FFFFC000000
000001FFFFC0000000003FFFFC000000
000003FFFF80000000001FFFFE000000
000003FFFF8003FFFFFFFFFFFF000000
000007FFFF0007FFFFFFFFFFFF000000
000007FFFE0007FFFFFFFFFFFF800000
00000FFFFE000FFFFFFFFFFFFF800000
00001FFFFC001FFFFFFFFFFFFFC00000
00001FFFFC001FFFFFFFFFFFFFE00000
00003FFFF8003FFFFFFFFFFFFFE00000
00003FFFF0003FFFFFFFFFFFFFF00000
00007FFFF0007FFFFFFFFFFFFFF00000
0000FFFFE000FFFFFFFFFFFFFFF80000
0000FFFFE000FFFFFFFFFFFFFFFC0000
0001FFFFC001FFFFFFFFFFFFFFFC0000
0001FFFF8003FFFFFFFFFFFFFFFE0000
0003FFFF800000000000000FFFFE0000
0007FFFF000000000000000FFFFF0000
0007FFFF0000000000000007FFFF8000
000FFFFE0000000000000007FFFF8000
000FFFFC0000000000000003FFFFC000
001FFFFC0000000000000001FFFFC000
003FFFF80000000000000001FFFFE000
003FFFF80000000000000000FFFFF000
007FFFF00000000000000000FFFFF000
007FFFE000000000000000007FFFF800
00FFFFE000000000000000003FFFF800
01FFFFC000000000000000003FFFFC00
01FFFFC000000000000000001FFFFE00
03FFFF8000000000000000001FFFFE00
03FFFF8000000000000000000FFFFF00
07FFFF0000000000000000000FFFFF00
0FFFFE00000000000000000007FFFF80
0FFFFE00000000000000000003FFFFC0
1FFFFC00000000000000000003FFFFC0
1FFFFC00000000000000000001FFFFE0
3FFFF800000000000000000001FFFFE0
7FFFF000000000000000000000FFFFF0
7FFFF0000000000000000000007FFFF8
FFFFE0000000000000000000007FFFFC
ENDCHAR
STARTCHAR B
ENCODING 66
SWIDTH 891 0
DWIDTH 117 0
BBX 102 95 8 0
BITMAP
FFFFFFFFFFFFFFFFFFF8000000
FFFFFFFFFFFFFFFFFFFFC00000
FFFFFFFFFFFFFFFFFFFFF80000
FFFFFFFFFFFFFFFFFFFFFF0000
FFFFFFFFFFFFFFFFFFFFFFC000
FFFFFFFFFFFFFFFFFFFFFFE000
FFFFFFFFFFFFFFFFFFFFFFF800
FFFFFFFFFFFFFFFFFFFFFFFC00
FFFFFFFFFFFFFFFFFFFFFFFE00
FFFFFFFFFFFFFFFFFFFFFFFF00
FFFFFFFFFFFFFFFFFFFFFFFF00
FFFFFFFFFFFFFFFFFFFFFFFF80
FFFFFFFFFFFFFFFFFFFFFFFFC0
FFFFFFFFFFFFFFFFFFFFFFFFC0
FFFFFFFFFFFFFFFFFFFFFFFFE0
FFFFFFFFFFFFFFFFFFFFFFFFE0
FFFFFFFFFFFFFFFFFFFFFFFFE0
FFFF800000000000001FFFFFF0
FFFF8000000000000003FFFFF0
FFFF8000000000000000FFFFF0
FFFF80000000000000007FFFF0
FFFF80000000000000003FFFF8
FFFF80000000000000001FFFF8
FFFF80000000000000001FFFF8
FFFF80000000000000001FFFF8
FFFF80000000000000000FFFF8
FFFF80000000000000000FFFF8
FFFF80000000000000000FFFF8
FFFF80000000000000000FFFF8
FFFF80000000000000000FFFF0
FFFF80000000000000000FFFF0
FFFF80000000000000000FFFF0
FFFF80000000000000001FFFF0
FFFF80000000000000001FFFE0
FFFF80000000000000001FFFE0
FFFF80000000000000003FFFE0
FFFF80000000000000007FFFC0
FFFF8000000000000000FFFFC0
FFFF8000000000000001FFFF80
FFFF800000000000001FFFFF00
FFFF8007FFFFFFFFFFFFFFFE00
FFFF8007FFFFFFFFFFFFFFFC00
FFFF8007FFFFFFFFFFFFFFF800
FFFF8007FFFFFFFFFFFFFFE000
FFFF8007FFFFFFFFFFFFFF8000
FFFF8007FFFFFFFFFFFFFF8000
FFFF8007FFFFFFFFFFFFFFE000
FFFF8007FFFFFFFFFFFFFFF800
FFFF8007FFFFFFFFFFFFFFFC00
FFFF8007FFFFFFFFFFFFFFFE00
FFFF8007FFFFFFFFFFFFFFFF00
FFFF8007FFFFFFFFFFFFFFFF80
FFFF8007FFFFFFFFFFFFFFFFC0
FFFF8007FFFFFFFFFFFFFFFFE0
FFFF800000000000000FFFFFE0
FFFF8000000000000001FFFFF0
FFFF80000000000000007FFFF8
FFFF80000000000000003FFFF8
FFFF80000000000000001FFFF8
FFFF80000000000000000FFFFC
FFFF80000000000000000FFFFC
FFFF800000000000000007FFFC
FFFF800000000000000007FFFC
FFFF800000000000000007FFFC
FFFF800000000000000007FFFC
FFFF800000000000000003FFFC
FFFF800000000000000003FFFC
FFFF800000000000000007FFFC
FFFF800000000000000007FFFC
FFFF800000000000000007FFFC
FFFF800000000000000007FFFC
FFFF80000000000000000FFFFC
FFFF80000000000000000FFFFC
FFFF80000000000000001FFFFC
FFFF80000000000000003FFFF8
FFFF8000000000000000FFFFF8
FFFF8000000000000003FFFFF8
FFFF800000000000003FFFFFF8
FFFFFFFFFFFFFFFFFFFFFFFFF0
FFFFFFFFFFFFFFFFFFFFFFFFF0
FFFFFFFFFFFFFFFFFFFFFFFFE0
FFFFFFFFFFFFFFFFFFFFFFFFE0
FFFFFFFFFFFFFFFFFFFFFFFFC0
FFFFFFFFFFFFFFFFFFFFFFFF80
FFFFFFFFFFFFFFFFFFFFFFFF80
FFFFFFFFFFFFFFFFFFFFFFFF00
FFFFFFFFFFFFFFFFFFFFFFFE00
FFFFFFFFFFFFFFFFFFFFFFFC00
FFFFFFFFFFFFFFFFFFFFFFF800
FFFFFFFFFFFFFFFFFFFFFFE000
FFFFFFFFFFFFFFFFFFFFFFC000
FFFFFFFFFFFFFFFFFFFFFF0000
FFFFFFFFFFFFFFFFFFFFFC0000
FFFFFFFFFFFFFFFFFFFFE00000
FFFFFFFFFFFFFFFFFFFC000000
ENDCHAR
STARTCHAR C
ENCODING 67
SWIDTH 829 0
DWIDTH 109 0
BBX 98 95 5 0
BITMAP
0000000001FFFFFFFFFFFFFFC0
000000003FFFFFFFFFFFFFFFC0
00000001FFFFFFFFFFFFFFFFC0
0000000FFFFFFFFFFFFFFFFFC0
0000003FFFFFFFFFFFFFFFFFC0
000000FFFFFFFFFFFFFFFFFFC0
000003FFFFFFFFFFFFFFFFFFC0
00000FFFFFFFFFFFFFFFFFFFC0
00001FFFFFFFFFFFFFFFFFFFC0
00007FFFFFFFFFFFFFFFFFFFC0
0000FFFFFFFFFFFFFFFFFFFFC0
0001FFFFFFFFFFFFFFFFFFFFC0
0003FFFFFFFFFFFFFFFFFFFFC0
0007FFFFFFFFFFFFFFFFFFFFC0
000FFFFFFFFFFFFFFFFFFFFFC0
001FFFFFFFFFFFFFFFFFFFFFC0
003FFFFFFFFFFFFFFFFFFFFFC0
007FFFFFFE0000000000000000
007FFFFFF00000000000000000
00FFFFFFC00000000000000000
01FFFFFF000000000000000000
01FFFFFC000000000000000000
03FFFFF8000000000000000000
03FFFFE0000000000000000000
07FFFFC0000000000000000000
07FFFF80000000000000000000
0FFFFF00000000000000000000
0FFFFF00000000000000000000
0FFFFE00000000000000000000
1FFFFC00000000000000000000
1FFFF800000000000000000000
1FFFF800000000000000000000
3FFFF000000000000000000000
3FFFF000000000000000000000
3FFFF000000000000000000000
3FFFE000000000000000000000
7FFFE000000000000000000000
7FFFC000000000000000000000
7FFFC000000000000000000000
7FFFC000000000000000000000
7FFFC000000000000000000000
7FFFC000000000000000000000
7FFF8000000000000000000000
7FFF8000000000000000000000
7FFF8000000000000000000000
FFFF8000000000000000000000
FFFF8000000000000000000000
FFFF8000000000000000000000
7FFF8000000000000000000000
7FFF8000000000000000000000
7FFF8000000000000000000000
7FFF8000000000000000000000
7FFF8000000000000000000000
7FFFC000000000000000000000
7FFFC000000000000000000000
7FFFC000000000000000000000
7FFFC000000000000000000000
3FFFE000000000000000000000
3FFFE000000000000000000000
3FFFE000000000000000000000
3FFFF000000000000000000000
1FFFF000000000000000000000
1FFFF800000000000000000000
1FFFF800000000000000000000
1FFFFC00000000000000000000
0FFFFC00000000000000000000
0FFFFE00000000000000000000
07FFFF00000000000000000000
07FFFF80000000000000000000
03FFFF80000000000000000000
03FFFFC0000000000000000000
01FFFFF0000000000000000000
01FFFFF8000000000000000000
00FFFFFC000000000000000000
00FFFFFF000000000000000000
007FFFFFC00000000000000000
003FFFFFF00000000000000000
001FFFFFFE0000000000000000
001FFFFFFFFFFFFFFFFFFFFFC0
000FFFFFFFFFFFFFFFFFFFFFC0
0007FFFFFFFFFFFFFFFFFFFFC0
0003FFFFFFFFFFFFFFFFFFFFC0
0001FFFFFFFFFFFFFFFFFFFFC0
0000FFFFFFFFFFFFFFFFFFFFC0
00007FFFFFFFFFFFFFFFFFFFC0
00001FFFFFFFFFFFFFFFFFFFC0
00000FFFFFFFFFFFFFFFFFFFC0
000007FFFFFFFFFFFFFFFFFFC0
000001FFFFFFFFFFFFFFFFFFC0
0000007FFFFFFFFFFFFFFFFFC0
0000001FFFFFFFFFFFFFFFFFC0
00000007FFFFFFFFFFFFFFFFC0
00000001FFFFFFFFFFFFFFFFC0
000000001FFFFFFFFFFFFFFFC0
0000000001FFFFFFFFFFFFFFC0
ENDCHAR
STARTCHAR D
ENCODING 68
SWIDTH 879 0
DWIDTH 115 0
BBX 102 95 8 0
BITMAP
FFFFFFFFFFFFFFFE0000000000
FFFFFFFFFFFFFFFFF000000000
FFFFFFFFFFFFFFFFFF00000000
FFFFFFFFFFFFFFFFFFC0000000
FFFFFFFFFFFFFFFFFFF8000000
FFFFFFFFFFFFFFFFFFFE000000
FFFFFFFFFFFFFFFFFFFF000000
FFFFFFFFFFFFFFFFFFFFC00000
FFFFFFFFFFFFFFFFFFFFE00000
FFFFFFFFFFFFFFFFFFFFF80000
FFFFFFFFFFFFFFFFFFFFFC0000
FFFFFFFFFFFFFFFFFFFFFE0000
FFFFFFFFFFFFFFFFFFFFFF0000
FFFFFFFFFFFFFFFFFFFFFF8000
FFFFFFFFFFFFFFFFFFFFFFC000
FFFFFFFFFFFFFFFFFFFFFFE000
FFFFFFFFFFFFFFFFFFFFFFF000
FFFF800000000001FFFFFFF800
FFFF8000000000003FFFFFF800
FFFF80000000000007FFFFFC00
FFFF80000000000003FFFFFE00
FFFF80000000000000FFFFFE00
FFFF800000000000003FFFFF00
FFFF800000000000001FFFFF00
FFFF800000000000000FFFFF80
FFFF8000000000000007FFFF80
FFFF8000000000000003FFFFC0
FFFF8000000000000001FFFFC0
FFFF8000000000000001FFFFE0
FFFF8000000000000000FFFFE0
FFFF80000000000000007FFFE0
FFFF80000000000000007FFFF0
FFFF80000000000000003FFFF0
FFFF80000000000000003FFFF0
FFFF80000000000000001FFFF0
FFFF80000000000000001FFFF8
FFFF80000000000000001FFFF8
FFFF80000000000000000FFFF8
FFFF80000000000000000FFFF8
FFFF80000000000000000FFFF8
FFFF80000000000000000FFFF8
FFFF800000000000000007FFFC
FFFF800000000000000007FFFC
FFFF800000000000000007FFFC
FFFF800000000000000007FFFC
FFFF800000000000000007FFFC
FFFF800000000000000007FFFC
FFFF800000000000000007FFFC
FFFF800000000000000007FFFC
FFFF800000000000000007FFFC
FFFF800000000000000007FFFC
FFFF800000000000000007FFFC
FFFF800000000000000007FFF8
FFFF800000000000000007FFF8
FFFF80000000000000000FFFF8
FFFF80000000000000000FFFF8
FFFF80000000000000000FFFF8
FFFF80000000000000000FFFF8
FFFF80000000000000001FFFF0
FFFF80000000000000001FFFF0
FFFF80000000000000001FFFF0
FFFF80000000000000003FFFF0
FFFF80000000000000003FFFE0
FFFF80000000000000007FFFE0
FFFF80000000000000007FFFE0
FFFF8000000000000000FFFFC0
FFFF8000000000000001FFFFC0
FFFF8000000000000003FFFFC0
FFFF8000000000000003FFFF80
FFFF8000000000000007FFFF80
FFFF800000000000000FFFFF00
FFFF800000000000001FFFFF00
FFFF800000000000007FFFFE00
FFFF80000000000000FFFFFC00
FFFF80000000000003FFFFFC00
FFFF8000000000000FFFFFF800
FFFF8000000000003FFFFFF000
FFFF800000000001FFFFFFF000
FFFFFFFFFFFFFFFFFFFFFFE000
FFFFFFFFFFFFFFFFFFFFFFC000
FFFFFFFFFFFFFFFFFFFFFF8000
FFFFFFFFFFFFFFFFFFFFFF0000
FFFFFFFFFFFFFFFFFFFFFE0000
FFFFFFFFFFFFFFFFFFFFFC0000
FFFFFFFFFFFFFFFFFFFFF80000
FFFFFFFFFFFFFFFFFFFFF00000
FFFFFFFFFFFFFFFFFFFFC00000
FFFFFFFFFFFFFFFFFFFF800000
FFFFFFFFFFFFFFFFFFFE000000
FFFFFFFFFFFFFFFFFFFC000000
FFFFFFFFFFFFFFFFFFF0000000
FFFFFFFFFFFFFFFFFFC0000000
FFFFFFFFFFFFFFFFFE00000000
FFFFFFFFFFFFFFFFF000000000
FFFFFFFFFFFFFFFC0000000000
ENDCHAR
STARTCHAR E
ENCODING 69
SWIDTH 759 0
DWIDTH 99 0
BBX 85 95 8 0
BITMAP
FFFFFFFFFFFFFFFFFFFFF8
FFFFFFFFFFFFFFFFFFFFF8
FFFFFFFFFFFFFFFFFFFFF8
FFFFFFFFFFFFFFFFFFFFF8
FFFFFFFFFFFFFFFFFFFFF8
FFFFFFFFFFFFFFFFFFFFF8
FFFFFFFFFFFFFFFFFFFFF8
FFFFFFFFFFFFFFFFFFFFF8
FFFFFFFFFFFFFFFFFFFFF8
FFFFFFFFFFFFFFFFFFFFF8
FFFFFFFFFFFFFFFFFFFFF8
FFFFFFFFFFFFFFFFFFFFF8
FFFFFFFFFFFFFFFFFFFFF8
FFFFFFFFFFFFFFFFFFFFF8
FFFFFFFFFFFFFFFFFFFFF8
FFFFFFFFFFFFFFFFFFFFF8
FFFFFFFFFFFFFFFFFFFFF8
FFFF800000000000000000
FFFF800000000000000000
FFFF800000000000000000
FFFF800000000000000000
FFFF800000000000000000
FFFF800000000000000000
FFFF800000000000000000
FFFF800000000000000000
FFFF800000000000000000
FFFF800000000000000000
FFFF800000000000000000
FFFF800000000000000000
FFFF800000000000000000
FFFF800000000000000000
FFFF800000000000000000
FFFF800000000000000000
FFFF800000000000000000
FFFF800000000000000000
FFFF800000000000000000
FFFF800000000000000000
FFFF800000000000000000
FFFF800000000000000000
FFFF800000000000000000
FFFF8007FFFFFFFFFFFFC0
FFFF8007FFFFFFFFFFFFC0
FFFF8007FFFFFFFFFFFFC0
FFFF8007FFFFFFFFFFFFC0
FFFF8007FFFFFFFFFFFFC0
FFFF8007FFFFFFFFFFFFC0
FFFF8007FFFFFFFFFFFFC0
FFFF8007FFFFFFFFFFFFC0
FFFF8007FFFFFFFFFFFFC0
FFFF8007FFFFFFFFFFFFC0
FFFF8007FFFFFFFFFFFFC0
FFFF8007FFFFFFFFFFFFC0
FFFF8007FFFFFFFFFFFFC0
FFFF8007FFFFFFFFFFFFC0
FFFF800000000000000000
FFFF800000000000000000
FFFF800000000000000000
FFFF800000000000000000
FFFF800000000000000000
FFFF800000000000000000
FFFF800000000000000000
FFFF800000000000000000
FFFF800000000000000000
FFFF800000000000000000
FFFF800000000000000000
FFFF800000000000000000
FFFF800000000000000000
FFFF800000000000000000
FFFF800000000000000000
FFFF800000000000000000
FFFF800000000000000000
FFFF800000000000000000
FFFF800000000000000000
FFFF800000000000000000
FFFF800000000000000000
FFFF800000000000000000
FFFF800000000000000000
FFFF800000000000000000
FFFFFFFFFFFFFFFFFFFFF8
FFFFFFFFFFFFFFFFFFFFF8
FFFFFFFFFFFFFFFFFFFFF8
FFFFFFFFFFFFFFFFFFFFF8
FFFFFFFFFFFFFFFFFFFFF8
FFFFFFFFFFFFFFFFFFFFF8
FFFFFFFFFFFFFFFFFFFFF8
FFFFFFFFFFFFFFFFFFFFF8
FFFFFFFFFFFFFFFFFFFFF8
FFFFFFFFFFFFFFFFFFFFF8
FFFFFFFFFFFFFFFFFFFFF8
FFFFFFFFFFFFFFFFFFFFF8
FFFFFFFFFFFFFFFFFFFFF8
FFFFFFFFFFFFFFFFFFFFF8
FFFFFFFFFFFFFFFFFFFFF8
FFFFFFFFFFFFFFFFFFFFF8
FFFFFFFFFFFFFFFFFFFFF8
ENDCHAR
STARTCHAR F
ENCODING 70
SWIDTH 705 0
DWIDTH 92 0
BBX 81 95 8 0
BITMAP
FFFFFFFFFFFFFFFFFFFF80
FFFFFFFFFFFFFFFFFFFF80
FFFFFFFFFFFFFFFFFFFF80
FFFFFFFFFFFFFFFFFFFF80
FFFFFFFFFFFFFFFFFFFF80
FFFFFFFFFFFFFFFFFFFF80
FFFFFFFFFFFFFFFFFFFF80
FFFFFFFFFFFFFFFFFFFF80
FFFFFFFFFFFFFFFFFFFF80
FFFFFFFFFFFFFFFFFFFF80
FFFFFFFFFFFFFFFFFFFF80
FFFFFFFFFFFFFFFFFFFF80
FFFFFFFFFFFFFFFFFFFF80
FFFFFFFFFFFFFFFFFFFF80
FFFFFFFFFFFFFFFFFFFF80
FFFFFFFFFFFFFFFFFFFF80
FFFFFFFFFFFFFFFFFFFF80
FFFF800000000000000000
FFFF800000000000000000
FFFF800000000000000000
FFFF800000000000000000
FFFF800000000000000000
FFFF800000000000000000
FFFF800000000000000000
FFFF800000000000000000
FFFF800000000000000000
FFFF800000000000000000
FFFF800000000000000000
FFFF800000000000000000
FFFF800000000000000000
FFFF800000000000000000
FFFF800000000000000000
FFFF800000000000000000
FFFF800000000000000000
FFFF800000000000000000
FFFF800000000000000000
FFFF800000000000000000
FFFF800000000000000000
FFFF800000000000000000
FFFF800000000000000000
FFFF800000000000000000
FFFF8007FFFFFFFFFFF800
FFFF8007FFFFFFFFFFF800
FFFF8007FFFFFFFFFFF800
FFFF8007FFFFFFFFFFF800
FFFF8007FFFFFFFFFFF800
FFFF8007FFFFFFFFFFF800
FFFF8007FFFFFFFFFFF800
FFFF8007FFFFFFFFFFF800
FFFF8007FFFFFFFFFFF800
FFFF8007FFFFFFFFFFF800
FFFF8007FFFFFFFFFFF800
FFFF8007FFFFFFFFFFF800
FFFF8007FFFFFFFFFFF800
FFFF8007FFFFFFFFFFF800
FFFF8007FFFFFFFFFFF800
FFFF800000000000000000
FFFF800000000000000000
FFFF800000000000000000
FFFF800000000000000000
FFFF800000000000000000
FFFF800000000000000000
FFFF800000000000000000
FFFF800000000000000000
FFFF800000000000000000
FFFF800000000000000000
FFFF800000000000000000
FFFF800000000000000000
FFFF800000000000000000
FFFF800000000000000000
FFFF800000000000000000
FFFF800000000000000000
FFFF800000000000000000
FFFF800000000000000000
FFFF800000000000000000
FFFF800000000000000000
FFFF800000000000000000
FFFF800000000000000000
FFFF800000000000000000
FFFF800000000000000000
FFFF800000000000000000
FFFF800000000000000000
FFFF800000000000000000
FFFF800000000000000000
FFFF800000000000000000
FFFF800000000000000000
FFFF800000000000000000
FFFF800000000000000000
FFFF800000000000000000
FFFF800000000000000000
FFFF800000000000000000
FFFF800000000000000000
FFFF800000000000000000
FFFF800000000000000000
FFFF800000000000000000
ENDCHAR
STARTCHAR G
ENCODING 71
SWIDTH 888 0
DWIDTH 116 0
BBX 104 95 5 0
BITMAP
0000000001FFFFFFFFFFFFFFC0
000000003FFFFFFFFFFFFFFFC0
00000001FFFFFFFFFFFFFFFFC0
0000000FFFFFFFFFFFFFFFFFC0
0000003FFFFFFFFFFFFFFFFFC0
000000FFFFFFFFFFFFFFFFFFC0
000003FFFFFFFFFFFFFFFFFFC0
00000FFFFFFFFFFFFFFFFFFFC0
00001FFFFFFFFFFFFFFFFFFFC0
00007FFFFFFFFFFFFFFFFFFFC0
0000FFFFFFFFFFFFFFFFFFFFC0
0001FFFFFFFFFFFFFFFFFFFFC0
0003FFFFFFFFFFFFFFFFFFFFC0
0007FFFFFFFFFFFFFFFFFFFFC0
000FFFFFFFFFFFFFFFFFFFFFC0
001FFFFFFFFFFFFFFFFFFFFFC0
003FFFFFFFFFFFFFFFFFFFFFC0
007FFFFFFE0000000000000000
007FFFFFF00000000000000000
00FFFFFFC00000000000000000
01FFFFFF000000000000000000
01FFFFFC000000000000000000
03FFFFF8000000000000000000
03FFFFE0000000000000000000
07FFFFC0000000000000000000
07FFFF80000000000000000000
0FFFFF00000000000000000000
0FFFFF00000000000000000000
0FFFFE00000000000000000000
1FFFFC00000000000000000000
1FFFF800000000000000000000
1FFFF800000000000000000000
3FFFF000000000000000000000
3FFFF000000000000000000000
3FFFF000000000000000000000
3FFFE000000000000000000000
7FFFE000000000000000000000
7FFFC000000000000000000000
7FFFC000000000000000000000
7FFFC000000000000000000000
7FFFC0000007FFFFFFFFFFFFFF
7FFFC0000007FFFFFFFFFFFFFF
7FFF80000007FFFFFFFFFFFFFF
7FFF80000007FFFFFFFFFFFFFF
7FFF80000007FFFFFFFFFFFFFF
FFFF80000007FFFFFFFFFFFFFF
FFFF80000007FFFFFFFFFFFFFF
FFFF80000007FFFFFFFFFFFFFF
7FFF80000007FFFFFFFFFFFFFF
7FFF80000007FFFFFFFFFFFFFF
7FFF80000007FFFFFFFFFFFFFF
7FFF80000007FFFFFFFFFFFFFF
7FFF80000007FFFFFFFFFFFFFF
7FFFC0000007FFFFFFFFFFFFFF
7FFFC00000000000000001FFFF
7FFFC00000000000000001FFFF
7FFFC00000000000000001FFFF
3FFFE00000000000000001FFFF
3FFFE00000000000000001FFFF
3FFFE00000000000000001FFFF
3FFFF00000000000000001FFFF
1FFFF00000000000000001FFFF
1FFFF80000000000000001FFFF
1FFFF80000000000000001FFFF
1FFFFC0000000000000001FFFF
0FFFFC0000000000000001FFFF
0FFFFE0000000000000001FFFF
07FFFF0000000000000001FFFF
07FFFF8000000000000001FFFF
03FFFF8000000000000001FFFF
03FFFFC000000000000001FFFF
01FFFFF000000000000001FFFF
01FFFFF800000000000001FFFF
00FFFFFC00000000000001FFFF
00FFFFFF00000000000001FFFF
007FFFFFC0000000000001FFFF
003FFFFFF0000000000001FFFF
001FFFFFFE000000000001FFFF
001FFFFFFFFFFFFFFFFFFFFFFF
000FFFFFFFFFFFFFFFFFFFFFFF
0007FFFFFFFFFFFFFFFFFFFFFF
0003FFFFFFFFFFFFFFFFFFFFFF
0001FFFFFFFFFFFFFFFFFFFFFF
0000FFFFFFFFFFFFFFFFFFFFFF
00007FFFFFFFFFFFFFFFFFFFFF
00001FFFFFFFFFFFFFFFFFFFFF
00000FFFFFFFFFFFFFFFFFFFFF
000007FFFFFFFFFFFFFFFFFFFF
000001FFFFFFFFFFFFFFFFFFFF
0000007FFFFFFFFFFFFFFFFFFF
0000001FFFFFFFFFFFFFFFFFFF
00000007FFFFFFFFFFFFFFFFFF
00000001FFFFFFFFFFFFFFFFFF
000000001FFFFFFFFFFFFFFFFF
0000000001FFFFFFFFFFFFFFFF
ENDCHAR
STARTCHAR H
ENCODING 72
SWIDTH 838 0
DWIDTH 110 0
BBX 94 95 8 0
BITMAP
FFFF8000000000000007FFFC
FFFF8000000000000007FFFC
FFFF8000000000000007FFFC
FFFF8000000000000007FFFC
FFFF8000000000000007FFFC
FFFF8000000000000007FFFC
FFFF8000000000000007FFFC
FFFF8000000000000007FFFC
FFFF8000000000000007FFFC
FFFF8000000000000007FFFC
FFFF8000000000000007FFFC
FFFF8000000000000007FFFC
FFFF8000000000000007FFFC
FFFF8000000000000007FFFC
FFFF8000000000000007FFFC
FFFF8000000000000007FFFC
FFFF8000000000000007FFFC
FFFF8000000000000007FFFC
FFFF8000000000000007FFFC
FFFF8000000000000007FFFC
FFFF8000000000000007FFFC
FFFF8000000000000007FFFC
FFFF8000000000000007FFFC
FFFF8000000000000007FFFC
FFFF8000000000000007FFFC
FFFF8000000000000007FFFC
FFFF8000000000000007FFFC
FFFF8000000000000007FFFC
FFFF8000000000000007FFFC
FFFF8000000000000007FFFC
FFFF8000000000000007FFFC
FFFF8000000000000007FFFC
FFFF8000000000000007FFFC
FFFF8000000000000007FFFC
FFFF8000000000000007FFFC
FFFF8000000000000007FFFC
FFFF8000000000000007FFFC
FFFF8000000000000007FFFC
FFFF8000000000000007FFFC
FFFF8007FFFFFFFFFFFFFFFC
FFFF8007FFFFFFFFFFFFFFFC
FFFF8007FFFFFFFFFFFFFFFC
FFFF8007FFFFFFFFFFFFFFFC
FFFF8007FFFFFFFFFFFFFFFC
FFFF8007FFFFFFFFFFFFFFFC
FFFF8007FFFFFFFFFFFFFFFC
FFFF8007FFFFFFFFFFFFFFFC
FFFF8007FFFFFFFFFFFFFFFC
FFFF8007FFFFFFFFFFFFFFFC
FFFF8007FFFFFFFFFFFFFFFC
FFFF8007FFFFFFFFFFFFFFFC
FFFF8007FFFFFFFFFFFFFFFC
FFFF8007FFFFFFFFFFFFFFFC
FFFF8007FFFFFFFFFFFFFFFC
FFFF8000000000000007FFFC
FFFF8000000000000007FFFC
FFFF8000000000000007FFFC
FFFF8000000000000007FFFC
FFFF8000000000000007FFFC
FFFF8000000000000007FFFC
FFFF8000000000000007FFFC
FFFF8000000000000007FFFC
FFFF8000000000000007FFFC
FFFF8000000000000007FFFC
FFFF8000000000000007FFFC
FFFF8000000000000007FFFC
FFFF8000000000000007FFFC
FFFF8000000000000007FFFC
FFFF8000000000000007FFFC
FFFF8000000000000007FFFC
FFFF8000000000000007FFFC
FFFF8000000000000007FFFC
FFFF8000000000000007FFFC
FFFF8000000000000007FFFC
FFFF8000000000000007FFFC
FFFF8000000000000007FFFC
FFFF8000000000000007FFFC
FFFF8000000000000007FFFC
FFFF8000000000000007FFFC
FFFF8000000000000007FFFC
FFFF8000000000000007FFFC
FFFF8000000000000007FFFC
FFFF8000000000000007FFFC
FFFF8000000000000007FFFC
FFFF8000000000000007FFFC
FFFF8000000000000007FFFC
FFFF8000000000000007FFFC
FFFF8000000000000007FFFC
FFFF8000000000000007FFFC
FFFF8000000000000007FFFC
FFFF8000000000000007FFFC
FFFF8000000000000007FFFC
FFFF8000000000000007FFFC
FFFF8000000000000007FFFC
FFFF8000000000000007FFFC
ENDCHAR
STARTCHAR I
ENCODING 73
SWIDTH 267 0
DWIDTH 35 0
BBX 17 95 9 0
BITMAP
FFFF80
FFFF80
FFFF80
FFFF80
FFFF80
FFFF80
FFFF80
FFFF80
FFFF80
FFFF80
FFFF80
FFFF80
FFFF80
FFFF80
FFFF80
FFFF80
FFFF80
FFFF80
FFFF80
FFFF80
FFFF80
FFFF80
FFFF80
FFFF80
FFFF80
FFFF80
FFFF80
FFFF80
FFFF80
FFFF80
FFFF80
FFFF80
FFFF80
FFFF80
FFFF80
FFFF80
FFFF80
FFFF80
FFFF80
FFFF80
FFFF80
FFFF80
FFFF80
FFFF80
FFFF80
FFFF80
FFFF80
FFFF80
FFFF80
FFFF80
FFFF80
FFFF80
FFFF80
FFFF80
FFFF80
FFFF80
FFFF80
FFFF80
FFFF80
FFFF80
FFFF80
FFFF80
FFFF80
FFFF80
FFFF80
FFFF80
FFFF80
FFFF80
FFFF80
FFFF80
FFFF80
FFFF80
FFFF80
FFFF80
FFFF80
FFFF80
FFFF80
FFFF80
FFFF80
FFFF80
FFFF80
FFFF80
FFFF80
FFFF80
FFFF80
FFFF80
FFFF80
FFFF80
FFFF80
FFFF80
FFFF80
FFFF80
FFFF80
FFFF80
FFFF80
ENDCHAR
STARTCHAR J
ENCODING 74
SWIDTH 708 0
DWIDTH 93 0
BBX 83 95 3 0
BITMAP
00000000000000003FFFE0
00000000000000003FFFE0
00000000000000003FFFE0
00000000000000003FFFE0
00000000000000003FFFE0
00000000000000003FFFE0
00000000000000003FFFE0
00000000000000003FFFE0
00000000000000003FFFE0
00000000000000003FFFE0
00000000000000003FFFE0
00000000000000003FFFE0
00000000000000003FFFE0
00000000000000003FFFE0
00000000000000003FFFE0
00000000000000003FFFE0
00000000000000003FFFE0
00000000000000003FFFE0
00000000000000003FFFE0
00000000000000003FFFE0
00000000000000003FFFE0
00000000000000003FFFE0
00000000000000003FFFE0
00000000000000003FFFE0
00000000000000003FFFE0
00000000000000003FFFE0
00000000000000003FFFE0
00000000000000003FFFE0
00000000000000003FFFE0
00000000000000003FFFE0
00000000000000003FFFE0
00000000000000003FFFE0
00000000000000003FFFE0
00000000000000003FFFE0
00000000000000003FFFE0
00000000000000003FFFE0
00000000000000003FFFE0
00000000000000003FFFE0
00000000000000003FFFE0
00000000000000003FFFE0
00000000000000003FFFE0
00000000000000003FFFE0
00000000000000003FFFE0
00000000000000003FFFE0
00000000000000003FFFE0
00000000000000003FFFE0
00000000000000003FFFE0
00000000000000003FFFE0
00000000000000003FFFE0
00000000000000003FFFE0
00000000000000003FFFE0
00000000000000003FFFE0
00000000000000003FFFE0
00000000000000003FFFE0
00000000000000003FFFE0
00000000000000003FFFE0
00000000000000003FFFE0
00000000000000003FFFE0
00000000000000003FFFE0
00000000000000003FFFE0
00000000000000007FFFC0
00000000000000007FFFC0
00000000000000007FFFC0
00000000000000007FFFC0
0000000000000000FFFFC0
0000000000000000FFFFC0
0000000000000001FFFF80
0000000000000001FFFF80
0000000000000003FFFF80
0000000000000007FFFF80
000000000000000FFFFF00
000000000000001FFFFF00
000000000000003FFFFE00
000000000000007FFFFE00
00000000000001FFFFFE00
00000000000007FFFFFC00
0000000000003FFFFFFC00
000000000003FFFFFFF800
FFFFFFFFFFFFFFFFFFF000
FFFFFFFFFFFFFFFFFFF000
FFFFFFFFFFFFFFFFFFE000
FFFFFFFFFFFFFFFFFFC000
FFFFFFFFFFFFFFFFFF8000
FFFFFFFFFFFFFFFFFF0000
FFFFFFFFFFFFFFFFFE0000
FFFFFFFFFFFFFFFFFC0000
FFFFFFFFFFFFFFFFF80000
FFFFFFFFFFFFFFFFF00000
FFFFFFFFFFFFFFFFC00000
FFFFFFFFFFFFFFFF000000
FFFFFFFFFFFFFFFC000000
FFFFFFFFFFFFFFE0000000
FFFFFFFFFFFFFF00000000
FFFFFFFFFFFFF000000000
FFFFFFFFFFF80000000000
ENDCHAR
STARTCHAR K
ENCODING 75
SWIDTH 875 0
DWIDTH 115 0
BBX 104 95 8 0
BITMAP
FFFF800000000000000FFFFFFC
FFFF800000000000001FFFFFF0
FFFF800000000000007FFFFFE0
FFFF80000000000000FFFFFFC0
FFFF80000000000001FFFFFF00
FFFF80000000000007FFFFFE00
FFFF8000000000000FFFFFFC00
FFFF8000000000001FFFFFF000
FFFF8000000000003FFFFFE000
FFFF800000000000FFFFFFC000
FFFF800000000001FFFFFF0000
FFFF800000000003FFFFFE0000
FFFF80000000000FFFFFFC0000
FFFF80000000001FFFFFF00000
FFFF80000000003FFFFFE00000
FFFF8000000000FFFFFFC00000
FFFF8000000001FFFFFF000000
FFFF8000000003FFFFFE000000
FFFF800000000FFFFFFC000000
FFFF800000001FFFFFF0000000
FFFF800000003FFFFFE0000000
FFFF800000007FFFFFC0000000
FFFF80000001FFFFFF00000000
FFFF80000003FFFFFE00000000
FFFF80000007FFFFFC00000000
FFFF8000001FFFFFF000000000
FFFF8000003FFFFFE000000000
FFFF8000007FFFFFC000000000
FFFF800001FFFFFF0000000000
FFFF800003FFFFFE0000000000
FFFF800007FFFFFC0000000000
FFFF80000FFFFFF80000000000
FFFF80003FFFFFE00000000000
FFFF80007FFFFFC00000000000
FFFF8000FFFFFF800000000000
FFFF8003FFFFFE000000000000
FFFF8007FFFFFC000000000000
FFFF800FFFFFF8000000000000
FFFF803FFFFFE0000000000000
FFFF807FFFFFC0000000000000
FFFF80FFFFFF80000000000000
FFFF81FFFFFE00000000000000
FFFF81FFFFFC00000000000000
FFFF83FFFFF800000000000000
FFFF83FFFFE000000000000000
FFFF83FFFFC000000000000000
FFFF83FFFF8000000000000000
FFFF83FFFF0000000000000000
FFFF83FFFFC000000000000000
FFFF83FFFFE000000000000000
FFFF81FFFFF000000000000000
FFFF80FFFFFC00000000000000
FFFF807FFFFE00000000000000
FFFF803FFFFF00000000000000
FFFF801FFFFFC0000000000000
FFFF800FFFFFE0000000000000
FFFF8003FFFFF0000000000000
FFFF8001FFFFFC000000000000
FFFF8000FFFFFE000000000000
FFFF80007FFFFF000000000000
FFFF80001FFFFFC00000000000
FFFF80000FFFFFE00000000000
FFFF800007FFFFF00000000000
FFFF800001FFFFFC0000000000
FFFF800000FFFFFE0000000000
FFFF8000007FFFFF8000000000
FFFF8000003FFFFFC000000000
FFFF8000000FFFFFE000000000
FFFF80000007FFFFF800000000
FFFF80000003FFFFFC00000000
FFFF80000001FFFFFE00000000
FFFF800000007FFFFF80000000
FFFF800000003FFFFFC0000000
FFFF800000001FFFFFE0000000
FFFF8000000007FFFFF8000000
FFFF8000000003FFFFFC000000
FFFF8000000001FFFFFE000000
FFFF8000000000FFFFFF800000
FFFF80000000003FFFFFC00000
FFFF80000000001FFFFFE00000
FFFF80000000000FFFFFF80000
FFFF800000000007FFFFFC0000
FFFF800000000001FFFFFE0000
FFFF800000000000FFFFFF8000
FFFF8000000000007FFFFFC000
FFFF8000000000001FFFFFE000
FFFF8000000000000FFFFFF800
FFFF80000000000007FFFFFC00
FFFF80000000000003FFFFFE00
FFFF80000000000000FFFFFF80
FFFF800000000000007FFFFFC0
FFFF800000000000003FFFFFE0
FFFF800000000000000FFFFFF8
FFFF8000000000000007FFFFFC
FFFF8000000000000003FFFFFF
ENDCHAR
STARTCHAR L
ENCODING 76
SWIDTH 707 0
DWIDTH 93 0
BBX 81 95 8 0
BITMAP
FFFF800000000000000000
FFFF800000000000000000
FFFF800000000000000000
FFFF800000000000000000
FFFF800000000000000000
FFFF800000000000000000
FFFF800000000000000000
FFFF800000000000000000
FFFF800000000000000000
FFFF800000000000000000
FFFF800000000000000000
FFFF800000000000000000
FFFF800000000000000000
FFFF800000000000000000
FFFF800000000000000000
FFFF800000000000000000
FFFF800000000000000000
FFFF800000000000000000
FFFF800000000000000000
FFFF800000000000000000
FFFF800000000000000000
FFFF800000000000000000
FFFF800000000000000000
FFFF800000000000000000
FFFF800000000000000000
FFFF800000000000000000
FFFF800000000000000000
FFFF800000000000000000
FFFF800000000000000000
FFFF800000000000000000
FFFF800000000000000000
FFFF800000000000000000
FFFF800000000000000000
FFFF800000000000000000
FFFF800000000000000000
FFFF800000000000000000
FFFF800000000000000000
FFFF800000000000000000
FFFF800000000000000000
FFFF800000000000000000
FFFF800000000000000000
FFFF800000000000000000
FFFF800000000000000000
FFFF800000000000000000
FFFF800000000000000000
FFFF800000000000000000
FFFF800000000000000000
FFFF800000000000000000
FFFF800000000000000000
FFFF800000000000000000
FFFF800000000000000000
FFFF800000000000000000
FFFF800000000000000000
FFFF800000000000000000
FFFF800000000000000000
FFFF800000000000000000
FFFF800000000000000000
FFFF800000000000000000
FFFF800000000000000000
FFFF800000000000000000
FFFF800000000000000000
FFFF800000000000000000
FFFF800000000000000000
FFFF800000000000000000
FFFF800000000000000000
FFFF800000000000000000
FFFF800000000000000000
FFFF800000000000000000
FFFF800000000000000000
FFFF800000000000000000
FFFF800000000000000000
FFFF800000000000000000
FFFF800000000000000000
FFFF800000000000000000
FFFF800000000000000000
FFFF800000000000000000
FFFF800000000000000000
FFFF800000000000000000
FFFFFFFFFFFFFFFFFFFF80
FFFFFFFFFFFFFFFFFFFF80
FFFFFFFFFFFFFFFFFFFF80
FFFFFFFFFFFFFFFFFFFF80
FFFFFFFFFFFFFFFFFFFF80
FFFFFFFFFFFFFFFFFFFF80
FFFFFFFFFFFFFFFFFFFF80
FFFFFFFFFFFFFFFFFFFF80
FFFFFFFFFFFFFFFFFFFF80
FFFFFFFFFFFFFFFFFFFF80
FFFFFFFFFFFFFFFFFFFF80
FFFFFFFFFFFFFFFFFFFF80
FFFFFFFFFFFFFFFFFFFF80
FFFFFFFFFFFFFFFFFFFF80
FFFFFFFFFFFFFFFFFFFF80
FFFFFFFFFFFFFFFFFFFF80
FFFFFFFFFFFFFFFFFFFF80
ENDCHAR
STARTCHAR M
ENCODING 77
SWIDTH 1115 0
DWIDTH 146 0
BBX 140 97 3 -2
BITMAP
00000003F000000000000000007E00000000
0000000FFC0000000000000001FF80000000
0000001FFE0000000000000003FFC0000000
0000003FFF0000000000000007FFE0000000
0000007FFF800000000000000FFFE0000000
0000007FFF800000000000000FFFF0000000
0000007FFFC00000000000000FFFF0000000
000000FFFFC00000000000001FFFF0000000
000000FFFFE00000000000001FFFF0000000
000000FFFFE00000000000003FFFF8000000
000000FFFFE00000000000003FFFF8000000
000001FFFFF00000000000007FFFF8000000
000001FFFFF00000000000007FFFFC000000
000001FFFFF8000000000000FFFFFC000000
000003FFFFF8000000000000FFFFFC000000
000003FFFFFC000000000000FFFFFC000000
000003FFFFFC000000000001FFFFFE000000
000003FFFFFE000000000001FFFFFE000000
000007FFFFFE000000000003FFFFFE000000
000007FFFFFE000000000003FFFFFE000000
000007FFFFFF000000000007FFFFFF000000
000007FFFFFF000000000007FFFFFF000000
00000FFFFFFF80000000000FFFFFFF000000
00000FFFFFFF80000000000FFFFFFF800000
00000FFFFFFFC0000000000FFFFFFF800000
00001FFFFFFFC0000000001FFFFFFF800000
00001FFFFFFFE0000000001FFFFFFF800000
00001FFFFFFFE0000000003FFFFFFFC00000
00001FFFFFFFE0000000003FFFFFFFC00000
00003FFFFFFFF0000000007FFFBFFFC00000
00003FFFDFFFF0000000007FFFBFFFE00000
00003FFFCFFFF800000000FFFFBFFFE00000
00007FFFCFFFF800000000FFFF3FFFE00000
00007FFFC7FFFC00000000FFFF1FFFE00000
00007FFF87FFFC00000001FFFE1FFFF00000
00007FFF87FFFE00000001FFFE1FFFF00000
0000FFFF83FFFE00000003FFFC0FFFF00000
0000FFFF03FFFE00000003FFFC0FFFF00000
0000FFFF01FFFF00000007FFFC0FFFF80000
0000FFFF01FFFF00000007FFF80FFFF80000
0001FFFF00FFFF80000007FFF807FFF80000
0001FFFE00FFFF8000000FFFF007FFFC0000
0001FFFE007FFFC000000FFFF007FFFC0000
0003FFFE007FFFC000001FFFE003FFFC0000
0003FFFE007FFFC000001FFFE003FFFC0000
0003FFFC003FFFE000003FFFC003FFFE0000
0003FFFC003FFFE000003FFFC003FFFE0000
0007FFFC001FFFF000007FFFC001FFFE0000
0007FFF8001FFFF000007FFF8001FFFE0000
0007FFF8000FFFF800007FFF8001FFFF0000
000FFFF8000FFFF80000FFFF0001FFFF0000
000FFFF80007FFFC0000FFFF0000FFFF0000
000FFFF00007FFFC0001FFFE0000FFFF8000
000FFFF00007FFFC0001FFFE0000FFFF8000
001FFFF00003FFFE0003FFFC00007FFF8000
001FFFE00003FFFE0003FFFC00007FFF8000
001FFFE00001FFFF0007FFFC00007FFFC000
001FFFE00001FFFF0007FFF800007FFFC000
003FFFE00000FFFF8007FFF800003FFFC000
003FFFC00000FFFF800FFFF000003FFFE000
003FFFC00000FFFFC00FFFF000003FFFE000
007FFFC000007FFFC01FFFE000001FFFE000
007FFFC000007FFFC01FFFE000001FFFE000
007FFF8000003FFFE03FFFC000001FFFF000
007FFF8000003FFFE03FFFC000001FFFF000
00FFFF8000001FFFF07FFFC000000FFFF000
00FFFF0000001FFFF07FFF8000000FFFF000
00FFFF0000000FFFF87FFF8000000FFFF800
01FFFF0000000FFFF8FFFF0000000FFFF800
01FFFF0000000FFFFCFFFF00000007FFF800
01FFFE00000007FFFDFFFE00000007FFFC00
01FFFE00000007FFFDFFFE00000007FFFC00
03FFFE00000003FFFFFFFC00000003FFFC00
03FFFC00000003FFFFFFFC00000003FFFC00
03FFFC00000001FFFFFFFC00000003FFFE00
03FFFC00000001FFFFFFF800000003FFFE00
07FFFC00000001FFFFFFF800000001FFFE00
07FFF800000000FFFFFFF000000001FFFE00
07FFF800000000FFFFFFF000000001FFFF00
0FFFF8000000007FFFFFE000000000FFFF00
0FFFF8000000007FFFFFE000000000FFFF00
0FFFF0000000003FFFFFE000000000FFFF80
0FFFF0000000003FFFFFC000000000FFFF80
1FFFF0000000001FFFFFC0000000007FFF80
1FFFE0000000001FFFFF80000000007FFF80
1FFFE0000000001FFFFF80000000007FFFC0
3FFFE0000000000FFFFF00000000007FFFC0
3FFFE0000000000FFFFF00000000003FFFC0
3FFFC00000000007FFFE00000000003FFFE0
3FFFC00000000007FFFE00000000003FFFE0
7FFFC00000000003FFFE00000000001FFFE0
7FFFC00000000003FFFC00000000001FFFE0
7FFF800000000001FFF800000000001FFFF0
7FFF800000000001FFF800000000001FFFF0
FFFF800000000000FFF000000000000FFFF0
00000000000000003FC00000000000000000
000000000000000006000000000000000000
ENDCHAR
STARTCHAR N
ENCODING 78
SWIDTH 873 0
DWIDTH 114 0
BBX 99 95 8 0
BITMAP
07E000000000000000001FFFE0
1FF800000000000000001FFFE0
3FFE00000000000000001FFFE0
7FFF00000000000000001FFFE0
7FFF80000000000000001FFFE0
FFFFC0000000000000001FFFE0
FFFFE0000000000000001FFFE0
FFFFF0000000000000001FFFE0
FFFFF8000000000000001FFFE0
FFFFFC000000000000001FFFE0
FFFFFE000000000000001FFFE0
FFFFFF000000000000001FFFE0
FFFFFF800000000000001FFFE0
FFFFFFC00000000000001FFFE0
FFFFFFE00000000000001FFFE0
FFFFFFF00000000000001FFFE0
FFFFFFF80000000000001FFFE0
FFFFFFFC0000000000001FFFE0
FFFFFFFE0000000000001FFFE0
FFFFFFFF0000000000001FFFE0
FFFFFFFF8000000000001FFFE0
FFFFFFFFC000000000001FFFE0
FFFFFFFFE000000000001FFFE0
FFFFFFFFF000000000001FFFE0
FFFFFFFFF800000000001FFFE0
FFFFFFFFFC00000000001FFFE0
FFFFFFFFFE00000000001FFFE0
FFFF7FFFFF00000000001FFFE0
FFFF3FFFFF80000000001FFFE0
FFFF1FFFFFC0000000001FFFE0
FFFF0FFFFFE0000000001FFFE0
FFFF07FFFFF0000000001FFFE0
FFFF03FFFFF8000000001FFFE0
FFFF01FFFFFC000000001FFFE0
FFFF00FFFFFE000000001FFFE0
FFFF007FFFFF000000001FFFE0
FFFF003FFFFF800000001FFFE0
FFFF001FFFFFC00000001FFFE0
FFFF000FFFFFE00000001FFFE0
FFFF0007FFFFF00000001FFFE0
FFFF0003FFFFF80000001FFFE0
FFFF0001FFFFFC0000001FFFE0
FFFF0000FFFFFE0000001FFFE0
FFFF00007FFFFF0000001FFFE0
FFFF00003FFFFF8000001FFFE0
FFFF00001FFFFFE000001FFFE0
FFFF00000FFFFFF000001FFFE0
FFFF000007FFFFF800001FFFE0
FFFF000003FFFFFC00001FFFE0
FFFF000001FFFFFE00001FFFE0
FFFF000000FFFFFF00001FFFE0
FFFF0000007FFFFF80001FFFE0
FFFF0000003FFFFFC0001FFFE0
FFFF0000001FFFFFE0001FFFE0
FFFF0000000FFFFFF0001FFFE0
FFFF00000003FFFFF8001FFFE0
FFFF00000001FFFFFC001FFFE0
FFFF00000000FFFFFE001FFFE0
FFFF000000007FFFFF001FFFE0
FFFF000000003FFFFF801FFFE0
FFFF000000001FFFFFC01FFFE0
FFFF000000000FFFFFE01FFFE0
FFFF0000000007FFFFF01FFFE0
FFFF0000000003FFFFF81FFFE0
FFFF0000000001FFFFFC1FFFE0
FFFF0000000000FFFFFE1FFFE0
FFFF00000000007FFFFF1FFFE0
FFFF00000000003FFFFF9FFFE0
FFFF00000000001FFFFFDFFFE0
FFFF00000000000FFFFFFFFFE0
FFFF000000000007FFFFFFFFE0
FFFF000000000003FFFFFFFFE0
FFFF000000000001FFFFFFFFE0
FFFF000000000000FFFFFFFFE0
FFFF0000000000007FFFFFFFE0
FFFF0000000000003FFFFFFFE0
FFFF0000000000001FFFFFFFE0
FFFF0000000000000FFFFFFFE0
FFFF00000000000007FFFFFFE0
FFFF00000000000003FFFFFFE0
FFFF00000000000001FFFFFFE0
FFFF00000000000000FFFFFFE0
FFFF000000000000007FFFFFE0
FFFF000000000000003FFFFFE0
FFFF000000000000001FFFFFE0
FFFF000000000000000FFFFFE0
FFFF0000000000000007FFFFC0
FFFF0000000000000003FFFFC0
FFFF0000000000000001FFFFC0
FFFF00000000000000007FFFC0
FFFF00000000000000003FFF80
FFFF00000000000000001FFF80
FFFF00000000000000000FFF00
FFFF000000000000000007FE00
FFFF000000000000000001F800
ENDCHAR
STARTCHAR O
ENCODING 79
SWIDTH 968 0
DWIDTH 127 0
BBX 117 95 5 0
BITMAP
0000000001FFFFFFFFFC0000000000
000000003FFFFFFFFFFFE000000000
00000001FFFFFFFFFFFFFC00000000
0000000FFFFFFFFFFFFFFF80000000
0000003FFFFFFFFFFFFFFFE0000000
000000FFFFFFFFFFFFFFFFF8000000
000003FFFFFFFFFFFFFFFFFE000000
00000FFFFFFFFFFFFFFFFFFF800000
00001FFFFFFFFFFFFFFFFFFFC00000
00007FFFFFFFFFFFFFFFFFFFF00000
0000FFFFFFFFFFFFFFFFFFFFF80000
0001FFFFFFFFFFFFFFFFFFFFFC0000
0003FFFFFFFFFFFFFFFFFFFFFE0000
0007FFFFFFFFFFFFFFFFFFFFFF0000
000FFFFFFFFFFFFFFFFFFFFFFF8000
001FFFFFFFFFFFFFFFFFFFFFFFC000
003FFFFFFFFFFFFFFFFFFFFFFFE000
007FFFFFFE0000000003FFFFFFF000
007FFFFFF000000000007FFFFFF000
00FFFFFFC000000000001FFFFFF800
01FFFFFF00000000000007FFFFFC00
01FFFFFC00000000000001FFFFFC00
03FFFFF800000000000000FFFFFE00
03FFFFE0000000000000003FFFFE00
07FFFFC0000000000000001FFFFF00
07FFFF80000000000000000FFFFF00
0FFFFF000000000000000007FFFF80
0FFFFF000000000000000007FFFF80
0FFFFE000000000000000003FFFF80
1FFFFC000000000000000001FFFFC0
1FFFF8000000000000000000FFFFC0
1FFFF8000000000000000000FFFFC0
3FFFF00000000000000000007FFFE0
3FFFF00000000000000000007FFFE0
3FFFF00000000000000000007FFFE0
3FFFE00000000000000000003FFFE0
7FFFE00000000000000000003FFFF0
7FFFC00000000000000000001FFFF0
7FFFC00000000000000000001FFFF0
7FFFC00000000000000000001FFFF0
7FFFC00000000000000000001FFFF0
7FFFC00000000000000000001FFFF0
7FFF800000000000000000000FFFF0
7FFF800000000000000000000FFFF0
7FFF800000000000000000000FFFF8
FFFF800000000000000000000FFFF8
FFFF800000000000000000000FFFF8
FFFF800000000000000000000FFFF8
7FFF800000000000000000000FFFF8
7FFF800000000000000000000FFFF0
7FFF800000000000000000000FFFF0
7FFF800000000000000000000FFFF0
7FFF800000000000000000000FFFF0
7FFFC00000000000000000001FFFF0
7FFFC00000000000000000001FFFF0
7FFFC00000000000000000001FFFF0
7FFFC00000000000000000001FFFF0
3FFFE00000000000000000003FFFE0
3FFFE00000000000000000003FFFE0
3FFFE00000000000000000003FFFE0
3FFFF00000000000000000007FFFE0
1FFFF00000000000000000007FFFE0
1FFFF8000000000000000000FFFFC0
1FFFF8000000000000000000FFFFC0
1FFFFC000000000000000001FFFFC0
0FFFFC000000000000000001FFFF80
0FFFFE000000000000000003FFFF80
07FFFF000000000000000007FFFF00
07FFFF80000000000000000FFFFF00
03FFFF80000000000000000FFFFE00
03FFFFC0000000000000001FFFFE00
01FFFFF0000000000000007FFFFC00
01FFFFF800000000000000FFFFFC00
00FFFFFC00000000000001FFFFF800
00FFFFFF00000000000007FFFFF800
007FFFFFC000000000001FFFFFF000
003FFFFFF000000000007FFFFFE000
001FFFFFFE0000000003FFFFFFE000
001FFFFFFFFFFFFFFFFFFFFFFFC000
000FFFFFFFFFFFFFFFFFFFFFFF8000
0007FFFFFFFFFFFFFFFFFFFFFF0000
0003FFFFFFFFFFFFFFFFFFFFFE0000
0001FFFFFFFFFFFFFFFFFFFFFC0000
0000FFFFFFFFFFFFFFFFFFFFF80000
00007FFFFFFFFFFFFFFFFFFFF00000
00001FFFFFFFFFFFFFFFFFFFE00000
00000FFFFFFFFFFFFFFFFFFF800000
000007FFFFFFFFFFFFFFFFFF000000
000001FFFFFFFFFFFFFFFFFC000000
0000007FFFFFFFFFFFFFFFF0000000
0000001FFFFFFFFFFFFFFFC0000000
00000007FFFFFFFFFFFFFF00000000
00000001FFFFFFFFFFFFF800000000
000000001FFFFFFFFFFFC000000000
0000000001FFFFFFFFF80000000000
ENDCHAR
STARTCHAR P
ENCODING 80
SWIDTH 867 0
DWIDTH 114 0
BBX 102 95 8 0
BITMAP
FFFFFFFFFFFFFFFFFFC0000000
FFFFFFFFFFFFFFFFFFFE000000
FFFFFFFFFFFFFFFFFFFFC00000
FFFFFFFFFFFFFFFFFFFFF80000
FFFFFFFFFFFFFFFFFFFFFC0000
FFFFFFFFFFFFFFFFFFFFFF0000
FFFFFFFFFFFFFFFFFFFFFFC000
FFFFFFFFFFFFFFFFFFFFFFE000
FFFFFFFFFFFFFFFFFFFFFFF000
FFFFFFFFFFFFFFFFFFFFFFF800
FFFFFFFFFFFFFFFFFFFFFFFC00
FFFFFFFFFFFFFFFFFFFFFFFE00
FFFFFFFFFFFFFFFFFFFFFFFF00
FFFFFFFFFFFFFFFFFFFFFFFF00
FFFFFFFFFFFFFFFFFFFFFFFF80
FFFFFFFFFFFFFFFFFFFFFFFFC0
FFFFFFFFFFFFFFFFFFFFFFFFC0
FFFF800000000000003FFFFFE0
FFFF8000000000000007FFFFE0
FFFF8000000000000003FFFFF0
FFFF8000000000000000FFFFF0
FFFF80000000000000007FFFF0
FFFF80000000000000003FFFF8
FFFF80000000000000001FFFF8
FFFF80000000000000001FFFF8
FFFF80000000000000000FFFF8
FFFF80000000000000000FFFF8
FFFF800000000000000007FFFC
FFFF800000000000000007FFFC
FFFF800000000000000007FFFC
FFFF800000000000000007FFFC
FFFF800000000000000003FFFC
FFFF800000000000000003FFFC
FFFF800000000000000003FFFC
FFFF800000000000000003FFFC
FFFF800000000000000003FFFC
FFFF800000000000000003FFFC
FFFF800000000000000003FFFC
FFFF800000000000000007FFFC
FFFF800000000000000007FFFC
FFFF800000000000000007FFFC
FFFF800000000000000007FFF8
FFFF80000000000000000FFFF8
FFFF80000000000000000FFFF8
FFFF80000000000000001FFFF8
FFFF80000000000000001FFFF8
FFFF80000000000000003FFFF0
FFFF80000000000000007FFFF0
FFFF8000000000000000FFFFF0
FFFF8000000000000003FFFFE0
FFFF8000000000000007FFFFE0
FFFF800000000000003FFFFFC0
FFFF8007FFFFFFFFFFFFFFFFC0
FFFF8007FFFFFFFFFFFFFFFF80
FFFF8007FFFFFFFFFFFFFFFF80
FFFF8007FFFFFFFFFFFFFFFF00
FFFF8007FFFFFFFFFFFFFFFE00
FFFF8007FFFFFFFFFFFFFFFC00
FFFF8007FFFFFFFFFFFFFFFC00
FFFF8007FFFFFFFFFFFFFFF800
FFFF8007FFFFFFFFFFFFFFF000
FFFF8007FFFFFFFFFFFFFFC000
FFFF8007FFFFFFFFFFFFFF8000
FFFF8007FFFFFFFFFFFFFF0000
FFFF8007FFFFFFFFFFFFFC0000
FFFF8007FFFFFFFFFFFFF00000
FFFF8007FFFFFFFFFFFFC00000
FFFF8007FFFFFFFFFFFE000000
FFFF8007FFFFFFFFFFC0000000
FFFF8000000000000000000000
FFFF8000000000000000000000
FFFF8000000000000000000000
FFFF8000000000000000000000
FFFF8000000000000000000000
FFFF8000000000000000000000
FFFF8000000000000000000000
FFFF8000000000000000000000
FFFF8000000000000000000000
FFFF8000000000000000000000
FFFF8000000000000000000000
FFFF8000000000000000000000
FFFF8000000000000000000000
FFFF8000000000000000000000
FFFF8000000000000000000000
FFFF8000000000000000000000
FFFF8000000000000000000000
FFFF8000000000000000000000
FFFF8000000000000000000000
FFFF8000000000000000000000
FFFF8000000000000000000000
FFFF8000000000000000000000
FFFF8000000000000000000000
FFFF8000000000000000000000
FFFF8000000000000000000000
FFFF8000000000000000000000
ENDCHAR
STARTCHAR Q
ENCODING 81
SWIDTH 968 0
DWIDTH 127 0
BBX 121 95 5 0
BITMAP
0000000001FFFFFFFFFC000000000000
000000003FFFFFFFFFFFE00000000000
00000001FFFFFFFFFFFFFC0000000000
0000000FFFFFFFFFFFFFFF8000000000
0000003FFFFFFFFFFFFFFFE000000000
000000FFFFFFFFFFFFFFFFF800000000
000003FFFFFFFFFFFFFFFFFE00000000
00000FFFFFFFFFFFFFFFFFFF80000000
00001FFFFFFFFFFFFFFFFFFFC0000000
00007FFFFFFFFFFFFFFFFFFFF0000000
0000FFFFFFFFFFFFFFFFFFFFF8000000
0001FFFFFFFFFFFFFFFFFFFFFC000000
0003FFFFFFFFFFFFFFFFFFFFFE000000
0007FFFFFFFFFFFFFFFFFFFFFF000000
000FFFFFFFFFFFFFFFFFFFFFFF800000
001FFFFFFFFFFFFFFFFFFFFFFFC00000
003FFFFFFFFFFFFFFFFFFFFFFFE00000
007FFFFFFE0000000003FFFFFFF00000
007FFFFFF000000000007FFFFFF00000
00FFFFFFC000000000001FFFFFF80000
01FFFFFF00000000000007FFFFFC0000
01FFFFFC00000000000001FFFFFC0000
03FFFFF800000000000000FFFFFE0000
03FFFFE0000000000000003FFFFE0000
07FFFFC0000000000000001FFFFF0000
07FFFF80000000000000000FFFFF0000
0FFFFF000000000000000007FFFF8000
0FFFFF000000000000000007FFFF8000
0FFFFE000000000000000003FFFF8000
1FFFFC000000000000000001FFFFC000
1FFFF8000000000000000000FFFFC000
1FFFF8000000000000000000FFFFC000
3FFFF00000000000000000007FFFE000
3FFFF00000000000000000007FFFE000
3FFFF00000000000000000007FFFE000
3FFFE00000000000000000003FFFE000
7FFFE00000000000000000003FFFF000
7FFFC00000000000000000001FFFF000
7FFFC00000000000000000001FFFF000
7FFFC00000000000000000001FFFF000
7FFFC00000000000000000001FFFF000
7FFFC00000000000000000001FFFF000
7FFF800000000000000000000FFFF000
7FFF800000000000000000000FFFF000
7FFF800000000000000000000FFFF800
FFFF800000000000000000000FFFF800
FFFF800000000000000000000FFFF800
FFFF800000000000000000000FFFF800
7FFF800000000000000000000FFFF800
7FFF800000000000000000000FFFF000
7FFF800000000000000000000FFFF000
7FFF800000000000000000000FFFF000
7FFF800000000000000000000FFFF000
7FFFC00000000000000000001FFFF000
7FFFC00000000000000000001FFFF000
7FFFC00000000000000000001FFFF000
7FFFC00000001FFFFFC000001FFFF000
3FFFE000000007FFFFE000003FFFF000
3FFFE000000003FFFFF000003FFFE000
3FFFE000000001FFFFF800003FFFE000
3FFFF0000000007FFFFC00007FFFE000
1FFFF0000000003FFFFE00007FFFE000
1FFFF8000000001FFFFF8000FFFFC000
1FFFF80000000007FFFFC000FFFFC000
1FFFFC0000000003FFFFE001FFFFC000
0FFFFC0000000001FFFFF001FFFF8000
0FFFFE0000000000FFFFF803FFFF8000
07FFFF00000000003FFFFE07FFFF0000
07FFFF80000000001FFFFF0FFFFF0000
03FFFF80000000000FFFFF8FFFFE0000
03FFFFC00000000007FFFFDFFFFE0000
01FFFFF00000000001FFFFFFFFFC0000
01FFFFF80000000000FFFFFFFFFC0000
00FFFFFC00000000007FFFFFFFF80000
00FFFFFF00000000001FFFFFFFF80000
007FFFFFC0000000000FFFFFFFF00000
003FFFFFF00000000007FFFFFFE00000
001FFFFFFE0000000007FFFFFFE00000
001FFFFFFFFFFFFFFFFFFFFFFFC00000
000FFFFFFFFFFFFFFFFFFFFFFF800000
0007FFFFFFFFFFFFFFFFFFFFFF000000
0003FFFFFFFFFFFFFFFFFFFFFF000000
0001FFFFFFFFFFFFFFFFFFFFFF800000
0000FFFFFFFFFFFFFFFFFFFFFFC00000
00007FFFFFFFFFFFFFFFFFFFFFF00000
00001FFFFFFFFFFFFFFFFFFFFFF80000
00000FFFFFFFFFFFFFFFFFFFFFFC0000
000007FFFFFFFFFFFFFFFFFFFFFF0000
000001FFFFFFFFFFFFFFFFFFFFFF8000
0000007FFFFFFFFFFFFFFFF7FFFFC000
0000001FFFFFFFFFFFFFFFC3FFFFE000
00000007FFFFFFFFFFFFFF01FFFFF800
00000001FFFFFFFFFFFFF800FFFFFC00
000000001FFFFFFFFFFFC0007FFFFE00
0000000001FFFFFFFFF800001FFFFF80
ENDCHAR
STARTCHAR R
ENCODING 82
SWIDTH 921 0
DWIDTH 121 0
BBX 112 95 8 0
BITMAP
FFFFFFFFFFFFFFFFFFE000000000
FFFFFFFFFFFFFFFFFFFF00000000
FFFFFFFFFFFFFFFFFFFFE0000000
FFFFFFFFFFFFFFFFFFFFFC000000
FFFFFFFFFFFFFFFFFFFFFF000000
FFFFFFFFFFFFFFFFFFFFFF800000
FFFFFFFFFFFFFFFFFFFFFFE00000
FFFFFFFFFFFFFFFFFFFFFFF00000
FFFFFFFFFFFFFFFFFFFFFFF80000
FFFFFFFFFFFFFFFFFFFFFFFC0000
FFFFFFFFFFFFFFFFFFFFFFFE0000
FFFFFFFFFFFFFFFFFFFFFFFF0000
FFFFFFFFFFFFFFFFFFFFFFFF8000
FFFFFFFFFFFFFFFFFFFFFFFF8000
FFFFFFFFFFFFFFFFFFFFFFFFC000
FFFFFFFFFFFFFFFFFFFFFFFFE000
FFFFFFFFFFFFFFFFFFFFFFFFE000
FFFF800000000000001FFFFFF000
FFFF8000000000000003FFFFF000
FFFF8000000000000000FFFFF800
FFFF80000000000000007FFFF800
FFFF80000000000000003FFFF800
FFFF80000000000000001FFFFC00
FFFF80000000000000000FFFFC00
FFFF800000000000000007FFFC00
FFFF800000000000000007FFFC00
FFFF800000000000000003FFFC00
FFFF800000000000000003FFFE00
FFFF800000000000000003FFFE00
FFFF800000000000000003FFFE00
FFFF800000000000000001FFFE00
FFFF800000000000000001FFFE00
FFFF800000000000000001FFFE00
FFFF800000000000000001FFFE00
FFFF800000000000000001FFFE00
FFFF800000000000000001FFFE00
FFFF800000000000000001FFFE00
FFFF800000000000000001FFFE00
FFFF800000000000000001FFFE00
FFFF800000000000000003FFFE00
FFFF800000000000000003FFFE00
FFFF800000000000000003FFFE00
FFFF800000000000000003FFFE00
FFFF800000000000000003FFFC00
FFFF800000000000000007FFFC00
FFFF800000000000000007FFFC00
FFFF80000000000000000FFFFC00
FFFF80000000000000000FFFF800
FFFF80000000000000001FFFF800
FFFF80000000000000003FFFF800
FFFF80000000000000007FFFF000
FFFF8000000000000001FFFFF000
FFFF8000000000000007FFFFE000
FFFF800000000000003FFFFFE000
FFFF8007FFFFFFFFFFFFFFFFC000
FFFF8007FFFFFFFFFFFFFFFFC000
FFFF8007FFFFFFFFFFFFFFFF8000
FFFF8007FFFFFFFFFFFFFFFF0000
FFFF8007FFFFFFFFFFFFFFFE0000
FFFF8007FFFFFFFFFFFFFFFC0000
FFFF8007FFFFFFFFFFFFFFF80000
FFFF8007FFFFFFFFFFFFFFF00000
FFFF8007FFFFFFFFFFFFFFE00000
FFFF8007FFFFFFFFFFFFFF800000
FFFF8007FFFFFFFFFFFFFF000000
FFFF8007FFFFFFFFFFFFFC000000
FFFF8007FFFFFFFFFFFFF0000000
FFFF8007FFFFFFFFFFFFF8000000
FFFF8007FFFFFFFFFFFFFC000000
FFFF8000000000007FFFFE000000
FFFF8000000000003FFFFF000000
FFFF8000000000001FFFFF800000
FFFF8000000000000FFFFFC00000
FFFF80000000000007FFFFE00000
FFFF80000000000003FFFFF00000
FFFF80000000000001FFFFF80000
FFFF80000000000000FFFFFC0000
FFFF80000000000000FFFFFE0000
FFFF800000000000007FFFFF0000
FFFF800000000000003FFFFF8000
FFFF800000000000001FFFFFC000
FFFF800000000000000FFFFFE000
FFFF8000000000000007FFFFF000
FFFF8000000000000003FFFFF800
FFFF8000000000000001FFFFFC00
FFFF8000000000000000FFFFFE00
FFFF80000000000000007FFFFF00
FFFF80000000000000003FFFFF80
FFFF80000000000000001FFFFFC0
FFFF80000000000000000FFFFFE0
FFFF80000000000000000FFFFFF0
FFFF800000000000000007FFFFF8
FFFF800000000000000003FFFFFC
FFFF800000000000000001FFFFFE
FFFF800000000000000000FFFFFF
ENDCHAR
STARTCHAR S
ENCODING 83
SWIDTH 880 0
DWIDTH 115 0
BBX 102 95 7 0
BITMAP
000001FFFFFFFFFFFFFFFFFFC0
00003FFFFFFFFFFFFFFFFFFFC0
0001FFFFFFFFFFFFFFFFFFFFC0
0007FFFFFFFFFFFFFFFFFFFFC0
001FFFFFFFFFFFFFFFFFFFFFC0
003FFFFFFFFFFFFFFFFFFFFFC0
007FFFFFFFFFFFFFFFFFFFFFC0
01FFFFFFFFFFFFFFFFFFFFFFC0
03FFFFFFFFFFFFFFFFFFFFFFC0
03FFFFFFFFFFFFFFFFFFFFFFC0
07FFFFFFFFFFFFFFFFFFFFFFC0
0FFFFFFFFFFFFFFFFFFFFFFFC0
1FFFFFFFFFFFFFFFFFFFFFFFC0
1FFFFFFFFFFFFFFFFFFFFFFFC0
3FFFFFFFFFFFFFFFFFFFFFFFC0
3FFFFFFFFFFFFFFFFFFFFFFFC0
3FFFFFFFFFFFFFFFFFFFFFFFC0
7FFFFF00000000000000000000
7FFFFC00000000000000000000
7FFFF800000000000000000000
FFFFF000000000000000000000
FFFFE000000000000000000000
FFFFC000000000000000000000
FFFFC000000000000000000000
FFFFC000000000000000000000
FFFF8000000000000000000000
FFFF8000000000000000000000
FFFF8000000000000000000000
FFFF8000000000000000000000
FFFF8000000000000000000000
FFFF8000000000000000000000
FFFF8000000000000000000000
FFFFC000000000000000000000
7FFFC000000000000000000000
7FFFC000000000000000000000
7FFFE000000000000000000000
7FFFF000000000000000000000
3FFFF800000000000000000000
3FFFFC00000000000000000000
1FFFFF80000000000000000000
1FFFFFFFFFFFFFFFFFFF000000
0FFFFFFFFFFFFFFFFFFFF80000
0FFFFFFFFFFFFFFFFFFFFF0000
07FFFFFFFFFFFFFFFFFFFFC000
03FFFFFFFFFFFFFFFFFFFFF000
01FFFFFFFFFFFFFFFFFFFFF800
00FFFFFFFFFFFFFFFFFFFFFC00
007FFFFFFFFFFFFFFFFFFFFE00
003FFFFFFFFFFFFFFFFFFFFF00
000FFFFFFFFFFFFFFFFFFFFF80
0007FFFFFFFFFFFFFFFFFFFFC0
0000FFFFFFFFFFFFFFFFFFFFE0
00003FFFFFFFFFFFFFFFFFFFE0
000003FFFFFFFFFFFFFFFFFFF0
00000000000000000007FFFFF0
00000000000000000000FFFFF0
000000000000000000003FFFF8
000000000000000000001FFFF8
000000000000000000000FFFF8
0000000000000000000007FFFC
0000000000000000000007FFFC
0000000000000000000003FFFC
0000000000000000000003FFFC
0000000000000000000003FFFC
0000000000000000000003FFFC
0000000000000000000001FFFC
0000000000000000000001FFFC
0000000000000000000003FFFC
0000000000000000000003FFFC
0000000000000000000003FFFC
0000000000000000000003FFFC
0000000000000000000007FFFC
0000000000000000000007FFFC
000000000000000000000FFFFC
000000000000000000001FFFFC
000000000000000000003FFFF8
000000000000000000007FFFF8
00000000000000000001FFFFF8
7FFFFFFFFFFFFFFFFFFFFFFFF0
7FFFFFFFFFFFFFFFFFFFFFFFF0
7FFFFFFFFFFFFFFFFFFFFFFFF0
7FFFFFFFFFFFFFFFFFFFFFFFE0
7FFFFFFFFFFFFFFFFFFFFFFFC0
7FFFFFFFFFFFFFFFFFFFFFFFC0
7FFFFFFFFFFFFFFFFFFFFFFF80
7FFFFFFFFFFFFFFFFFFFFFFF00
7FFFFFFFFFFFFFFFFFFFFFFF00
7FFFFFFFFFFFFFFFFFFFFFFE00
7FFFFFFFFFFFFFFFFFFFFFFC00
7FFFFFFFFFFFFFFFFFFFFFF000
7FFFFFFFFFFFFFFFFFFFFFE000
7FFFFFFFFFFFFFFFFFFFFF8000
7FFFFFFFFFFFFFFFFFFFFE0000
7FFFFFFFFFFFFFFFFFFFF00000
7FFFFFFFFFFFFFFFFFFF000000
ENDCHAR
STARTCHAR T
ENCODING 84
SWIDTH 720 0
DWIDTH 94 0
BBX 89 95 3 0
BITMAP
FFFFFFFFFFFFFFFFFFFFFF80
FFFFFFFFFFFFFFFFFFFFFF80
FFFFFFFFFFFFFFFFFFFFFF80
FFFFFFFFFFFFFFFFFFFFFF80
FFFFFFFFFFFFFFFFFFFFFF80
FFFFFFFFFFFFFFFFFFFFFF80
FFFFFFFFFFFFFFFFFFFFFF80
FFFFFFFFFFFFFFFFFFFFFF80
FFFFFFFFFFFFFFFFFFFFFF80
FFFFFFFFFFFFFFFFFFFFFF80
FFFFFFFFFFFFFFFFFFFFFF80
FFFFFFFFFFFFFFFFFFFFFF80
FFFFFFFFFFFFFFFFFFFFFF80
FFFFFFFFFFFFFFFFFFFFFF80
FFFFFFFFFFFFFFFFFFFFFF80
FFFFFFFFFFFFFFFFFFFFFF80
FFFFFFFFFFFFFFFFFFFFFF80
000000000FFFF00000000000
000000000FFFF00000000000
000000000FFFF00000000000
000000000FFFF00000000000
000000000FFFF00000000000
000000000FFFF00000000000
000000000FFFF00000000000
000000000FFFF00000000000
000000000FFFF00000000000
000000000FFFF00000000000
000000000FFFF00000000000
000000000FFFF00000000000
000000000FFFF00000000000
000000000FFFF00000000000
000000000FFFF00000000000
000000000FFFF00000000000
000000000FFFF00000000000
000000000FFFF00000000000
000000000FFFF00000000000
000000000FFFF00000000000
000000000FFFF00000000000
000000000FFFF00000000000
000000000FFFF00000000000
000000000FFFF00000000000
000000000FFFF00000000000
000000000FFFF00000000000
000000000FFFF00000000000
000000000FFFF00000000000
000000000FFFF00000000000
000000000FFFF00000000000
000000000FFFF00000000000
000000000FFFF00000000000
000000000FFFF00000000000
000000000FFFF00000000000
000000000FFFF00000000000
000000000FFFF00000000000
000000000FFFF00000000000
000000000FFFF00000000000
000000000FFFF00000000000
000000000FFFF00000000000
000000000FFFF00000000000
000000000FFFF00000000000
000000000FFFF00000000000
000000000FFFF00000000000
000000000FFFF00000000000
000000000FFFF00000000000
000000000FFFF00000000000
000000000FFFF00000000000
000000000FFFF00000000000
000000000FFFF00000000000
000000000FFFF00000000000
000000000FFFF00000000000
000000000FFFF00000000000
000000000FFFF00000000000
000000000FFFF00000000000
000000000FFFF00000000000
000000000FFFF00000000000
000000000FFFF00000000000
000000000FFFF00000000000
000000000FFFF00000000000
000000000FFFF00000000000
000000000FFFF00000000000
000000000FFFF00000000000
000000000FFFF00000000000
000000000FFFF00000000000
000000000FFFF00000000000
000000000FFFF00000000000
000000000FFFF00000000000
000000000FFFF00000000000
000000000FFFF00000000000
000000000FFFF00000000000
000000000FFFF00000000000
000000000FFFF00000000000
000000000FFFF00000000000
000000000FFFF00000000000
000000000FFFF00000000000
000000000FFFF00000000000
000000000FFFF00000000000
ENDCHAR
STARTCHAR U
ENCODING 85
SWIDTH 889 0
DWIDTH 116 0
BBX 103 97 7 -2
BITMAP
FFFF800000000000000003FFFE
FFFF800000000000000003FFFE
FFFF800000000000000003FFFE
FFFF800000000000000003FFFE
FFFF800000000000000003FFFE
FFFF800000000000000003FFFE
FFFF800000000000000003FFFE
FFFF800000000000000003FFFE
FFFF800000000000000003FFFE
FFFF800000000000000003FFFE
FFFF800000000000000003FFFE
FFFF800000000000000003FFFE
FFFF800000000000000003FFFE
FFFF800000000000000003FFFE
FFFF800000000000000003FFFE
FFFF800000000000000003FFFE
FFFF800000000000000003FFFE
FFFF800000000000000003FFFE
FFFF800000000000000003FFFE
FFFF800000000000000003FFFE
FFFF800000000000000003FFFE
FFFF800000000000000003FFFE
FFFF800000000000000003FFFE
FFFF800000000000000003FFFE
FFFF800000000000000003FFFE
FFFF800000000000000003FFFE
FFFF800000000000000003FFFE
FFFF800000000000000003FFFE
FFFF800000000000000003FFFE
FFFF800000000000000003FFFE
FFFF800000000000000003FFFE
FFFF800000000000000003FFFE
FFFF800000000000000003FFFE
FFFF800000000000000003FFFE
FFFF800000000000000003FFFE
FFFF800000000000000003FFFE
FFFF800000000000000003FFFE
FFFF800000000000000003FFFE
FFFF800000000000000003FFFE
FFFF800000000000000003FFFE
FFFF800000000000000003FFFE
FFFF800000000000000003FFFE
FFFF800000000000000003FFFE
FFFF800000000000000003FFFE
FFFF800000000000000003FFFE
FFFF800000000000000003FFFE
FFFF800000000000000003FFFE
FFFF800000000000000003FFFE
FFFF800000000000000003FFFE
FFFF800000000000000003FFFE
FFFF800000000000000003FFFE
FFFF800000000000000003FFFE
FFFF800000000000000003FFFE
FFFF800000000000000003FFFE
FFFF800000000000000003FFFE
FFFF800000000000000003FFFE
FFFF800000000000000003FFFE
FFFF800000000000000003FFFE
FFFF800000000000000003FFFC
FFFF800000000000000003FFFC
FFFFC00000000000000003FFFC
FFFFC00000000000000003FFFC
FFFFC00000000000000007FFFC
7FFFC00000000000000007FFFC
7FFFC00000000000000007FFFC
7FFFE00000000000000007FFFC
7FFFE0000000000000000FFFF8
7FFFF0000000000000000FFFF8
7FFFF0000000000000001FFFF8
3FFFF8000000000000001FFFF8
3FFFF8000000000000003FFFF0
3FFFFC000000000000007FFFF0
1FFFFE00000000000000FFFFF0
1FFFFF00000000000001FFFFE0
1FFFFFC0000000000003FFFFE0
0FFFFFE000000000000FFFFFE0
0FFFFFF800000000003FFFFFC0
07FFFFFF0000000000FFFFFFC0
07FFFFFFE00000000FFFFFFF80
03FFFFFFFFC00003FFFFFFFF00
01FFFFFFFFFFFFFFFFFFFFFF00
00FFFFFFFFFFFFFFFFFFFFFE00
00FFFFFFFFFFFFFFFFFFFFFC00
007FFFFFFFFFFFFFFFFFFFF800
003FFFFFFFFFFFFFFFFFFFF000
001FFFFFFFFFFFFFFFFFFFE000
000FFFFFFFFFFFFFFFFFFFC000
0003FFFFFFFFFFFFFFFFFF8000
0001FFFFFFFFFFFFFFFFFE0000
00007FFFFFFFFFFFFFFFFC0000
00003FFFFFFFFFFFFFFFF00000
00000FFFFFFFFFFFFFFFC00000
000001FFFFFFFFFFFFFE000000
0000003FFFFFFFFFFFF0000000
00000003FFFFFFFFFF80000000
000000001FFFFFFFE000000000
000000000001FE000000000000
ENDCHAR
STARTCHAR V
ENCODING 86
SWIDTH 989 0
DWIDTH 130 0
BBX 126 97 2 -2
BITMAP
FFFFF0000000000000000000003FFFFC
7FFFF8000000000000000000003FFFF8
7FFFFC000000000000000000007FFFF0
3FFFFC00000000000000000000FFFFF0
1FFFFE00000000000000000000FFFFE0
1FFFFE00000000000000000001FFFFC0
0FFFFF00000000000000000001FFFFC0
0FFFFF80000000000000000003FFFF80
07FFFF80000000000000000007FFFF00
03FFFFC0000000000000000007FFFF00
03FFFFC000000000000000000FFFFE00
01FFFFE000000000000000000FFFFE00
01FFFFF000000000000000001FFFFC00
00FFFFF000000000000000001FFFF800
007FFFF800000000000000003FFFF800
007FFFF800000000000000007FFFF000
003FFFFC00000000000000007FFFF000
003FFFFC0000000000000000FFFFE000
001FFFFE0000000000000000FFFFC000
000FFFFF0000000000000001FFFFC000
000FFFFF0000000000000003FFFF8000
0007FFFF8000000000000003FFFF8000
0007FFFF8000000000000007FFFF0000
0003FFFFC000000000000007FFFE0000
0001FFFFE00000000000000FFFFE0000
0001FFFFE00000000000001FFFFC0000
0000FFFFF00000000000001FFFFC0000
0000FFFFF00000000000003FFFF80000
00007FFFF80000000000003FFFF00000
00003FFFFC0000000000007FFFF00000
00003FFFFC0000000000007FFFE00000
00001FFFFE000000000000FFFFE00000
00001FFFFE000000000001FFFFC00000
00000FFFFF000000000001FFFF800000
000007FFFF000000000003FFFF800000
000007FFFF800000000003FFFF000000
000003FFFFC00000000007FFFF000000
000003FFFFC0000000000FFFFE000000
000001FFFFE0000000000FFFFC000000
000000FFFFE0000000001FFFFC000000
000000FFFFF0000000001FFFF8000000
0000007FFFF8000000003FFFF8000000
0000007FFFF8000000007FFFF0000000
0000003FFFFC000000007FFFE0000000
0000001FFFFC00000000FFFFE0000000
0000001FFFFE00000000FFFFC0000000
0000000FFFFF00000001FFFFC0000000
0000000FFFFF00000001FFFF80000000
00000007FFFF80000003FFFF00000000
00000003FFFF80000007FFFF00000000
00000003FFFFC0000007FFFE00000000
00000001FFFFE000000FFFFE00000000
00000001FFFFE000000FFFFC00000000
00000000FFFFF000001FFFF800000000
000000007FFFF000003FFFF800000000
000000007FFFF800003FFFF000000000
000000003FFFF800007FFFF000000000
000000003FFFFC00007FFFE000000000
000000001FFFFE0000FFFFC000000000
000000000FFFFE0001FFFFC000000000
000000000FFFFF0001FFFF8000000000
0000000007FFFF0003FFFF8000000000
0000000007FFFF8003FFFF0000000000
0000000003FFFFC007FFFE0000000000
0000000001FFFFC007FFFE0000000000
0000000001FFFFE00FFFFC0000000000
0000000000FFFFE01FFFFC0000000000
0000000000FFFFF01FFFF80000000000
00000000007FFFF83FFFF00000000000
00000000003FFFF83FFFF00000000000
00000000003FFFFC7FFFE00000000000
00000000001FFFFCFFFFE00000000000
00000000001FFFFEFFFFC00000000000
00000000000FFFFFFFFF800000000000
000000000007FFFFFFFF800000000000
000000000007FFFFFFFF000000000000
000000000003FFFFFFFF000000000000
000000000003FFFFFFFE000000000000
000000000001FFFFFFFC000000000000
000000000000FFFFFFFC000000000000
000000000000FFFFFFF8000000000000
0000000000007FFFFFF8000000000000
0000000000007FFFFFF0000000000000
0000000000003FFFFFE0000000000000
0000000000001FFFFFE0000000000000
0000000000001FFFFFC0000000000000
0000000000000FFFFFC0000000000000
0000000000000FFFFF80000000000000
00000000000007FFFF00000000000000
00000000000003FFFF00000000000000
00000000000003FFFE00000000000000
00000000000001FFFC00000000000000
00000000000001FFFC00000000000000
00000000000000FFF800000000000000
000000000000007FF000000000000000
000000000000001FE000000000000000
00000000000000020000000000000000
ENDCHAR
STARTCHAR W
ENCODING 87
SWIDTH 1268 0
DWIDTH 166 0
BBX 162 96 2 -1
BITMAP
FFFFF0000000FFFFF0000000000000000001FFFFC0
7FFFF80000007FFFF8000000000000000001FFFF80
7FFFF80000007FFFF8000000000000000003FFFF80
3FFFFC0000003FFFFC000000000000000003FFFF00
3FFFFC0000003FFFFC000000000000000007FFFF00
1FFFFE0000001FFFFE000000000000000007FFFE00
1FFFFE0000001FFFFE00000000000000000FFFFE00
0FFFFF0000000FFFFF00000000000000000FFFFC00
0FFFFF0000000FFFFF00000000000000001FFFFC00
07FFFF80000007FFFF80000000000000003FFFF800
03FFFF80000007FFFF80000000000000003FFFF000
03FFFFC0000003FFFFC0000000000000007FFFF000
01FFFFC0000003FFFFC0000000000000007FFFE000
01FFFFE0000001FFFFE000000000000000FFFFE000
00FFFFE0000001FFFFE000000000000000FFFFC000
00FFFFF0000000FFFFF000000000000001FFFFC000
007FFFF0000000FFFFF000000000000001FFFF8000
007FFFF80000007FFFF800000000000003FFFF8000
003FFFFC0000003FFFF800000000000003FFFF0000
003FFFFC0000003FFFFC00000000000007FFFF0000
001FFFFE0000001FFFFC00000000000007FFFE0000
001FFFFE0000001FFFFE0000000000000FFFFC0000
000FFFFF0000000FFFFE0000000000000FFFFC0000
0007FFFF0000000FFFFF0000000000001FFFF80000
0007FFFF80000007FFFF0000000000001FFFF80000
0003FFFF80000007FFFF8000000000003FFFF00000
0003FFFFC0000003FFFF8000000000007FFFF00000
0001FFFFC0000003FFFFC000000000007FFFE00000
0001FFFFE0000001FFFFC00000000000FFFFE00000
0000FFFFE0000001FFFFE00000000000FFFFC00000
0000FFFFF0000000FFFFE00000000001FFFFC00000
00007FFFF0000000FFFFF00000000001FFFF800000
00007FFFF80000007FFFF00000000003FFFF800000
00003FFFF80000007FFFF80000000003FFFF000000
00001FFFFC0000003FFFF80000000007FFFE000000
00001FFFFC0000003FFFFC0000000007FFFE000000
00000FFFFE0000001FFFFC000000000FFFFC000000
00000FFFFF0000001FFFFE000000000FFFFC000000
000007FFFF0000000FFFFE000000001FFFF8000000
000007FFFF8000000FFFFF000000001FFFF8000000
000003FFFF80000007FFFF000000003FFFF0000000
000003FFFFC0000007FFFF800000003FFFF0000000
000001FFFFC0000003FFFF800000007FFFE0000000
000001FFFFE0000001FFFFC0000000FFFFE0000000
000000FFFFE0000001FFFFC0000000FFFFC0000000
0000007FFFF0000000FFFFE0000001FFFF80000000
0000007FFFF0000000FFFFE0000001FFFF80000000
0000003FFFF80000007FFFF0000003FFFF00000000
0000003FFFF8000000FFFFF0000003FFFF00000000
0000001FFFFC000000FFFFF8000007FFFE00000000
0000001FFFFC000001FFFFF8000007FFFE00000000
0000000FFFFE000003FFFFFC00000FFFFC00000000
0000000FFFFE000003FFFFFC00000FFFFC00000000
00000007FFFF000007FFFFFE00001FFFF800000000
00000007FFFF000007FFFFFE00001FFFF800000000
00000003FFFF80000FFFFFFF00003FFFF000000000
00000003FFFFC0000FFFFFFF00003FFFF000000000
00000001FFFFC0001FFFFFFF80007FFFE000000000
00000000FFFFE0003FFFFFFF8000FFFFC000000000
00000000FFFFE0003FFFFFFFC000FFFFC000000000
000000007FFFF0007FFFFFFFC001FFFF8000000000
000000007FFFF0007FFFFFFFE001FFFF8000000000
000000003FFFF800FFFFFFFFE003FFFF0000000000
000000003FFFF800FFFFFFFFF003FFFF0000000000
000000001FFFFC01FFFF3FFFF007FFFE0000000000
000000001FFFFC01FFFF3FFFF807FFFE0000000000
000000000FFFFE03FFFE1FFFF80FFFFC0000000000
000000000FFFFE07FFFE1FFFFC0FFFFC0000000000
0000000007FFFF07FFFC0FFFFC1FFFF80000000000
0000000003FFFF0FFFFC0FFFFE1FFFF00000000000
0000000003FFFF8FFFF807FFFE3FFFF00000000000
0000000001FFFF9FFFF807FFFF3FFFE00000000000
0000000001FFFFDFFFF003FFFF7FFFE00000000000
0000000000FFFFFFFFF003FFFFFFFFC00000000000
0000000000FFFFFFFFE001FFFFFFFFC00000000000
00000000007FFFFFFFE000FFFFFFFF800000000000
00000000007FFFFFFFC000FFFFFFFF800000000000
00000000003FFFFFFF80007FFFFFFF000000000000
00000000003FFFFFFF80007FFFFFFF000000000000
00000000001FFFFFFF00003FFFFFFE000000000000
00000000001FFFFFFF00003FFFFFFC000000000000
00000000000FFFFFFE00001FFFFFFC000000000000
000000000007FFFFFE00001FFFFFF8000000000000
000000000007FFFFFC00000FFFFFF8000000000000
000000000003FFFFFC00000FFFFFF0000000000000
000000000003FFFFF8000007FFFFF0000000000000
000000000001FFFFF8000007FFFFE0000000000000
000000000001FFFFF0000003FFFFE0000000000000
000000000000FFFFF0000003FFFFC0000000000000
000000000000FFFFE0000001FFFFC0000000000000
0000000000007FFFC0000000FFFF80000000000000
0000000000007FFFC0000000FFFF00000000000000
0000000000003FFF800000007FFF00000000000000
0000000000001FFF000000003FFE00000000000000
0000000000000FFE000000001FF800000000000000
00000000000003F80000000007E000000000000000
ENDCHAR
STARTCHAR X
ENCODING 88
SWIDTH 1000 0
DWIDTH 131 0
BBX 124 95 3 0
BITMAP
0FFFFFE000000000000000003FFFFF00
07FFFFF000000000000000007FFFFE00
03FFFFF80000000000000000FFFFFC00
01FFFFFC0000000000000001FFFFF800
00FFFFFE0000000000000003FFFFF000
007FFFFF0000000000000007FFFFE000
003FFFFF800000000000000FFFFFC000
001FFFFFC00000000000001FFFFF0000
000FFFFFE00000000000003FFFFE0000
0007FFFFF00000000000007FFFFC0000
0003FFFFF8000000000000FFFFF80000
0001FFFFFC000000000001FFFFF00000
0000FFFFFE000000000003FFFFE00000
00007FFFFF000000000007FFFFC00000
00003FFFFF80000000000FFFFF800000
00001FFFFFC0000000001FFFFF000000
00000FFFFFE0000000003FFFFE000000
000007FFFFF0000000007FFFFC000000
000003FFFFF800000000FFFFF8000000
000001FFFFFC00000001FFFFF0000000
000000FFFFFE00000003FFFFE0000000
0000003FFFFF00000007FFFFC0000000
0000001FFFFF8000000FFFFF80000000
0000000FFFFFC000001FFFFF00000000
00000007FFFFE000003FFFFE00000000
00000003FFFFF000007FFFFC00000000
00000001FFFFF80000FFFFF800000000
00000000FFFFFC0001FFFFF000000000
000000007FFFFE0003FFFFE000000000
000000003FFFFF0007FFFFC000000000
000000001FFFFF800FFFFF8000000000
000000000FFFFFC01FFFFF0000000000
0000000007FFFFE03FFFFE0000000000
0000000003FFFFF07FFFFC0000000000
0000000001FFFFF8FFFFF80000000000
0000000000FFFFFDFFFFF00000000000
00000000007FFFFFFFFFE00000000000
00000000003FFFFFFFFFC00000000000
00000000001FFFFFFFFF800000000000
00000000000FFFFFFFFF000000000000
000000000007FFFFFFFE000000000000
000000000003FFFFFFFC000000000000
000000000001FFFFFFF8000000000000
000000000000FFFFFFF0000000000000
0000000000007FFFFFE0000000000000
0000000000003FFFFFC0000000000000
0000000000001FFFFF80000000000000
0000000000003FFFFFC0000000000000
0000000000007FFFFFE0000000000000
000000000000FFFFFFF0000000000000
000000000001FFFFFFF8000000000000
000000000003FFFFFFFC000000000000
000000000007FFFFFFFE000000000000
00000000001FFFFFFFFF000000000000
00000000003FFFFFFFFF800000000000
00000000007FFFFFFFFFC00000000000
0000000000FFFFFFFFFFE00000000000
0000000001FFFFF3FFFFF80000000000
0000000003FFFFE1FFFFFC0000000000
0000000007FFFFC0FFFFFE0000000000
000000000FFFFF807FFFFF0000000000
000000001FFFFF003FFFFF8000000000
000000003FFFFE001FFFFFC000000000
000000007FFFFC000FFFFFE000000000
00000000FFFFF80007FFFFF000000000
00000001FFFFF00003FFFFF800000000
00000003FFFFE00001FFFFFC00000000
00000007FFFFC00000FFFFFE00000000
0000000FFFFF8000007FFFFF00000000
0000001FFFFF0000003FFFFF80000000
0000003FFFFE0000001FFFFFC0000000
0000007FFFFC0000000FFFFFE0000000
000000FFFFF800000007FFFFF0000000
000003FFFFF000000001FFFFFC000000
000007FFFFE000000000FFFFFE000000
00000FFFFFC0000000007FFFFF000000
00001FFFFF80000000003FFFFF800000
00003FFFFF00000000001FFFFFC00000
00007FFFFE00000000000FFFFFE00000
0000FFFFFC000000000007FFFFF00000
0001FFFFF8000000000003FFFFF80000
0003FFFFE0000000000001FFFFFC0000
0007FFFFC0000000000000FFFFFE0000
000FFFFF800000000000007FFFFF0000
001FFFFF000000000000003FFFFF8000
003FFFFE000000000000001FFFFFC000
007FFFFC000000000000000FFFFFE000
00FFFFF80000000000000007FFFFF000
01FFFFF00000000000000003FFFFF800
03FFFFE00000000000000001FFFFFE00
07FFFFC00000000000000000FFFFFF00
0FFFFF8000000000000000007FFFFF80
3FFFFF0000000000000000003FFFFFC0
7FFFFE0000000000000000001FFFFFE0
FFFFFC0000000000000000000FFFFFF0
ENDCHAR
STARTCHAR Y
ENCODING 89
SWIDTH 926 0
DWIDTH 121 0
BBX 118 95 2 0
BITMAP
FFFFFE000000000000000000FFFFFC
7FFFFE000000000000000001FFFFF0
3FFFFF000000000000000003FFFFE0
1FFFFF800000000000000007FFFFE0
0FFFFFC00000000000000007FFFFC0
0FFFFFE0000000000000000FFFFF80
07FFFFF0000000000000001FFFFF00
03FFFFF0000000000000003FFFFE00
01FFFFF8000000000000007FFFFC00
00FFFFFC00000000000000FFFFFC00
007FFFFE00000000000000FFFFF800
007FFFFF00000000000001FFFFF000
003FFFFF80000000000003FFFFE000
001FFFFF80000000000007FFFFC000
000FFFFFC000000000000FFFFF8000
0007FFFFE000000000001FFFFF0000
0003FFFFF000000000001FFFFF0000
0001FFFFF800000000003FFFFE0000
0001FFFFFC00000000007FFFFC0000
0000FFFFFC0000000000FFFFF80000
00007FFFFE0000000001FFFFF00000
00003FFFFF0000000003FFFFE00000
00001FFFFF8000000003FFFFC00000
00000FFFFFC000000007FFFFC00000
000007FFFFC00000000FFFFF800000
000007FFFFE00000001FFFFF000000
000003FFFFF00000003FFFFE000000
000001FFFFF80000007FFFFC000000
000000FFFFFC0000007FFFF8000000
0000007FFFFE000000FFFFF0000000
0000003FFFFE000001FFFFF0000000
0000003FFFFF000003FFFFE0000000
0000001FFFFF800007FFFFC0000000
0000000FFFFFC0000FFFFF80000000
00000007FFFFE0000FFFFF00000000
00000003FFFFF0001FFFFE00000000
00000001FFFFF0003FFFFE00000000
00000000FFFFF8007FFFFC00000000
00000000FFFFFC00FFFFF800000000
000000007FFFFE01FFFFF000000000
000000003FFFFF01FFFFE000000000
000000001FFFFF83FFFFC000000000
000000000FFFFF87FFFF8000000000
0000000007FFFFCFFFFF8000000000
0000000003FFFFFFFFFF0000000000
0000000003FFFFFFFFFE0000000000
0000000001FFFFFFFFFC0000000000
0000000000FFFFFFFFF80000000000
00000000007FFFFFFFF00000000000
00000000003FFFFFFFE00000000000
00000000001FFFFFFFE00000000000
00000000001FFFFFFFC00000000000
00000000000FFFFFFF800000000000
000000000007FFFFFF000000000000
000000000003FFFFFE000000000000
000000000001FFFFFC000000000000
000000000000FFFFF8000000000000
0000000000007FFFF8000000000000
0000000000007FFFF0000000000000
0000000000003FFFE0000000000000
0000000000003FFFE0000000000000
0000000000003FFFE0000000000000
0000000000003FFFE0000000000000
0000000000003FFFE0000000000000
0000000000003FFFE0000000000000
0000000000003FFFE0000000000000
0000000000003FFFE0000000000000
0000000000003FFFE0000000000000
0000000000003FFFE0000000000000
0000000000003FFFE0000000000000
0000000000003FFFE0000000000000
0000000000003FFFE0000000000000
0000000000003FFFE0000000000000
0000000000003FFFE0000000000000
0000000000003FFFE0000000000000
0000000000003FFFE0000000000000
0000000000003FFFE0000000000000
0000000000003FFFE0000000000000
0000000000003FFFE0000000000000
0000000000003FFFE0000000000000
0000000000003FFFE0000000000000
0000000000003FFFE0000000000000
0000000000003FFFE0000000000000
0000000000003FFFE0000000000000
0000000000003FFFE0000000000000
0000000000003FFFE0000000000000
0000000000003FFFE0000000000000
0000000000003FFFE0000000000000
0000000000003FFFE0000000000000
0000000000003FFFE0000000000000
0000000000003FFFE0000000000000
0000000000003FFFE0000000000000
0000000000003FFFE0000000000000
0000000000003FFFE0000000000000
0000000000003FFFE0000000000000
ENDCHAR
STARTCHAR Z
ENCODING 90
SWIDTH 802 0
DWIDTH 105 0
BBX 94 95 5 0
BITMAP
7FFFFFFFFFFFFFFFFFFFFF00
7FFFFFFFFFFFFFFFFFFFFFC0
7FFFFFFFFFFFFFFFFFFFFFF0
7FFFFFFFFFFFFFFFFFFFFFF8
7FFFFFFFFFFFFFFFFFFFFFF8
7FFFFFFFFFFFFFFFFFFFFFFC
7FFFFFFFFFFFFFFFFFFFFFFC
7FFFFFFFFFFFFFFFFFFFFFFC
7FFFFFFFFFFFFFFFFFFFFFFC
7FFFFFFFFFFFFFFFFFFFFFFC
7FFFFFFFFFFFFFFFFFFFFFFC
7FFFFFFFFFFFFFFFFFFFFFFC
7FFFFFFFFFFFFFFFFFFFFFF8
7FFFFFFFFFFFFFFFFFFFFFF0
7FFFFFFFFFFFFFFFFFFFFFF0
7FFFFFFFFFFFFFFFFFFFFFE0
00000000000000003FFFFFC0
00000000000000007FFFFF80
0000000000000000FFFFFF00
0000000000000001FFFFFE00
0000000000000003FFFFFC00
0000000000000007FFFFF800
000000000000000FFFFFF000
000000000000001FFFFFE000
000000000000003FFFFFC000
000000000000007FFFFF8000
00000000000000FFFFFF0000
00000000000001FFFFFE0000
00000000000003FFFFFC0000
00000000000007FFFFF80000
0000000000000FFFFFF00000
0000000000001FFFFFE00000
0000000000003FFFFFC00000
0000000000007FFFFF800000
000000000000FFFFFF000000
000000000001FFFFFE000000
000000000003FFFFFC000000
000000000007FFFFF8000000
00000000000FFFFFF0000000
00000000001FFFFFE0000000
00000000003FFFFFC0000000
00000000007FFFFF80000000
0000000000FFFFFF00000000
0000000001FFFFFE00000000
0000000001FFFFFC00000000
0000000003FFFFF800000000
0000000007FFFFF000000000
000000000FFFFFE000000000
000000001FFFFFC000000000
000000003FFFFF8000000000
000000007FFFFF0000000000
00000000FFFFFE0000000000
00000001FFFFFC0000000000
00000003FFFFF80000000000
00000007FFFFF00000000000
0000000FFFFFE00000000000
0000001FFFFFC00000000000
0000003FFFFF800000000000
0000007FFFFF000000000000
000000FFFFFE000000000000
000001FFFFFC000000000000
000003FFFFF8000000000000
000007FFFFF0000000000000
00000FFFFFE0000000000000
00001FFFFFC0000000000000
00003FFFFF80000000000000
00007FFFFF00000000000000
0000FFFFFE00000000000000
0001FFFFFC00000000000000
0003FFFFF800000000000000
0007FFFFF000000000000000
000FFFFFE000000000000000
001FFFFFC000000000000000
003FFFFF8000000000000000
007FFFFF0000000000000000
00FFFFFE0000000000000000
01FFFFFC0000000000000000
03FFFFF80000000000000000
07FFFFF00000000000000000
0FFFFFFFFFFFFFFFFFFFFFFC
1FFFFFFFFFFFFFFFFFFFFFFC
3FFFFFFFFFFFFFFFFFFFFFFC
7FFFFFFFFFFFFFFFFFFFFFFC
7FFFFFFFFFFFFFFFFFFFFFFC
FFFFFFFFFFFFFFFFFFFFFFFC
FFFFFFFFFFFFFFFFFFFFFFFC
FFFFFFFFFFFFFFFFFFFFFFFC
FFFFFFFFFFFFFFFFFFFFFFFC
FFFFFFFFFFFFFFFFFFFFFFFC
7FFFFFFFFFFFFFFFFFFFFFFC
7FFFFFFFFFFFFFFFFFFFFFFC
3FFFFFFFFFFFFFFFFFFFFFFC
1FFFFFFFFFFFFFFFFFFFFFFC
0FFFFFFFFFFFFFFFFFFFFFFC
03FFFFFFFFFFFFFFFFFFFFFC
ENDCHAR
STARTCHAR bracketleft
ENCODING 91
SWIDTH 333 0
DWIDTH 44 0
BBX 22 120 13 -12
BITMAP
FFFFFC
FFFFFC
FFFFFC
FFFFFC
FFFFFC
FFFFFC
FFFFFC
FFFFFC
FFFFFC
FFFFFC
FFFFFC
FFE000
FFE000
FFE000
FFE000
FFE000
FFE000
FFE000
FFE000
FFE000
FFE000
FFE000
FFE000
FFE000
FFE000
FFE000
FFE000
FFE000
FFE000
FFE000
FFE000
FFE000
FFE000
FFE000
FFE000
FFE000
FFE000
FFE000
FFE000
FFE000
FFE000
FFE000
FFE000
FFE000
FFE000
FFE000
FFE000
FFE000
FFE000
FFE000
FFE000
FFE000
FFE000
FFE000
FFE000
FFE000
FFE000
FFE000
FFE000
FFE000
FFE000
FFE000
FFE000
FFE000
FFE000
FFE000
FFE000
FFE000
FFE000
FFE000
FFE000
FFE000
FFE000
FFE000
FFE000
FFE000
FFE000
FFE000
FFE000
FFE000
FFE000
FFE000
FFE000
FFE000
FFE000
FFE000
FFE000
FFE000
FFE000
FFE000
FFE000
FFE000
FFE000
FFE000
FFE000
FFE000
FFE000
FFE000
FFE000
FFE000
FFE000
FFE000
FFE000
FFE000
FFE000
FFE000
FFE000
FFE000
FFE000
FFFFFC
FFFFFC
FFFFFC
FFFFFC
FFFFFC
FFFFFC
FFFFFC
FFFFFC
FFFFFC
FFFFFC
FFFFFC
ENDCHAR
STARTCHAR backslash
ENCODING 92
SWIDTH 445 0
DWIDTH 58 0
BBX 56 95 1 0
BITMAP
FFF00000000000
7FF00000000000
7FF00000000000
3FF80000000000
3FF80000000000
1FFC0000000000
1FFC0000000000
0FFE0000000000
0FFE0000000000
07FF0000000000
07FF0000000000
03FF8000000000
03FF8000000000
01FFC000000000
01FFC000000000
00FFE000000000
00FFE000000000
00FFF000000000
007FF000000000
007FF000000000
003FF800000000
003FF800000000
001FFC00000000
001FFC00000000
000FFE00000000
000FFE00000000
0007FF00000000
0007FF00000000
0003FF80000000
0003FF80000000
0003FFC0000000
0001FFC0000000
0001FFE0000000
0000FFE0000000
0000FFF0000000
00007FF0000000
00007FF0000000
00003FF8000000
00003FF8000000
00001FFC000000
00001FFC000000
00000FFE000000
00000FFE000000
000007FF000000
000007FF000000
000007FF800000
000003FF800000
000003FFC00000
000001FFC00000
000001FFE00000
000000FFE00000
000000FFF00000
0000007FF00000
0000007FF00000
0000003FF80000
0000003FF80000
0000001FFC0000
0000001FFC0000
0000001FFE0000
0000000FFE0000
0000000FFF0000
00000007FF0000
00000007FF8000
00000003FF8000
00000003FFC000
00000001FFC000
00000001FFE000
00000000FFE000
00000000FFF000
000000007FF000
000000007FF000
000000003FF800
000000003FF800
000000003FFC00
000000001FFC00
000000001FFE00
000000000FFE00
000000000FFF00
0000000007FF00
0000000007FF80
0000000003FF80
0000000003FFC0
0000000001FFC0
0000000001FFE0
0000000000FFE0
0000000000FFF0
0000000000FFF0
00000000007FF0
00000000007FF8
00000000003FF8
00000000003FFC
00000000001FFC
00000000001FFE
00000000000FFE
00000000000FFF
ENDCHAR
STARTCHAR bracketright
ENCODING 93
SWIDTH 333 0
DWIDTH 44 0
BBX 23 120 8 -12
BITMAP
FFFFFE
FFFFFE
FFFFFE
FFFFFE
FFFFFE
FFFFFE
FFFFFE
FFFFFE
FFFFFE
FFFFFE
FFFFFE
000FFE
000FFE
000FFE
000FFE
000FFE
000FFE
000FFE
000FFE
000FFE
000FFE
000FFE
000FFE
000FFE
000FFE
000FFE
000FFE
000FFE
000FFE
000FFE
000FFE
000FFE
000FFE
000FFE
000FFE
000FFE
000FFE
000FFE
000FFE
000FFE
000FFE
000FFE
000FFE
000FFE
000FFE
000FFE
000FFE
000FFE
000FFE
000FFE
000FFE
000FFE
000FFE
000FFE
000FFE
000FFE
000FFE
000FFE
000FFE
000FFE
000FFE
000FFE
000FFE
000FFE
000FFE
000FFE
000FFE
000FFE
000FFE
000FFE
000FFE
000FFE
000FFE
000FFE
000FFE
000FFE
000FFE
000FFE
000FFE
000FFE
000FFE
000FFE
000FFE
000FFE
000FFE
000FFE
000FFE
000FFE
000FFE
000FFE
000FFE
000FFE
000FFE
000FFE
000FFE
000FFE
000FFE
000FFE
000FFE
000FFE
000FFE
000FFE
000FFE
000FFE
000FFE
000FFE
000FFE
000FFE
000FFE
FFFFFE
FFFFFE
FFFFFE
FFFFFE
FFFFFE
FFFFFE
FFFFFE
FFFFFE
FFFFFE
FFFFFE
FFFFFE
ENDCHAR
STARTCHAR asciicircum
ENCODING 94
SWIDTH 559 0
DWIDTH 73 0
BBX 57 57 8 38
BITMAP
0000003E00000000
0000007F80000000
000000FFC0000000
000001FFC0000000
000001FFE0000000
000003FFE0000000
000003FFF0000000
000007FFF0000000
000007FFF8000000
00000FFFF8000000
00000FFFFC000000
00000FFFFC000000
00001FFFFC000000
00001FFFFE000000
00003FF7FE000000
00003FF7FF000000
00003FF3FF000000
00007FE3FF000000
00007FE3FF800000
0000FFC1FF800000
0000FFC1FFC00000
0001FFC0FFC00000
0001FF80FFE00000
0001FF80FFE00000
0003FF007FE00000
0003FF007FF00000
0007FF003FF00000
0007FE003FF80000
000FFE003FF80000
000FFC001FF80000
000FFC001FFC0000
001FFC000FFC0000
001FF8000FFE0000
003FF8000FFE0000
003FF00007FF0000
007FF00007FF0000
007FF00003FF0000
007FE00003FF8000
00FFE00003FF8000
00FFC00001FFC000
01FFC00001FFC000
01FFC00000FFC000
03FF800000FFE000
03FF800000FFE000
03FF0000007FF000
07FF0000007FF000
07FF0000003FF800
0FFE0000003FF800
0FFE0000003FF800
1FFC0000001FFC00
1FFC0000001FFC00
1FFC0000000FFE00
3FF80000000FFE00
3FF80000000FFF00
7FF000000007FF00
7FF000000007FF00
FFF000000007FF80
ENDCHAR
STARTCHAR underscore
ENCODING 95
SWIDTH 668 0
DWIDTH 88 0
BBX 89 8 0 -21
BITMAP
FFFFFFFFFFFFFFFFFFFFFF80
FFFFFFFFFFFFFFFFFFFFFF80
FFFFFFFFFFFFFFFFFFFFFF80
FFFFFFFFFFFFFFFFFFFFFF80
FFFFFFFFFFFFFFFFFFFFFF80
FFFFFFFFFFFFFFFFFFFFFF80
FFFFFFFFFFFFFFFFFFFFFF80
FFFFFFFFFFFFFFFFFFFFFF80
ENDCHAR
STARTCHAR grave
ENCODING 96
SWIDTH 362 0
DWIDTH 47 0
BBX 33 17 7 101
BITMAP
E000000000
FC00000000
FFC0000000
FFF8000000
FFFF000000
FFFFF00000
FFFFFE0000
FFFFFFC000
FFFFFFFC00
FFFFFFFF80
1FFFFFFF80
01FFFFFF80
000FFFFF80
00007FFF80
000007FF80
0000003F80
0000000180
ENDCHAR
STARTCHAR a
ENCODING 97
SWIDTH 989 0
DWIDTH 130 0
BBX 126 97 2 0
BITMAP
00000000000000020000000000000000
000000000000001FE000000000000000
000000000000007FF000000000000000
00000000000000FFF800000000000000
00000000000001FFFC00000000000000
00000000000001FFFC00000000000000
00000000000003FFFE00000000000000
00000000000003FFFF00000000000000
00000000000007FFFF00000000000000
0000000000000FFFFF80000000000000
0000000000000FFFFF80000000000000
0000000000001FFFFFC0000000000000
0000000000001FFFFFE0000000000000
0000000000003FFFFFE0000000000000
0000000000007FFFFFF0000000000000
0000000000007FFFFFF8000000000000
000000000000FFFFFFF8000000000000
000000000000FFFFFFFC000000000000
000000000001FFFFFFFC000000000000
000000000003FFFFFFFE000000000000
000000000003FFFFFFFF000000000000
000000000007FFFFFFFF000000000000
000000000007FFFFFFFF800000000000
00000000000FFFFFFFFF800000000000
00000000001FFFFFFFFFC00000000000
00000000001FFFF9FFFFE00000000000
00000000003FFFF9FFFFE00000000000
00000000003FFFF0FFFFF00000000000
00000000007FFFF0FFFFF00000000000
0000000000FFFFE07FFFF80000000000
0000000000FFFFC03FFFFC0000000000
0000000001FFFFC03FFFFC0000000000
0000000001FFFF801FFFFE0000000000
0000000003FFFF801FFFFE0000000000
0000000007FFFF000FFFFF0000000000
0000000007FFFF0007FFFF8000000000
000000000FFFFE0007FFFF8000000000
000000000FFFFC0003FFFFC000000000
000000001FFFFC0003FFFFC000000000
000000003FFFF80001FFFFE000000000
000000003FFFF80000FFFFF000000000
000000007FFFF00000FFFFF000000000
000000007FFFE000007FFFF800000000
00000000FFFFE000007FFFF800000000
00000001FFFFC000003FFFFC00000000
00000001FFFFC000001FFFFE00000000
00000003FFFF8000001FFFFE00000000
00000003FFFF0000000FFFFF00000000
00000007FFFF0000000FFFFF00000000
0000000FFFFE00000007FFFF80000000
0000000FFFFE00000003FFFFC0000000
0000001FFFFC00000003FFFFC0000000
0000001FFFF800000001FFFFE0000000
0000003FFFF800000001FFFFE0000000
0000007FFFF000000000FFFFF0000000
0000007FFFF0000000007FFFF8000000
000000FFFFE0000000007FFFF8000000
000000FFFFC0000000003FFFFC000000
000001FFFFC0000000003FFFFC000000
000003FFFF80000000001FFFFE000000
000003FFFF8003FFFFFFFFFFFF000000
000007FFFF0007FFFFFFFFFFFF000000
000007FFFE0007FFFFFFFFFFFF800000
00000FFFFE000FFFFFFFFFFFFF800000
00001FFFFC001FFFFFFFFFFFFFC00000
00001FFFFC001FFFFFFFFFFFFFE00000
00003FFFF8003FFFFFFFFFFFFFE00000
00003FFFF0003FFFFFFFFFFFFFF00000
00007FFFF0007FFFFFFFFFFFFFF00000
0000FFFFE000FFFFFFFFFFFFFFF80000
0000FFFFE000FFFFFFFFFFFFFFFC0000
0001FFFFC001FFFFFFFFFFFFFFFC0000
0001FFFF8003FFFFFFFFFFFFFFFE0000
0003FFFF800000000000000FFFFE0000
0007FFFF000000000000000FFFFF0000
0007FFFF0000000000000007FFFF8000
000FFFFE0000000000000007FFFF8000
000FFFFC0000000000000003FFFFC000
001FFFFC0000000000000001FFFFC000
003FFFF80000000000000001FFFFE000
003FFFF80000000000000000FFFFF000
007FFFF00000000000000000FFFFF000
007FFFE000000000000000007FFFF800
00FFFFE000000000000000003FFFF800
01FFFFC000000000000000003FFFFC00
01FFFFC000000000000000001FFFFE00
03FFFF8000000000000000001FFFFE00
03FFFF8000000000000000000FFFFF00
07FFFF0000000000000000000FFFFF00
0FFFFE00000000000000000007FFFF80
0FFFFE00000000000000000003FFFFC0
1FFFFC00000000000000000003FFFFC0
1FFFFC00000000000000000001FFFFE0
3FFFF800000000000000000001FFFFE0
7FFFF000000000000000000000FFFFF0
7FFFF0000000000000000000007FFFF8
FFFFE0000000000000000000007FFFFC
ENDCHAR
STARTCHAR b
ENCODING 98
SWIDTH 891 0
DWIDTH 117 0
BBX 102 95 8 0
BITMAP
FFFFFFFFFFFFFFFFFFF8000000
FFFFFFFFFFFFFFFFFFFFC00000
FFFFFFFFFFFFFFFFFFFFF80000
FFFFFFFFFFFFFFFFFFFFFF0000
FFFFFFFFFFFFFFFFFFFFFFC000
FFFFFFFFFFFFFFFFFFFFFFE000
FFFFFFFFFFFFFFFFFFFFFFF800
FFFFFFFFFFFFFFFFFFFFFFFC00
FFFFFFFFFFFFFFFFFFFFFFFE00
FFFFFFFFFFFFFFFFFFFFFFFF00
FFFFFFFFFFFFFFFFFFFFFFFF00
FFFFFFFFFFFFFFFFFFFFFFFF80
FFFFFFFFFFFFFFFFFFFFFFFFC0
FFFFFFFFFFFFFFFFFFFFFFFFC0
FFFFFFFFFFFFFFFFFFFFFFFFE0
FFFFFFFFFFFFFFFFFFFFFFFFE0
FFFFFFFFFFFFFFFFFFFFFFFFE0
FFFF800000000000001FFFFFF0
FFFF8000000000000003FFFFF0
FFFF8000000000000000FFFFF0
FFFF80000000000000007FFFF0
FFFF80000000000000003FFFF8
FFFF80000000000000001FFFF8
FFFF80000000000000001FFFF8
FFFF80000000000000001FFFF8
FFFF80000000000000000FFFF8
FFFF80000000000000000FFFF8
FFFF80000000000000000FFFF8
FFFF80000000000000000FFFF8
FFFF80000000000000000FFFF0
FFFF80000000000000000FFFF0
FFFF80000000000000000FFFF0
FFFF80000000000000001FFFF0
FFFF80000000000000001FFFE0
FFFF80000000000000001FFFE0
FFFF80000000000000003FFFE0
FFFF80000000000000007FFFC0
FFFF8000000000000000FFFFC0
FFFF8000000000000001FFFF80
FFFF800000000000001FFFFF00
FFFF8007FFFFFFFFFFFFFFFE00
FFFF8007FFFFFFFFFFFFFFFC00
FFFF8007FFFFFFFFFFFFFFF800
FFFF8007FFFFFFFFFFFFFFE000
FFFF8007FFFFFFFFFFFFFF8000
FFFF8007FFFFFFFFFFFFFF8000
FFFF8007FFFFFFFFFFFFFFE000
FFFF8007FFFFFFFFFFFFFFF800
FFFF8007FFFFFFFFFFFFFFFC00
FFFF8007FFFFFFFFFFFFFFFE00
FFFF8007FFFFFFFFFFFFFFFF00
FFFF8007FFFFFFFFFFFFFFFF80
FFFF8007FFFFFFFFFFFFFFFFC0
FFFF8007FFFFFFFFFFFFFFFFE0
FFFF800000000000000FFFFFE0
FFFF8000000000000001FFFFF0
FFFF80000000000000007FFFF8
FFFF80000000000000003FFFF8
FFFF80000000000000001FFFF8
FFFF80000000000000000FFFFC
FFFF80000000000000000FFFFC
FFFF800000000000000007FFFC
FFFF800000000000000007FFFC
FFFF800000000000000007FFFC
FFFF800000000000000007FFFC
FFFF800000000000000003FFFC
FFFF800000000000000003FFFC
FFFF800000000000000007FFFC
FFFF800000000000000007FFFC
FFFF800000000000000007FFFC
FFFF800000000000000007FFFC
FFFF80000000000000000FFFFC
FFFF80000000000000000FFFFC
FFFF80000000000000001FFFFC
FFFF80000000000000003FFFF8
FFFF8000000000000000FFFFF8
FFFF8000000000000003FFFFF8
FFFF800000000000003FFFFFF8
FFFFFFFFFFFFFFFFFFFFFFFFF0
FFFFFFFFFFFFFFFFFFFFFFFFF0
FFFFFFFFFFFFFFFFFFFFFFFFE0
FFFFFFFFFFFFFFFFFFFFFFFFE0
FFFFFFFFFFFFFFFFFFFFFFFFC0
FFFFFFFFFFFFFFFFFFFFFFFF80
FFFFFFFFFFFFFFFFFFFFFFFF80
FFFFFFFFFFFFFFFFFFFFFFFF00
FFFFFFFFFFFFFFFFFFFFFFFE00
FFFFFFFFFFFFFFFFFFFFFFFC00
FFFFFFFFFFFFFFFFFFFFFFF800
FFFFFFFFFFFFFFFFFFFFFFE000
FFFFFFFFFFFFFFFFFFFFFFC000
FFFFFFFFFFFFFFFFFFFFFF0000
FFFFFFFFFFFFFFFFFFFFFC0000
FFFFFFFFFFFFFFFFFFFFE00000
FFFFFFFFFFFFFFFFFFFC000000
ENDCHAR
STARTCHAR c
ENCODING 99
SWIDTH 829 0
DWIDTH 109 0
BBX 98 95 5 0
BITMAP
0000000001FFFFFFFFFFFFFFC0
000000003FFFFFFFFFFFFFFFC0
00000001FFFFFFFFFFFFFFFFC0
0000000FFFFFFFFFFFFFFFFFC0
0000003FFFFFFFFFFFFFFFFFC0
000000FFFFFFFFFFFFFFFFFFC0
000003FFFFFFFFFFFFFFFFFFC0
00000FFFFFFFFFFFFFFFFFFFC0
00001FFFFFFFFFFFFFFFFFFFC0
00007FFFFFFFFFFFFFFFFFFFC0
0000FFFFFFFFFFFFFFFFFFFFC0
0001FFFFFFFFFFFFFFFFFFFFC0
0003FFFFFFFFFFFFFFFFFFFFC0
0007FFFFFFFFFFFFFFFFFFFFC0
000FFFFFFFFFFFFFFFFFFFFFC0
001FFFFFFFFFFFFFFFFFFFFFC0
003FFFFFFFFFFFFFFFFFFFFFC0
007FFFFFFE0000000000000000
007FFFFFF00000000000000000
00FFFFFFC00000000000000000
01FFFFFF000000000000000000
01FFFFFC000000000000000000
03FFFFF8000000000000000000
03FFFFE0000000000000000000
07FFFFC0000000000000000000
07FFFF80000000000000000000
0FFFFF00000000000000000000
0FFFFF00000000000000000000
0FFFFE00000000000000000000
1FFFFC00000000000000000000
1FFFF800000000000000000000
1FFFF800000000000000000000
3FFFF000000000000000000000
3FFFF000000000000000000000
3FFFF000000000000000000000
3FFFE000000000000000000000
7FFFE000000000000000000000
7FFFC000000000000000000000
7FFFC000000000000000000000
7FFFC000000000000000000000
7FFFC000000000000000000000
7FFFC000000000000000000000
7FFF8000000000000000000000
7FFF8000000000000000000000
7FFF8000000000000000000000
FFFF8000000000000000000000
FFFF8000000000000000000000
FFFF8000000000000000000000
7FFF8000000000000000000000
7FFF8000000000000000000000
7FFF8000000000000000000000
7FFF8000000000000000000000
7FFF8000000000000000000000
7FFFC000000000000000000000
7FFFC000000000000000000000
7FFFC000000000000000000000
7FFFC000000000000000000000
3FFFE000000000000000000000
3FFFE000000000000000000000
3FFFE000000000000000000000
3FFFF000000000000000000000
1FFFF000000000000000000000
1FFFF800000000000000000000
1FFFF800000000000000000000
1FFFFC00000000000000000000
0FFFFC00000000000000000000
0FFFFE00000000000000000000
07FFFF00000000000000000000
07FFFF80000000000000000000
03FFFF80000000000000000000
03FFFFC0000000000000000000
01FFFFF0000000000000000000
01FFFFF8000000000000000000
00FFFFFC000000000000000000
00FFFFFF000000000000000000
007FFFFFC00000000000000000
003FFFFFF00000000000000000
001FFFFFFE0000000000000000
001FFFFFFFFFFFFFFFFFFFFFC0
000FFFFFFFFFFFFFFFFFFFFFC0
0007FFFFFFFFFFFFFFFFFFFFC0
0003FFFFFFFFFFFFFFFFFFFFC0
0001FFFFFFFFFFFFFFFFFFFFC0
0000FFFFFFFFFFFFFFFFFFFFC0
00007FFFFFFFFFFFFFFFFFFFC0
00001FFFFFFFFFFFFFFFFFFFC0
00000FFFFFFFFFFFFFFFFFFFC0
000007FFFFFFFFFFFFFFFFFFC0
000001FFFFFFFFFFFFFFFFFFC0
0000007FFFFFFFFFFFFFFFFFC0
0000001FFFFFFFFFFFFFFFFFC0
00000007FFFFFFFFFFFFFFFFC0
00000001FFFFFFFFFFFFFFFFC0
000000001FFFFFFFFFFFFFFFC0
0000000001FFFFFFFFFFFFFFC0
ENDCHAR
STARTCHAR d
ENCODING 100
SWIDTH 879 0
DWIDTH 115 0
BBX 102 95 8 0
BITMAP
FFFFFFFFFFFFFFFE0000000000
FFFFFFFFFFFFFFFFF000000000
FFFFFFFFFFFFFFFFFF00000000
FFFFFFFFFFFFFFFFFFC0000000
FFFFFFFFFFFFFFFFFFF8000000
FFFFFFFFFFFFFFFFFFFE000000
FFFFFFFFFFFFFFFFFFFF000000
FFFFFFFFFFFFFFFFFFFFC00000
FFFFFFFFFFFFFFFFFFFFE00000
FFFFFFFFFFFFFFFFFFFFF80000
FFFFFFFFFFFFFFFFFFFFFC0000
FFFFFFFFFFFFFFFFFFFFFE0000
FFFFFFFFFFFFFFFFFFFFFF0000
FFFFFFFFFFFFFFFFFFFFFF8000
FFFFFFFFFFFFFFFFFFFFFFC000
FFFFFFFFFFFFFFFFFFFFFFE000
FFFFFFFFFFFFFFFFFFFFFFF000
FFFF800000000001FFFFFFF800
FFFF8000000000003FFFFFF800
FFFF80000000000007FFFFFC00
FFFF80000000000003FFFFFE00
FFFF80000000000000FFFFFE00
FFFF800000000000003FFFFF00
FFFF800000000000001FFFFF00
FFFF800000000000000FFFFF80
FFFF8000000000000007FFFF80
FFFF8000000000000003FFFFC0
FFFF8000000000000001FFFFC0
FFFF8000000000000001FFFFE0
FFFF8000000000000000FFFFE0
FFFF80000000000000007FFFE0
FFFF80000000000000007FFFF0
FFFF80000000000000003FFFF0
FFFF80000000000000003FFFF0
FFFF80000000000000001FFFF0
FFFF80000000000000001FFFF8
FFFF80000000000000001FFFF8
FFFF80000000000000000FFFF8
FFFF80000000000000000FFFF8
FFFF80000000000000000FFFF8
FFFF80000000000000000FFFF8
FFFF800000000000000007FFFC
FFFF800000000000000007FFFC
FFFF800000000000000007FFFC
FFFF800000000000000007FFFC
FFFF800000000000000007FFFC
FFFF800000000000000007FFFC
FFFF800000000000000007FFFC
FFFF800000000000000007FFFC
FFFF800000000000000007FFFC
FFFF800000000000000007FFFC
FFFF800000000000000007FFFC
FFFF800000000000000007FFF8
FFFF800000000000000007FFF8
FFFF80000000000000000FFFF8
FFFF80000000000000000FFFF8
FFFF80000000000000000FFFF8
FFFF80000000000000000FFFF8
FFFF80000000000000001FFFF0
FFFF80000000000000001FFFF0
FFFF80000000000000001FFFF0
FFFF80000000000000003FFFF0
FFFF80000000000000003FFFE0
FFFF80000000000000007FFFE0
FFFF80000000000000007FFFE0
FFFF8000000000000000FFFFC0
FFFF8000000000000001FFFFC0
FFFF8000000000000003FFFFC0
FFFF8000000000000003FFFF80
FFFF8000000000000007FFFF80
FFFF800000000000000FFFFF00
FFFF800000000000001FFFFF00
FFFF800000000000007FFFFE00
FFFF80000000000000FFFFFC00
FFFF80000000000003FFFFFC00
FFFF8000000000000FFFFFF800
FFFF8000000000003FFFFFF000
FFFF800000000001FFFFFFF000
FFFFFFFFFFFFFFFFFFFFFFE000
FFFFFFFFFFFFFFFFFFFFFFC000
FFFFFFFFFFFFFFFFFFFFFF8000
FFFFFFFFFFFFFFFFFFFFFF0000
FFFFFFFFFFFFFFFFFFFFFE0000
FFFFFFFFFFFFFFFFFFFFFC0000
FFFFFFFFFFFFFFFFFFFFF80000
FFFFFFFFFFFFFFFFFFFFF00000
FFFFFFFFFFFFFFFFFFFFC00000
FFFFFFFFFFFFFFFFFFFF800000
FFFFFFFFFFFFFFFFFFFE000000
FFFFFFFFFFFFFFFFFFFC000000
FFFFFFFFFFFFFFFFFFF0000000
FFFFFFFFFFFFFFFFFFC0000000
FFFFFFFFFFFFFFFFFE00000000
FFFFFFFFFFFFFFFFF000000000
FFFFFFFFFFFFFFFC0000000000
ENDCHAR
STARTCHAR e
ENCODING 101
SWIDTH 759 0
DWIDTH 99 0
BBX 85 95 8 0
BITMAP
FFFFFFFFFFFFFFFFFFFFF8
FFFFFFFFFFFFFFFFFFFFF8
FFFFFFFFFFFFFFFFFFFFF8
FFFFFFFFFFFFFFFFFFFFF8
FFFFFFFFFFFFFFFFFFFFF8
FFFFFFFFFFFFFFFFFFFFF8
FFFFFFFFFFFFFFFFFFFFF8
FFFFFFFFFFFFFFFFFFFFF8
FFFFFFFFFFFFFFFFFFFFF8
FFFFFFFFFFFFFFFFFFFFF8
FFFFFFFFFFFFFFFFFFFFF8
FFFFFFFFFFFFFFFFFFFFF8
FFFFFFFFFFFFFFFFFFFFF8
FFFFFFFFFFFFFFFFFFFFF8
FFFFFFFFFFFFFFFFFFFFF8
FFFFFFFFFFFFFFFFFFFFF8
FFFFFFFFFFFFFFFFFFFFF8
FFFF800000000000000000
FFFF800000000000000000
FFFF800000000000000000
FFFF800000000000000000
FFFF800000000000000000
FFFF800000000000000000
FFFF800000000000000000
FFFF800000000000000000
FFFF800000000000000000
FFFF800000000000000000
FFFF800000000000000000
FFFF800000000000000000
FFFF800000000000000000
FFFF800000000000000000
FFFF800000000000000000
FFFF800000000000000000
FFFF800000000000000000
FFFF800000000000000000
FFFF800000000000000000
FFFF800000000000000000
FFFF800000000000000000
FFFF800000000000000000
FFFF800000000000000000
FFFF8007FFFFFFFFFFFFC0
FFFF8007FFFFFFFFFFFFC0
FFFF8007FFFFFFFFFFFFC0
FFFF8007FFFFFFFFFFFFC0
FFFF8007FFFFFFFFFFFFC0
FFFF8007FFFFFFFFFFFFC0
FFFF8007FFFFFFFFFFFFC0
FFFF8007FFFFFFFFFFFFC0
FFFF8007FFFFFFFFFFFFC0
FFFF8007FFFFFFFFFFFFC0
FFFF8007FFFFFFFFFFFFC0
FFFF8007FFFFFFFFFFFFC0
FFFF8007FFFFFFFFFFFFC0
FFFF8007FFFFFFFFFFFFC0
FFFF800000000000000000
FFFF800000000000000000
FFFF800000000000000000
FFFF800000000000000000
FFFF800000000000000000
FFFF800000000000000000
FFFF800000000000000000
FFFF800000000000000000
FFFF800000000000000000
FFFF800000000000000000
FFFF800000000000000000
FFFF800000000000000000
FFFF800000000000000000
FFFF800000000000000000
FFFF800000000000000000
FFFF800000000000000000
FFFF800000000000000000
FFFF800000000000000000
FFFF800000000000000000
FFFF800000000000000000
FFFF800000000000000000
FFFF800000000000000000
FFFF800000000000000000
FFFF800000000000000000
FFFFFFFFFFFFFFFFFFFFF8
FFFFFFFFFFFFFFFFFFFFF8
FFFFFFFFFFFFFFFFFFFFF8
FFFFFFFFFFFFFFFFFFFFF8
FFFFFFFFFFFFFFFFFFFFF8
FFFFFFFFFFFFFFFFFFFFF8
FFFFFFFFFFFFFFFFFFFFF8
FFFFFFFFFFFFFFFFFFFFF8
FFFFFFFFFFFFFFFFFFFFF8
FFFFFFFFFFFFFFFFFFFFF8
FFFFFFFFFFFFFFFFFFFFF8
FFFFFFFFFFFFFFFFFFFFF8
FFFFFFFFFFFFFFFFFFFFF8
FFFFFFFFFFFFFFFFFFFFF8
FFFFFFFFFFFFFFFFFFFFF8
FFFFFFFFFFFFFFFFFFFFF8
FFFFFFFFFFFFFFFFFFFFF8
ENDCHAR
STARTCHAR f
ENCODING 102
SWIDTH 705 0
DWIDTH 92 0
BBX 81 95 8 0
BITMAP
FFFFFFFFFFFFFFFFFFFF80
FFFFFFFFFFFFFFFFFFFF80
FFFFFFFFFFFFFFFFFFFF80
FFFFFFFFFFFFFFFFFFFF80
FFFFFFFFFFFFFFFFFFFF80
FFFFFFFFFFFFFFFFFFFF80
FFFFFFFFFFFFFFFFFFFF80
FFFFFFFFFFFFFFFFFFFF80
FFFFFFFFFFFFFFFFFFFF80
FFFFFFFFFFFFFFFFFFFF80
FFFFFFFFFFFFFFFFFFFF80
FFFFFFFFFFFFFFFFFFFF80
FFFFFFFFFFFFFFFFFFFF80
FFFFFFFFFFFFFFFFFFFF80
FFFFFFFFFFFFFFFFFFFF80
FFFFFFFFFFFFFFFFFFFF80
FFFFFFFFFFFFFFFFFFFF80
FFFF800000000000000000
FFFF800000000000000000
FFFF800000000000000000
FFFF800000000000000000
FFFF800000000000000000
FFFF800000000000000000
FFFF800000000000000000
FFFF800000000000000000
FFFF800000000000000000
FFFF800000000000000000
FFFF800000000000000000
FFFF800000000000000000
FFFF800000000000000000
FFFF800000000000000000
FFFF800000000000000000
FFFF800000000000000000
FFFF800000000000000000
FFFF800000000000000000
FFFF800000000000000000
FFFF800000000000000000
FFFF800000000000000000
FFFF800000000000000000
FFFF800000000000000000
FFFF800000000000000000
FFFF8007FFFFFFFFFFF800
FFFF8007FFFFFFFFFFF800
FFFF8007FFFFFFFFFFF800
FFFF8007FFFFFFFFFFF800
FFFF8007FFFFFFFFFFF800
FFFF8007FFFFFFFFFFF800
FFFF8007FFFFFFFFFFF800
FFFF8007FFFFFFFFFFF800
FFFF8007FFFFFFFFFFF800
FFFF8007FFFFFFFFFFF800
FFFF8007FFFFFFFFFFF800
FFFF8007FFFFFFFFFFF800
FFFF8007FFFFFFFFFFF800
FFFF8007FFFFFFFFFFF800
FFFF8007FFFFFFFFFFF800
FFFF800000000000000000
FFFF800000000000000000
FFFF800000000000000000
FFFF800000000000000000
FFFF800000000000000000
FFFF800000000000000000
FFFF800000000000000000
FFFF800000000000000000
FFFF800000000000000000
FFFF800000000000000000
FFFF800000000000000000
FFFF800000000000000000
FFFF800000000000000000
FFFF800000000000000000
FFFF800000000000000000
FFFF800000000000000000
FFFF800000000000000000
FFFF800000000000000000
FFFF800000000000000000
FFFF800000000000000000
FFFF800000000000000000
FFFF800000000000000000
FFFF800000000000000000
FFFF800000000000000000
FFFF800000000000000000
FFFF800000000000000000
FFFF800000000000000000
FFFF800000000000000000
FFFF800000000000000000
FFFF800000000000000000
FFFF800000000000000000
FFFF800000000000000000
FFFF800000000000000000
FFFF800000000000000000
FFFF800000000000000000
FFFF800000000000000000
FFFF800000000000000000
FFFF800000000000000000
FFFF800000000000000000
ENDCHAR
STARTCHAR g
ENCODING 103
SWIDTH 888 0
DWIDTH 116 0
BBX 104 95 5 0
BITMAP
0000000001FFFFFFFFFFFFFFC0
000000003FFFFFFFFFFFFFFFC0
00000001FFFFFFFFFFFFFFFFC0
0000000FFFFFFFFFFFFFFFFFC0
0000003FFFFFFFFFFFFFFFFFC0
000000FFFFFFFFFFFFFFFFFFC0
000003FFFFFFFFFFFFFFFFFFC0
00000FFFFFFFFFFFFFFFFFFFC0
00001FFFFFFFFFFFFFFFFFFFC0
00007FFFFFFFFFFFFFFFFFFFC0
0000FFFFFFFFFFFFFFFFFFFFC0
0001FFFFFFFFFFFFFFFFFFFFC0
0003FFFFFFFFFFFFFFFFFFFFC0
0007FFFFFFFFFFFFFFFFFFFFC0
000FFFFFFFFFFFFFFFFFFFFFC0
001FFFFFFFFFFFFFFFFFFFFFC0
003FFFFFFFFFFFFFFFFFFFFFC0
007FFFFFFE0000000000000000
007FFFFFF00000000000000000
00FFFFFFC00000000000000000
01FFFFFF000000000000000000
01FFFFFC000000000000000000
03FFFFF8000000000000000000
03FFFFE0000000000000000000
07FFFFC0000000000000000000
07FFFF80000000000000000000
0FFFFF00000000000000000000
0FFFFF00000000000000000000
0FFFFE00000000000000000000
1FFFFC00000000000000000000
1FFFF800000000000000000000
1FFFF800000000000000000000
3FFFF000000000000000000000
3FFFF000000000000000000000
3FFFF000000000000000000000
3FFFE000000000000000000000
7FFFE000000000000000000000
7FFFC000000000000000000000
7FFFC000000000000000000000
7FFFC000000000000000000000
7FFFC0000007FFFFFFFFFFFFFF
7FFFC0000007FFFFFFFFFFFFFF
7FFF80000007FFFFFFFFFFFFFF
7FFF80000007FFFFFFFFFFFFFF
7FFF80000007FFFFFFFFFFFFFF
FFFF80000007FFFFFFFFFFFFFF
FFFF80000007FFFFFFFFFFFFFF
FFFF80000007FFFFFFFFFFFFFF
7FFF80000007FFFFFFFFFFFFFF
7FFF80000007FFFFFFFFFFFFFF
7FFF80000007FFFFFFFFFFFFFF
7FFF80000007FFFFFFFFFFFFFF
7FFF80000007FFFFFFFFFFFFFF
7FFFC0000007FFFFFFFFFFFFFF
7FFFC00000000000000001FFFF
7FFFC00000000000000001FFFF
7FFFC00000000000000001FFFF
3FFFE00000000000000001FFFF
3FFFE00000000000000001FFFF
3FFFE00000000000000001FFFF
3FFFF00000000000000001FFFF
1FFFF00000000000000001FFFF
1FFFF80000000000000001FFFF
1FFFF80000000000000001FFFF
1FFFFC0000000000000001FFFF
0FFFFC0000000000000001FFFF
0FFFFE0000000000000001FFFF
07FFFF0000000000000001FFFF
07FFFF8000000000000001FFFF
03FFFF8000000000000001FFFF
03FFFFC000000000000001FFFF
01FFFFF000000000000001FFFF
01FFFFF800000000000001FFFF
00FFFFFC00000000000001FFFF
00FFFFFF00000000000001FFFF
007FFFFFC0000000000001FFFF
003FFFFFF0000000000001FFFF
001FFFFFFE000000000001FFFF
001FFFFFFFFFFFFFFFFFFFFFFF
000FFFFFFFFFFFFFFFFFFFFFFF
0007FFFFFFFFFFFFFFFFFFFFFF
0003FFFFFFFFFFFFFFFFFFFFFF
0001FFFFFFFFFFFFFFFFFFFFFF
0000FFFFFFFFFFFFFFFFFFFFFF
00007FFFFFFFFFFFFFFFFFFFFF
00001FFFFFFFFFFFFFFFFFFFFF
00000FFFFFFFFFFFFFFFFFFFFF
000007FFFFFFFFFFFFFFFFFFFF
000001FFFFFFFFFFFFFFFFFFFF
0000007FFFFFFFFFFFFFFFFFFF
0000001FFFFFFFFFFFFFFFFFFF
00000007FFFFFFFFFFFFFFFFFF
00000001FFFFFFFFFFFFFFFFFF
000000001FFFFFFFFFFFFFFFFF
0000000001FFFFFFFFFFFFFFFF
ENDCHAR
STARTCHAR h
ENCODING 104
SWIDTH 838 0
DWIDTH 110 0
BBX 94 95 8 0
BITMAP
FFFF8000000000000007FFFC
FFFF8000000000000007FFFC
FFFF8000000000000007FFFC
FFFF8000000000000007FFFC
FFFF8000000000000007FFFC
FFFF8000000000000007FFFC
FFFF8000000000000007FFFC
FFFF8000000000000007FFFC
FFFF8000000000000007FFFC
FFFF8000000000000007FFFC
FFFF8000000000000007FFFC
FFFF8000000000000007FFFC
FFFF8000000000000007FFFC
FFFF8000000000000007FFFC
FFFF8000000000000007FFFC
FFFF8000000000000007FFFC
FFFF8000000000000007FFFC
FFFF8000000000000007FFFC
FFFF8000000000000007FFFC
FFFF8000000000000007FFFC
FFFF8000000000000007FFFC
FFFF8000000000000007FFFC
FFFF8000000000000007FFFC
FFFF8000000000000007FFFC
FFFF8000000000000007FFFC
FFFF8000000000000007FFFC
FFFF8000000000000007FFFC
FFFF8000000000000007FFFC
FFFF8000000000000007FFFC
FFFF8000000000000007FFFC
FFFF8000000000000007FFFC
FFFF8000000000000007FFFC
FFFF8000000000000007FFFC
FFFF8000000000000007FFFC
FFFF8000000000000007FFFC
FFFF8000000000000007FFFC
FFFF8000000000000007FFFC
FFFF8000000000000007FFFC
FFFF8000000000000007FFFC
FFFF8007FFFFFFFFFFFFFFFC
FFFF8007FFFFFFFFFFFFFFFC
FFFF8007FFFFFFFFFFFFFFFC
FFFF8007FFFFFFFFFFFFFFFC
FFFF8007FFFFFFFFFFFFFFFC
FFFF8007FFFFFFFFFFFFFFFC
FFFF8007FFFFFFFFFFFFFFFC
FFFF8007FFFFFFFFFFFFFFFC
FFFF8007FFFFFFFFFFFFFFFC
FFFF8007FFFFFFFFFFFFFFFC
FFFF8007FFFFFFFFFFFFFFFC
FFFF8007FFFFFFFFFFFFFFFC
FFFF8007FFFFFFFFFFFFFFFC
FFFF8007FFFFFFFFFFFFFFFC
FFFF8007FFFFFFFFFFFFFFFC
FFFF8000000000000007FFFC
FFFF8000000000000007FFFC
FFFF8000000000000007FFFC
FFFF8000000000000007FFFC
FFFF8000000000000007FFFC
FFFF8000000000000007FFFC
FFFF8000000000000007FFFC
FFFF8000000000000007FFFC
FFFF8000000000000007FFFC
FFFF8000000000000007FFFC
FFFF8000000000000007FFFC
FFFF8000000000000007FFFC
FFFF8000000000000007FFFC
FFFF8000000000000007FFFC
FFFF8000000000000007FFFC
FFFF8000000000000007FFFC
FFFF8000000000000007FFFC
FFFF8000000000000007FFFC
FFFF8000000000000007FFFC
FFFF8000000000000007FFFC
FFFF8000000000000007FFFC
FFFF8000000000000007FFFC
FFFF8000000000000007FFFC
FFFF8000000000000007FFFC
FFFF8000000000000007FFFC
FFFF8000000000000007FFFC
FFFF8000000000000007FFFC
FFFF8000000000000007FFFC
FFFF8000000000000007FFFC
FFFF8000000000000007FFFC
FFFF8000000000000007FFFC
FFFF8000000000000007FFFC
FFFF8000000000000007FFFC
FFFF8000000000000007FFFC
FFFF8000000000000007FFFC
FFFF8000000000000007FFFC
FFFF8000000000000007FFFC
FFFF8000000000000007FFFC
FFFF8000000000000007FFFC
FFFF8000000000000007FFFC
FFFF8000000000000007FFFC
ENDCHAR
STARTCHAR i
ENCODING 105
SWIDTH 267 0
DWIDTH 35 0
BBX 17 95 9 0
BITMAP
FFFF80
FFFF80
FFFF80
FFFF80
FFFF80
FFFF80
FFFF80
FFFF80
FFFF80
FFFF80
FFFF80
FFFF80
FFFF80
FFFF80
FFFF80
FFFF80
FFFF80
FFFF80
FFFF80
FFFF80
FFFF80
FFFF80
FFFF80
FFFF80
FFFF80
FFFF80
FFFF80
FFFF80
FFFF80
FFFF80
FFFF80
FFFF80
FFFF80
FFFF80
FFFF80
FFFF80
FFFF80
FFFF80
FFFF80
FFFF80
FFFF80
FFFF80
FFFF80
FFFF80
FFFF80
FFFF80
FFFF80
FFFF80
FFFF80
FFFF80
FFFF80
FFFF80
FFFF80
FFFF80
FFFF80
FFFF80
FFFF80
FFFF80
FFFF80
FFFF80
FFFF80
FFFF80
FFFF80
FFFF80
FFFF80
FFFF80
FFFF80
FFFF80
FFFF80
FFFF80
FFFF80
FFFF80
FFFF80
FFFF80
FFFF80
FFFF80
FFFF80
FFFF80
FFFF80
FFFF80
FFFF80
FFFF80
FFFF80
FFFF80
FFFF80
FFFF80
FFFF80
FFFF80
FFFF80
FFFF80
FFFF80
FFFF80
FFFF80
FFFF80
FFFF80
ENDCHAR
STARTCHAR j
ENCODING 106
SWIDTH 708 0
DWIDTH 93 0
BBX 83 95 3 0
BITMAP
00000000000000003FFFE0
00000000000000003FFFE0
00000000000000003FFFE0
00000000000000003FFFE0
00000000000000003FFFE0
00000000000000003FFFE0
00000000000000003FFFE0
00000000000000003FFFE0
00000000000000003FFFE0
00000000000000003FFFE0
00000000000000003FFFE0
00000000000000003FFFE0
00000000000000003FFFE0
00000000000000003FFFE0
00000000000000003FFFE0
00000000000000003FFFE0
00000000000000003FFFE0
00000000000000003FFFE0
00000000000000003FFFE0
00000000000000003FFFE0
00000000000000003FFFE0
00000000000000003FFFE0
00000000000000003FFFE0
00000000000000003FFFE0
00000000000000003FFFE0
00000000000000003FFFE0
00000000000000003FFFE0
00000000000000003FFFE0
00000000000000003FFFE0
00000000000000003FFFE0
00000000000000003FFFE0
00000000000000003FFFE0
00000000000000003FFFE0
00000000000000003FFFE0
00000000000000003FFFE0
00000000000000003FFFE0
00000000000000003FFFE0
00000000000000003FFFE0
00000000000000003FFFE0
00000000000000003FFFE0
00000000000000003FFFE0
00000000000000003FFFE0
00000000000000003FFFE0
00000000000000003FFFE0
00000000000000003FFFE0
00000000000000003FFFE0
00000000000000003FFFE0
00000000000000003FFFE0
00000000000000003FFFE0
00000000000000003FFFE0
00000000000000003FFFE0
00000000000000003FFFE0
00000000000000003FFFE0
00000000000000003FFFE0
00000000000000003FFFE0
00000000000000003FFFE0
00000000000000003FFFE0
00000000000000003FFFE0
00000000000000003FFFE0
00000000000000003FFFE0
00000000000000007FFFC0
00000000000000007FFFC0
00000000000000007FFFC0
00000000000000007FFFC0
0000000000000000FFFFC0
0000000000000000FFFFC0
0000000000000001FFFF80
0000000000000001FFFF80
0000000000000003FFFF80
0000000000000007FFFF80
000000000000000FFFFF00
000000000000001FFFFF00
000000000000003FFFFE00
000000000000007FFFFE00
00000000000001FFFFFE00
00000000000007FFFFFC00
0000000000003FFFFFFC00
000000000003FFFFFFF800
FFFFFFFFFFFFFFFFFFF000
FFFFFFFFFFFFFFFFFFF000
FFFFFFFFFFFFFFFFFFE000
FFFFFFFFFFFFFFFFFFC000
FFFFFFFFFFFFFFFFFF8000
FFFFFFFFFFFFFFFFFF0000
FFFFFFFFFFFFFFFFFE0000
FFFFFFFFFFFFFFFFFC0000
FFFFFFFFFFFFFFFFF80000
FFFFFFFFFFFFFFFFF00000
FFFFFFFFFFFFFFFFC00000
FFFFFFFFFFFFFFFF000000
FFFFFFFFFFFFFFFC000000
FFFFFFFFFFFFFFE0000000
FFFFFFFFFFFFFF00000000
FFFFFFFFFFFFF000000000
FFFFFFFFFFF80000000000
ENDCHAR
STARTCHAR k
ENCODING 107
SWIDTH 875 0
DWIDTH 115 0
BBX 104 95 8 0
BITMAP
FFFF800000000000000FFFFFFC
FFFF800000000000001FFFFFF0
FFFF800000000000007FFFFFE0
FFFF80000000000000FFFFFFC0
FFFF80000000000001FFFFFF00
FFFF80000000000007FFFFFE00
FFFF8000000000000FFFFFFC00
FFFF8000000000001FFFFFF000
FFFF8000000000003FFFFFE000
FFFF800000000000FFFFFFC000
FFFF800000000001FFFFFF0000
FFFF800000000003FFFFFE0000
FFFF80000000000FFFFFFC0000
FFFF80000000001FFFFFF00000
FFFF80000000003FFFFFE00000
FFFF8000000000FFFFFFC00000
FFFF8000000001FFFFFF000000
FFFF8000000003FFFFFE000000
FFFF800000000FFFFFFC000000
FFFF800000001FFFFFF0000000
FFFF800000003FFFFFE0000000
FFFF800000007FFFFFC0000000
FFFF80000001FFFFFF00000000
FFFF80000003FFFFFE00000000
FFFF80000007FFFFFC00000000
FFFF8000001FFFFFF000000000
FFFF8000003FFFFFE000000000
FFFF8000007FFFFFC000000000
FFFF800001FFFFFF0000000000
FFFF800003FFFFFE0000000000
FFFF800007FFFFFC0000000000
FFFF80000FFFFFF80000000000
FFFF80003FFFFFE00000000000
FFFF80007FFFFFC00000000000
FFFF8000FFFFFF800000000000
FFFF8003FFFFFE000000000000
FFFF8007FFFFFC000000000000
FFFF800FFFFFF8000000000000
FFFF803FFFFFE0000000000000
FFFF807FFFFFC0000000000000
FFFF80FFFFFF80000000000000
FFFF81FFFFFE00000000000000
FFFF81FFFFFC00000000000000
FFFF83FFFFF800000000000000
FFFF83FFFFE000000000000000
FFFF83FFFFC000000000000000
FFFF83FFFF8000000000000000
FFFF83FFFF0000000000000000
FFFF83FFFFC000000000000000
FFFF83FFFFE000000000000000
FFFF81FFFFF000000000000000
FFFF80FFFFFC00000000000000
FFFF807FFFFE00000000000000
FFFF803FFFFF00000000000000
FFFF801FFFFFC0000000000000
FFFF800FFFFFE0000000000000
FFFF8003FFFFF0000000000000
FFFF8001FFFFFC000000000000
FFFF8000FFFFFE000000000000
FFFF80007FFFFF000000000000
FFFF80001FFFFFC00000000000
FFFF80000FFFFFE00000000000
FFFF800007FFFFF00000000000
FFFF800001FFFFFC0000000000
FFFF800000FFFFFE0000000000
FFFF8000007FFFFF8000000000
FFFF8000003FFFFFC000000000
FFFF8000000FFFFFE000000000
FFFF80000007FFFFF800000000
FFFF80000003FFFFFC00000000
FFFF80000001FFFFFE00000000
FFFF800000007FFFFF80000000
FFFF800000003FFFFFC0000000
FFFF800000001FFFFFE0000000
FFFF8000000007FFFFF8000000
FFFF8000000003FFFFFC000000
FFFF8000000001FFFFFE000000
FFFF8000000000FFFFFF800000
FFFF80000000003FFFFFC00000
FFFF80000000001FFFFFE00000
FFFF80000000000FFFFFF80000
FFFF800000000007FFFFFC0000
FFFF800000000001FFFFFE0000
FFFF800000000000FFFFFF8000
FFFF8000000000007FFFFFC000
FFFF8000000000001FFFFFE000
FFFF8000000000000FFFFFF800
FFFF80000000000007FFFFFC00
FFFF80000000000003FFFFFE00
FFFF80000000000000FFFFFF80
FFFF800000000000007FFFFFC0
FFFF800000000000003FFFFFE0
FFFF800000000000000FFFFFF8
FFFF8000000000000007FFFFFC
FFFF8000000000000003FFFFFF
ENDCHAR
STARTCHAR l
ENCODING 108
SWIDTH 707 0
DWIDTH 93 0
BBX 81 95 8 0
BITMAP
FFFF800000000000000000
FFFF800000000000000000
FFFF800000000000000000
FFFF800000000000000000
FFFF800000000000000000
FFFF800000000000000000
FFFF800000000000000000
FFFF800000000000000000
FFFF800000000000000000
FFFF800000000000000000
FFFF800000000000000000
FFFF800000000000000000
FFFF800000000000000000
FFFF800000000000000000
FFFF800000000000000000
FFFF800000000000000000
FFFF800000000000000000
FFFF800000000000000000
FFFF800000000000000000
FFFF800000000000000000
FFFF800000000000000000
FFFF800000000000000000
FFFF800000000000000000
FFFF800000000000000000
FFFF800000000000000000
FFFF800000000000000000
FFFF800000000000000000
FFFF800000000000000000
FFFF800000000000000000
FFFF800000000000000000
FFFF800000000000000000
FFFF800000000000000000
FFFF800000000000000000
FFFF800000000000000000
FFFF800000000000000000
FFFF800000000000000000
FFFF800000000000000000
FFFF800000000000000000
FFFF800000000000000000
FFFF800000000000000000
FFFF800000000000000000
FFFF800000000000000000
FFFF800000000000000000
FFFF800000000000000000
FFFF800000000000000000
FFFF800000000000000000
FFFF800000000000000000
FFFF800000000000000000
FFFF800000000000000000
FFFF800000000000000000
FFFF800000000000000000
FFFF800000000000000000
FFFF800000000000000000
FFFF800000000000000000
FFFF800000000000000000
FFFF800000000000000000
FFFF800000000000000000
FFFF800000000000000000
FFFF800000000000000000
FFFF800000000000000000
FFFF800000000000000000
FFFF800000000000000000
FFFF800000000000000000
FFFF800000000000000000
FFFF800000000000000000
FFFF800000000000000000
FFFF800000000000000000
FFFF800000000000000000
FFFF800000000000000000
FFFF800000000000000000
FFFF800000000000000000
FFFF800000000000000000
FFFF800000000000000000
FFFF800000000000000000
FFFF800000000000000000
FFFF800000000000000000
FFFF800000000000000000
FFFF800000000000000000
FFFFFFFFFFFFFFFFFFFF80
FFFFFFFFFFFFFFFFFFFF80
FFFFFFFFFFFFFFFFFFFF80
FFFFFFFFFFFFFFFFFFFF80
FFFFFFFFFFFFFFFFFFFF80
FFFFFFFFFFFFFFFFFFFF80
FFFFFFFFFFFFFFFFFFFF80
FFFFFFFFFFFFFFFFFFFF80
FFFFFFFFFFFFFFFFFFFF80
FFFFFFFFFFFFFFFFFFFF80
FFFFFFFFFFFFFFFFFFFF80
FFFFFFFFFFFFFFFFFFFF80
FFFFFFFFFFFFFFFFFFFF80
FFFFFFFFFFFFFFFFFFFF80
FFFFFFFFFFFFFFFFFFFF80
FFFFFFFFFFFFFFFFFFFF80
FFFFFFFFFFFFFFFFFFFF80
ENDCHAR
STARTCHAR m
ENCODING 109
SWIDTH 1115 0
DWIDTH 146 0
BBX 140 97 3 -2
BITMAP
00000003F000000000000000007E00000000
0000000FFC0000000000000001FF80000000
0000001FFE0000000000000003FFC0000000
0000003FFF0000000000000007FFE0000000
0000007FFF800000000000000FFFE0000000
0000007FFF800000000000000FFFF0000000
0000007FFFC00000000000000FFFF0000000
000000FFFFC00000000000001FFFF0000000
000000FFFFE00000000000001FFFF0000000
000000FFFFE00000000000003FFFF8000000
000000FFFFE00000000000003FFFF8000000
000001FFFFF00000000000007FFFF8000000
000001FFFFF00000000000007FFFFC000000
000001FFFFF8000000000000FFFFFC000000
000003FFFFF8000000000000FFFFFC000000
000003FFFFFC000000000000FFFFFC000000
000003FFFFFC000000000001FFFFFE000000
000003FFFFFE000000000001FFFFFE000000
000007FFFFFE000000000003FFFFFE000000
000007FFFFFE000000000003FFFFFE000000
000007FFFFFF000000000007FFFFFF000000
000007FFFFFF000000000007FFFFFF000000
00000FFFFFFF80000000000FFFFFFF000000
00000FFFFFFF80000000000FFFFFFF800000
00000FFFFFFFC0000000000FFFFFFF800000
00001FFFFFFFC0000000001FFFFFFF800000
00001FFFFFFFE0000000001FFFFFFF800000
00001FFFFFFFE0000000003FFFFFFFC00000
00001FFFFFFFE0000000003FFFFFFFC00000
00003FFFFFFFF0000000007FFFBFFFC00000
00003FFFDFFFF0000000007FFFBFFFE00000
00003FFFCFFFF800000000FFFFBFFFE00000
00007FFFCFFFF800000000FFFF3FFFE00000
00007FFFC7FFFC00000000FFFF1FFFE00000
00007FFF87FFFC00000001FFFE1FFFF00000
00007FFF87FFFE00000001FFFE1FFFF00000
0000FFFF83FFFE00000003FFFC0FFFF00000
0000FFFF03FFFE00000003FFFC0FFFF00000
0000FFFF01FFFF00000007FFFC0FFFF80000
0000FFFF01FFFF00000007FFF80FFFF80000
0001FFFF00FFFF80000007FFF807FFF80000
0001FFFE00FFFF8000000FFFF007FFFC0000
0001FFFE007FFFC000000FFFF007FFFC0000
0003FFFE007FFFC000001FFFE003FFFC0000
0003FFFE007FFFC000001FFFE003FFFC0000
0003FFFC003FFFE000003FFFC003FFFE0000
0003FFFC003FFFE000003FFFC003FFFE0000
0007FFFC001FFFF000007FFFC001FFFE0000
0007FFF8001FFFF000007FFF8001FFFE0000
0007FFF8000FFFF800007FFF8001FFFF0000
000FFFF8000FFFF80000FFFF0001FFFF0000
000FFFF80007FFFC0000FFFF0000FFFF0000
000FFFF00007FFFC0001FFFE0000FFFF8000
000FFFF00007FFFC0001FFFE0000FFFF8000
001FFFF00003FFFE0003FFFC00007FFF8000
001FFFE00003FFFE0003FFFC00007FFF8000
001FFFE00001FFFF0007FFFC00007FFFC000
001FFFE00001FFFF0007FFF800007FFFC000
003FFFE00000FFFF8007FFF800003FFFC000
003FFFC00000FFFF800FFFF000003FFFE000
003FFFC00000FFFFC00FFFF000003FFFE000
007FFFC000007FFFC01FFFE000001FFFE000
007FFFC000007FFFC01FFFE000001FFFE000
007FFF8000003FFFE03FFFC000001FFFF000
007FFF8000003FFFE03FFFC000001FFFF000
00FFFF8000001FFFF07FFFC000000FFFF000
00FFFF0000001FFFF07FFF8000000FFFF000
00FFFF0000000FFFF87FFF8000000FFFF800
01FFFF0000000FFFF8FFFF0000000FFFF800
01FFFF0000000FFFFCFFFF00000007FFF800
01FFFE00000007FFFDFFFE00000007FFFC00
01FFFE00000007FFFDFFFE00000007FFFC00
03FFFE00000003FFFFFFFC00000003FFFC00
03FFFC00000003FFFFFFFC00000003FFFC00
03FFFC00000001FFFFFFFC00000003FFFE00
03FFFC00000001FFFFFFF800000003FFFE00
07FFFC00000001FFFFFFF800000001FFFE00
07FFF800000000FFFFFFF000000001FFFE00
07FFF800000000FFFFFFF000000001FFFF00
0FFFF8000000007FFFFFE000000000FFFF00
0FFFF8000000007FFFFFE000000000FFFF00
0FFFF0000000003FFFFFE000000000FFFF80
0FFFF0000000003FFFFFC000000000FFFF80
1FFFF0000000001FFFFFC0000000007FFF80
1FFFE0000000001FFFFF80000000007FFF80
1FFFE0000000001FFFFF80000000007FFFC0
3FFFE0000000000FFFFF00000000007FFFC0
3FFFE0000000000FFFFF00000000003FFFC0
3FFFC00000000007FFFE00000000003FFFE0
3FFFC00000000007FFFE00000000003FFFE0
7FFFC00000000003FFFE00000000001FFFE0
7FFFC00000000003FFFC00000000001FFFE0
7FFF800000000001FFF800000000001FFFF0
7FFF800000000001FFF800000000001FFFF0
FFFF800000000000FFF000000000000FFFF0
00000000000000003FC00000000000000000
000000000000000006000000000000000000
ENDCHAR
STARTCHAR n
ENCODING 110
SWIDTH 873 0
DWIDTH 114 0
BBX 99 95 8 0
BITMAP
07E000000000000000001FFFE0
1FF800000000000000001FFFE0
3FFE00000000000000001FFFE0
7FFF00000000000000001FFFE0
7FFF80000000000000001FFFE0
FFFFC0000000000000001FFFE0
FFFFE0000000000000001FFFE0
FFFFF0000000000000001FFFE0
FFFFF8000000000000001FFFE0
FFFFFC000000000000001FFFE0
FFFFFE000000000000001FFFE0
FFFFFF000000000000001FFFE0
FFFFFF800000000000001FFFE0
FFFFFFC00000000000001FFFE0
FFFFFFE00000000000001FFFE0
FFFFFFF00000000000001FFFE0
FFFFFFF80000000000001FFFE0
FFFFFFFC0000000000001FFFE0
FFFFFFFE0000000000001FFFE0
FFFFFFFF0000000000001FFFE0
FFFFFFFF8000000000001FFFE0
FFFFFFFFC000000000001FFFE0
FFFFFFFFE000000000001FFFE0
FFFFFFFFF000000000001FFFE0
FFFFFFFFF800000000001FFFE0
FFFFFFFFFC00000000001FFFE0
FFFFFFFFFE00000000001FFFE0
FFFF7FFFFF00000000001FFFE0
FFFF3FFFFF80000000001FFFE0
FFFF1FFFFFC0000000001FFFE0
FFFF0FFFFFE0000000001FFFE0
FFFF07FFFFF0000000001FFFE0
FFFF03FFFFF8000000001FFFE0
FFFF01FFFFFC000000001FFFE0
FFFF00FFFFFE000000001FFFE0
FFFF007FFFFF000000001FFFE0
FFFF003FFFFF800000001FFFE0
FFFF001FFFFFC00000001FFFE0
FFFF000FFFFFE00000001FFFE0
FFFF0007FFFFF00000001FFFE0
FFFF0003FFFFF80000001FFFE0
FFFF0001FFFFFC0000001FFFE0
FFFF0000FFFFFE0000001FFFE0
FFFF00007FFFFF0000001FFFE0
FFFF00003FFFFF8000001FFFE0
FFFF00001FFFFFE000001FFFE0
FFFF00000FFFFFF000001FFFE0
FFFF000007FFFFF800001FFFE0
FFFF000003FFFFFC00001FFFE0
FFFF000001FFFFFE00001FFFE0
FFFF000000FFFFFF00001FFFE0
FFFF0000007FFFFF80001FFFE0
FFFF0000003FFFFFC0001FFFE0
FFFF0000001FFFFFE0001FFFE0
FFFF0000000FFFFFF0001FFFE0
FFFF00000003FFFFF8001FFFE0
FFFF00000001FFFFFC001FFFE0
FFFF00000000FFFFFE001FFFE0
FFFF000000007FFFFF001FFFE0
FFFF000000003FFFFF801FFFE0
FFFF000000001FFFFFC01FFFE0
FFFF000000000FFFFFE01FFFE0
FFFF0000000007FFFFF01FFFE0
FFFF0000000003FFFFF81FFFE0
FFFF0000000001FFFFFC1FFFE0
FFFF0000000000FFFFFE1FFFE0
FFFF00000000007FFFFF1FFFE0
FFFF00000000003FFFFF9FFFE0
FFFF00000000001FFFFFDFFFE0
FFFF00000000000FFFFFFFFFE0
FFFF000000000007FFFFFFFFE0
FFFF000000000003FFFFFFFFE0
FFFF000000000001FFFFFFFFE0
FFFF000000000000FFFFFFFFE0
FFFF0000000000007FFFFFFFE0
FFFF0000000000003FFFFFFFE0
FFFF0000000000001FFFFFFFE0
FFFF0000000000000FFFFFFFE0
FFFF00000000000007FFFFFFE0
FFFF00000000000003FFFFFFE0
FFFF00000000000001FFFFFFE0
FFFF00000000000000FFFFFFE0
FFFF000000000000007FFFFFE0
FFFF000000000000003FFFFFE0
FFFF000000000000001FFFFFE0
FFFF000000000000000FFFFFE0
FFFF0000000000000007FFFFC0
FFFF0000000000000003FFFFC0
FFFF0000000000000001FFFFC0
FFFF00000000000000007FFFC0
FFFF00000000000000003FFF80
FFFF00000000000000001FFF80
FFFF00000000000000000FFF00
FFFF000000000000000007FE00
FFFF000000000000000001F800
ENDCHAR
STARTCHAR o
ENCODING 111
SWIDTH 968 0
DWIDTH 127 0
BBX 117 95 5 0
BITMAP
0000000001FFFFFFFFFC0000000000
000000003FFFFFFFFFFFE000000000
00000001FFFFFFFFFFFFFC00000000
0000000FFFFFFFFFFFFFFF80000000
0000003FFFFFFFFFFFFFFFE0000000
000000FFFFFFFFFFFFFFFFF8000000
000003FFFFFFFFFFFFFFFFFE000000
00000FFFFFFFFFFFFFFFFFFF800000
00001FFFFFFFFFFFFFFFFFFFC00000
00007FFFFFFFFFFFFFFFFFFFF00000
0000FFFFFFFFFFFFFFFFFFFFF80000
0001FFFFFFFFFFFFFFFFFFFFFC0000
0003FFFFFFFFFFFFFFFFFFFFFE0000
0007FFFFFFFFFFFFFFFFFFFFFF0000
000FFFFFFFFFFFFFFFFFFFFFFF8000
001FFFFFFFFFFFFFFFFFFFFFFFC000
003FFFFFFFFFFFFFFFFFFFFFFFE000
007FFFFFFE0000000003FFFFFFF000
007FFFFFF000000000007FFFFFF000
00FFFFFFC000000000001FFFFFF800
01FFFFFF00000000000007FFFFFC00
01FFFFFC00000000000001FFFFFC00
03FFFFF800000000000000FFFFFE00
03FFFFE0000000000000003FFFFE00
07FFFFC0000000000000001FFFFF00
07FFFF80000000000000000FFFFF00
0FFFFF000000000000000007FFFF80
0FFFFF000000000000000007FFFF80
0FFFFE000000000000000003FFFF80
1FFFFC000000000000000001FFFFC0
1FFFF8000000000000000000FFFFC0
1FFFF8000000000000000000FFFFC0
3FFFF00000000000000000007FFFE0
3FFFF00000000000000000007FFFE0
3FFFF00000000000000000007FFFE0
3FFFE00000000000000000003FFFE0
7FFFE00000000000000000003FFFF0
7FFFC00000000000000000001FFFF0
7FFFC00000000000000000001FFFF0
7FFFC00000000000000000001FFFF0
7FFFC00000000000000000001FFFF0
7FFFC00000000000000000001FFFF0
7FFF800000000000000000000FFFF0
7FFF800000000000000000000FFFF0
7FFF800000000000000000000FFFF8
FFFF800000000000000000000FFFF8
FFFF800000000000000000000FFFF8
FFFF800000000000000000000FFFF8
7FFF800000000000000000000FFFF8
7FFF800000000000000000000FFFF0
7FFF800000000000000000000FFFF0
7FFF800000000000000000000FFFF0
7FFF800000000000000000000FFFF0
7FFFC00000000000000000001FFFF0
7FFFC00000000000000000001FFFF0
7FFFC00000000000000000001FFFF0
7FFFC00000000000000000001FFFF0
3FFFE00000000000000000003FFFE0
3FFFE00000000000000000003FFFE0
3FFFE00000000000000000003FFFE0
3FFFF00000000000000000007FFFE0
1FFFF00000000000000000007FFFE0
1FFFF8000000000000000000FFFFC0
1FFFF8000000000000000000FFFFC0
1FFFFC000000000000000001FFFFC0
0FFFFC000000000000000001FFFF80
0FFFFE000000000000000003FFFF80
07FFFF000000000000000007FFFF00
07FFFF80000000000000000FFFFF00
03FFFF80000000000000000FFFFE00
03FFFFC0000000000000001FFFFE00
01FFFFF0000000000000007FFFFC00
01FFFFF800000000000000FFFFFC00
00FFFFFC00000000000001FFFFF800
00FFFFFF00000000000007FFFFF800
007FFFFFC000000000001FFFFFF000
003FFFFFF000000000007FFFFFE000
001FFFFFFE0000000003FFFFFFE000
001FFFFFFFFFFFFFFFFFFFFFFFC000
000FFFFFFFFFFFFFFFFFFFFFFF8000
0007FFFFFFFFFFFFFFFFFFFFFF0000
0003FFFFFFFFFFFFFFFFFFFFFE0000
0001FFFFFFFFFFFFFFFFFFFFFC0000
0000FFFFFFFFFFFFFFFFFFFFF80000
00007FFFFFFFFFFFFFFFFFFFF00000
00001FFFFFFFFFFFFFFFFFFFE00000
00000FFFFFFFFFFFFFFFFFFF800000
000007FFFFFFFFFFFFFFFFFF000000
000001FFFFFFFFFFFFFFFFFC000000
0000007FFFFFFFFFFFFFFFF0000000
0000001FFFFFFFFFFFFFFFC0000000
00000007FFFFFFFFFFFFFF00000000
00000001FFFFFFFFFFFFF800000000
000000001FFFFFFFFFFFC000000000
0000000001FFFFFFFFF80000000000
ENDCHAR
STARTCHAR p
ENCODING 112
SWIDTH 867 0
DWIDTH 114 0
BBX 102 95 8 0
BITMAP
FFFFFFFFFFFFFFFFFFC0000000
FFFFFFFFFFFFFFFFFFFE000000
FFFFFFFFFFFFFFFFFFFFC00000
FFFFFFFFFFFFFFFFFFFFF80000
FFFFFFFFFFFFFFFFFFFFFC0000
FFFFFFFFFFFFFFFFFFFFFF0000
FFFFFFFFFFFFFFFFFFFFFFC000
FFFFFFFFFFFFFFFFFFFFFFE000
FFFFFFFFFFFFFFFFFFFFFFF000
FFFFFFFFFFFFFFFFFFFFFFF800
FFFFFFFFFFFFFFFFFFFFFFFC00
FFFFFFFFFFFFFFFFFFFFFFFE00
FFFFFFFFFFFFFFFFFFFFFFFF00
FFFFFFFFFFFFFFFFFFFFFFFF00
FFFFFFFFFFFFFFFFFFFFFFFF80
FFFFFFFFFFFFFFFFFFFFFFFFC0
FFFFFFFFFFFFFFFFFFFFFFFFC0
FFFF800000000000003FFFFFE0
FFFF8000000000000007FFFFE0
FFFF8000000000000003FFFFF0
FFFF8000000000000000FFFFF0
FFFF80000000000000007FFFF0
FFFF80000000000000003FFFF8
FFFF80000000000000001FFFF8
FFFF80000000000000001FFFF8
FFFF80000000000000000FFFF8
FFFF80000000000000000FFFF8
FFFF800000000000000007FFFC
FFFF800000000000000007FFFC
FFFF800000000000000007FFFC
FFFF800000000000000007FFFC
FFFF800000000000000003FFFC
FFFF800000000000000003FFFC
FFFF800000000000000003FFFC
FFFF800000000000000003FFFC
FFFF800000000000000003FFFC
FFFF800000000000000003FFFC
FFFF800000000000000003FFFC
FFFF800000000000000007FFFC
FFFF800000000000000007FFFC
FFFF800000000000000007FFFC
FFFF800000000000000007FFF8
FFFF80000000000000000FFFF8
FFFF80000000000000000FFFF8
FFFF80000000000000001FFFF8
FFFF80000000000000001FFFF8
FFFF80000000000000003FFFF0
FFFF80000000000000007FFFF0
FFFF8000000000000000FFFFF0
FFFF8000000000000003FFFFE0
FFFF8000000000000007FFFFE0
FFFF800000000000003FFFFFC0
FFFF8007FFFFFFFFFFFFFFFFC0
FFFF8007FFFFFFFFFFFFFFFF80
FFFF8007FFFFFFFFFFFFFFFF80
FFFF8007FFFFFFFFFFFFFFFF00
FFFF8007FFFFFFFFFFFFFFFE00
FFFF8007FFFFFFFFFFFFFFFC00
FFFF8007FFFFFFFFFFFFFFFC00
FFFF8007FFFFFFFFFFFFFFF800
FFFF8007FFFFFFFFFFFFFFF000
FFFF8007FFFFFFFFFFFFFFC000
FFFF8007FFFFFFFFFFFFFF8000
FFFF8007FFFFFFFFFFFFFF0000
FFFF8007FFFFFFFFFFFFFC0000
FFFF8007FFFFFFFFFFFFF00000
FFFF8007FFFFFFFFFFFFC00000
FFFF8007FFFFFFFFFFFE000000
FFFF8007FFFFFFFFFFC0000000
FFFF8000000000000000000000
FFFF8000000000000000000000
FFFF8000000000000000000000
FFFF8000000000000000000000
FFFF8000000000000000000000
FFFF8000000000000000000000
FFFF8000000000000000000000
FFFF8000000000000000000000
FFFF8000000000000000000000
FFFF8000000000000000000000
FFFF8000000000000000000000
FFFF8000000000000000000000
FFFF8000000000000000000000
FFFF8000000000000000000000
FFFF8000000000000000000000
FFFF8000000000000000000000
FFFF8000000000000000000000
FFFF8000000000000000000000
FFFF8000000000000000000000
FFFF8000000000000000000000
FFFF8000000000000000000000
FFFF8000000000000000000000
FFFF8000000000000000000000
FFFF8000000000000000000000
FFFF8000000000000000000000
FFFF8000000000000000000000
ENDCHAR
STARTCHAR q
ENCODING 113
SWIDTH 968 0
DWIDTH 127 0
BBX 121 95 5 0
BITMAP
0000000001FFFFFFFFFC000000000000
000000003FFFFFFFFFFFE00000000000
00000001FFFFFFFFFFFFFC0000000000
0000000FFFFFFFFFFFFFFF8000000000
0000003FFFFFFFFFFFFFFFE000000000
000000FFFFFFFFFFFFFFFFF800000000
000003FFFFFFFFFFFFFFFFFE00000000
00000FFFFFFFFFFFFFFFFFFF80000000
00001FFFFFFFFFFFFFFFFFFFC0000000
00007FFFFFFFFFFFFFFFFFFFF0000000
0000FFFFFFFFFFFFFFFFFFFFF8000000
0001FFFFFFFFFFFFFFFFFFFFFC000000
0003FFFFFFFFFFFFFFFFFFFFFE000000
0007FFFFFFFFFFFFFFFFFFFFFF000000
000FFFFFFFFFFFFFFFFFFFFFFF800000
001FFFFFFFFFFFFFFFFFFFFFFFC00000
003FFFFFFFFFFFFFFFFFFFFFFFE00000
007FFFFFFE0000000003FFFFFFF00000
007FFFFFF000000000007FFFFFF00000
00FFFFFFC000000000001FFFFFF80000
01FFFFFF00000000000007FFFFFC0000
01FFFFFC00000000000001FFFFFC0000
03FFFFF800000000000000FFFFFE0000
03FFFFE0000000000000003FFFFE0000
07FFFFC0000000000000001FFFFF0000
07FFFF80000000000000000FFFFF0000
0FFFFF000000000000000007FFFF8000
0FFFFF000000000000000007FFFF8000
0FFFFE000000000000000003FFFF8000
1FFFFC000000000000000001FFFFC000
1FFFF8000000000000000000FFFFC000
1FFFF8000000000000000000FFFFC000
3FFFF00000000000000000007FFFE000
3FFFF00000000000000000007FFFE000
3FFFF00000000000000000007FFFE000
3FFFE00000000000000000003FFFE000
7FFFE00000000000000000003FFFF000
7FFFC00000000000000000001FFFF000
7FFFC00000000000000000001FFFF000
7FFFC00000000000000000001FFFF000
7FFFC00000000000000000001FFFF000
7FFFC00000000000000000001FFFF000
7FFF800000000000000000000FFFF000
7FFF800000000000000000000FFFF000
7FFF800000000000000000000FFFF800
FFFF800000000000000000000FFFF800
FFFF800000000000000000000FFFF800
FFFF800000000000000000000FFFF800
7FFF800000000000000000000FFFF800
7FFF800000000000000000000FFFF000
7FFF800000000000000000000FFFF000
7FFF800000000000000000000FFFF000
7FFF800000000000000000000FFFF000
7FFFC00000000000000000001FFFF000
7FFFC00000000000000000001FFFF000
7FFFC00000000000000000001FFFF000
7FFFC00000001FFFFFC000001FFFF000
3FFFE000000007FFFFE000003FFFF000
3FFFE000000003FFFFF000003FFFE000
3FFFE000000001FFFFF800003FFFE000
3FFFF0000000007FFFFC00007FFFE000
1FFFF0000000003FFFFE00007FFFE000
1FFFF8000000001FFFFF8000FFFFC000
1FFFF80000000007FFFFC000FFFFC000
1FFFFC0000000003FFFFE001FFFFC000
0FFFFC0000000001FFFFF001FFFF8000
0FFFFE0000000000FFFFF803FFFF8000
07FFFF00000000003FFFFE07FFFF0000
07FFFF80000000001FFFFF0FFFFF0000
03FFFF80000000000FFFFF8FFFFE0000
03FFFFC00000000007FFFFDFFFFE0000
01FFFFF00000000001FFFFFFFFFC0000
01FFFFF80000000000FFFFFFFFFC0000
00FFFFFC00000000007FFFFFFFF80000
00FFFFFF00000000001FFFFFFFF80000
007FFFFFC0000000000FFFFFFFF00000
003FFFFFF00000000007FFFFFFE00000
001FFFFFFE0000000007FFFFFFE00000
001FFFFFFFFFFFFFFFFFFFFFFFC00000
000FFFFFFFFFFFFFFFFFFFFFFF800000
0007FFFFFFFFFFFFFFFFFFFFFF000000
0003FFFFFFFFFFFFFFFFFFFFFF000000
0001FFFFFFFFFFFFFFFFFFFFFF800000
0000FFFFFFFFFFFFFFFFFFFFFFC00000
00007FFFFFFFFFFFFFFFFFFFFFF00000
00001FFFFFFFFFFFFFFFFFFFFFF80000
00000FFFFFFFFFFFFFFFFFFFFFFC0000
000007FFFFFFFFFFFFFFFFFFFFFF0000
000001FFFFFFFFFFFFFFFFFFFFFF8000
0000007FFFFFFFFFFFFFFFF7FFFFC000
0000001FFFFFFFFFFFFFFFC3FFFFE000
00000007FFFFFFFFFFFFFF01FFFFF800
00000001FFFFFFFFFFFFF800FFFFFC00
000000001FFFFFFFFFFFC0007FFFFE00
0000000001FFFFFFFFF800001FFFFF80
ENDCHAR
STARTCHAR r
ENCODING 114
SWIDTH 921 0
DWIDTH 121 0
BBX 112 95 8 0
BITMAP
FFFFFFFFFFFFFFFFFFE000000000
FFFFFFFFFFFFFFFFFFFF00000000
FFFFFFFFFFFFFFFFFFFFE0000000
FFFFFFFFFFFFFFFFFFFFFC000000
FFFFFFFFFFFFFFFFFFFFFF000000
FFFFFFFFFFFFFFFFFFFFFF800000
FFFFFFFFFFFFFFFFFFFFFFE00000
FFFFFFFFFFFFFFFFFFFFFFF00000
FFFFFFFFFFFFFFFFFFFFFFF80000
FFFFFFFFFFFFFFFFFFFFFFFC0000
FFFFFFFFFFFFFFFFFFFFFFFE0000
FFFFFFFFFFFFFFFFFFFFFFFF0000
FFFFFFFFFFFFFFFFFFFFFFFF8000
FFFFFFFFFFFFFFFFFFFFFFFF8000
FFFFFFFFFFFFFFFFFFFFFFFFC000
FFFFFFFFFFFFFFFFFFFFFFFFE000
FFFFFFFFFFFFFFFFFFFFFFFFE000
FFFF800000000000001FFFFFF000
FFFF8000000000000003FFFFF000
FFFF8000000000000000FFFFF800
FFFF80000000000000007FFFF800
FFFF80000000000000003FFFF800
FFFF80000000000000001FFFFC00
FFFF80000000000000000FFFFC00
FFFF800000000000000007FFFC00
FFFF800000000000000007FFFC00
FFFF800000000000000003FFFC00
FFFF800000000000000003FFFE00
FFFF800000000000000003FFFE00
FFFF800000000000000003FFFE00
FFFF800000000000000001FFFE00
FFFF800000000000000001FFFE00
FFFF800000000000000001FFFE00
FFFF800000000000000001FFFE00
FFFF800000000000000001FFFE00
FFFF800000000000000001FFFE00
FFFF800000000000000001FFFE00
FFFF800000000000000001FFFE00
FFFF800000000000000001FFFE00
FFFF800000000000000003FFFE00
FFFF800000000000000003FFFE00
FFFF800000000000000003FFFE00
FFFF800000000000000003FFFE00
FFFF800000000000000003FFFC00
FFFF800000000000000007FFFC00
FFFF800000000000000007FFFC00
FFFF80000000000000000FFFFC00
FFFF80000000000000000FFFF800
FFFF80000000000000001FFFF800
FFFF80000000000000003FFFF800
FFFF80000000000000007FFFF000
FFFF8000000000000001FFFFF000
FFFF8000000000000007FFFFE000
FFFF800000000000003FFFFFE000
FFFF8007FFFFFFFFFFFFFFFFC000
FFFF8007FFFFFFFFFFFFFFFFC000
FFFF8007FFFFFFFFFFFFFFFF8000
FFFF8007FFFFFFFFFFFFFFFF0000
FFFF8007FFFFFFFFFFFFFFFE0000
FFFF8007FFFFFFFFFFFFFFFC0000
FFFF8007FFFFFFFFFFFFFFF80000
FFFF8007FFFFFFFFFFFFFFF00000
FFFF8007FFFFFFFFFFFFFFE00000
FFFF8007FFFFFFFFFFFFFF800000
FFFF8007FFFFFFFFFFFFFF000000
FFFF8007FFFFFFFFFFFFFC000000
FFFF8007FFFFFFFFFFFFF0000000
FFFF8007FFFFFFFFFFFFF8000000
FFFF8007FFFFFFFFFFFFFC000000
FFFF8000000000007FFFFE000000
FFFF8000000000003FFFFF000000
FFFF8000000000001FFFFF800000
FFFF8000000000000FFFFFC00000
FFFF80000000000007FFFFE00000
FFFF80000000000003FFFFF00000
FFFF80000000000001FFFFF80000
FFFF80000000000000FFFFFC0000
FFFF80000000000000FFFFFE0000
FFFF800000000000007FFFFF0000
FFFF800000000000003FFFFF8000
FFFF800000000000001FFFFFC000
FFFF800000000000000FFFFFE000
FFFF8000000000000007FFFFF000
FFFF8000000000000003FFFFF800
FFFF8000000000000001FFFFFC00
FFFF8000000000000000FFFFFE00
FFFF80000000000000007FFFFF00
FFFF80000000000000003FFFFF80
FFFF80000000000000001FFFFFC0
FFFF80000000000000000FFFFFE0
FFFF80000000000000000FFFFFF0
FFFF800000000000000007FFFFF8
FFFF800000000000000003FFFFFC
FFFF800000000000000001FFFFFE
FFFF800000000000000000FFFFFF
ENDCHAR
STARTCHAR s
ENCODING 115
SWIDTH 880 0
DWIDTH 115 0
BBX 102 95 7 0
BITMAP
000001FFFFFFFFFFFFFFFFFFC0
00003FFFFFFFFFFFFFFFFFFFC0
0001FFFFFFFFFFFFFFFFFFFFC0
0007FFFFFFFFFFFFFFFFFFFFC0
001FFFFFFFFFFFFFFFFFFFFFC0
003FFFFFFFFFFFFFFFFFFFFFC0
007FFFFFFFFFFFFFFFFFFFFFC0
01FFFFFFFFFFFFFFFFFFFFFFC0
03FFFFFFFFFFFFFFFFFFFFFFC0
03FFFFFFFFFFFFFFFFFFFFFFC0
07FFFFFFFFFFFFFFFFFFFFFFC0
0FFFFFFFFFFFFFFFFFFFFFFFC0
1FFFFFFFFFFFFFFFFFFFFFFFC0
1FFFFFFFFFFFFFFFFFFFFFFFC0
3FFFFFFFFFFFFFFFFFFFFFFFC0
3FFFFFFFFFFFFFFFFFFFFFFFC0
3FFFFFFFFFFFFFFFFFFFFFFFC0
7FFFFF00000000000000000000
7FFFFC00000000000000000000
7FFFF800000000000000000000
FFFFF000000000000000000000
FFFFE000000000000000000000
FFFFC000000000000000000000
FFFFC000000000000000000000
FFFFC000000000000000000000
FFFF8000000000000000000000
FFFF8000000000000000000000
FFFF8000000000000000000000
FFFF8000000000000000000000
FFFF8000000000000000000000
FFFF8000000000000000000000
FFFF8000000000000000000000
FFFFC000000000000000000000
7FFFC000000000000000000000
7FFFC000000000000000000000
7FFFE000000000000000000000
7FFFF000000000000000000000
3FFFF800000000000000000000
3FFFFC00000000000000000000
1FFFFF80000000000000000000
1FFFFFFFFFFFFFFFFFFF000000
0FFFFFFFFFFFFFFFFFFFF80000
0FFFFFFFFFFFFFFFFFFFFF0000
07FFFFFFFFFFFFFFFFFFFFC000
03FFFFFFFFFFFFFFFFFFFFF000
01FFFFFFFFFFFFFFFFFFFFF800
00FFFFFFFFFFFFFFFFFFFFFC00
007FFFFFFFFFFFFFFFFFFFFE00
003FFFFFFFFFFFFFFFFFFFFF00
000FFFFFFFFFFFFFFFFFFFFF80
0007FFFFFFFFFFFFFFFFFFFFC0
0000FFFFFFFFFFFFFFFFFFFFE0
00003FFFFFFFFFFFFFFFFFFFE0
000003FFFFFFFFFFFFFFFFFFF0
00000000000000000007FFFFF0
00000000000000000000FFFFF0
000000000000000000003FFFF8
000000000000000000001FFFF8
000000000000000000000FFFF8
0000000000000000000007FFFC
0000000000000000000007FFFC
0000000000000000000003FFFC
0000000000000000000003FFFC
0000000000000000000003FFFC
0000000000000000000003FFFC
0000000000000000000001FFFC
0000000000000000000001FFFC
0000000000000000000003FFFC
0000000000000000000003FFFC
0000000000000000000003FFFC
0000000000000000000003FFFC
0000000000000000000007FFFC
0000000000000000000007FFFC
000000000000000000000FFFFC
000000000000000000001FFFFC
000000000000000000003FFFF8
000000000000000000007FFFF8
00000000000000000001FFFFF8
7FFFFFFFFFFFFFFFFFFFFFFFF0
7FFFFFFFFFFFFFFFFFFFFFFFF0
7FFFFFFFFFFFFFFFFFFFFFFFF0
7FFFFFFFFFFFFFFFFFFFFFFFE0
7FFFFFFFFFFFFFFFFFFFFFFFC0
7FFFFFFFFFFFFFFFFFFFFFFFC0
7FFFFFFFFFFFFFFFFFFFFFFF80
7FFFFFFFFFFFFFFFFFFFFFFF00
7FFFFFFFFFFFFFFFFFFFFFFF00
7FFFFFFFFFFFFFFFFFFFFFFE00
7FFFFFFFFFFFFFFFFFFFFFFC00
7FFFFFFFFFFFFFFFFFFFFFF000
7FFFFFFFFFFFFFFFFFFFFFE000
7FFFFFFFFFFFFFFFFFFFFF8000
7FFFFFFFFFFFFFFFFFFFFE0000
7FFFFFFFFFFFFFFFFFFFF00000
7FFFFFFFFFFFFFFFFFFF000000
ENDCHAR
STARTCHAR t
ENCODING 116
SWIDTH 720 0
DWIDTH 94 0
BBX 89 95 3 0
BITMAP
FFFFFFFFFFFFFFFFFFFFFF80
FFFFFFFFFFFFFFFFFFFFFF80
FFFFFFFFFFFFFFFFFFFFFF80
FFFFFFFFFFFFFFFFFFFFFF80
FFFFFFFFFFFFFFFFFFFFFF80
FFFFFFFFFFFFFFFFFFFFFF80
FFFFFFFFFFFFFFFFFFFFFF80
FFFFFFFFFFFFFFFFFFFFFF80
FFFFFFFFFFFFFFFFFFFFFF80
FFFFFFFFFFFFFFFFFFFFFF80
FFFFFFFFFFFFFFFFFFFFFF80
FFFFFFFFFFFFFFFFFFFFFF80
FFFFFFFFFFFFFFFFFFFFFF80
FFFFFFFFFFFFFFFFFFFFFF80
FFFFFFFFFFFFFFFFFFFFFF80
FFFFFFFFFFFFFFFFFFFFFF80
FFFFFFFFFFFFFFFFFFFFFF80
000000000FFFF00000000000
000000000FFFF00000000000
000000000FFFF00000000000
000000000FFFF00000000000
000000000FFFF00000000000
000000000FFFF00000000000
000000000FFFF00000000000
000000000FFFF00000000000
000000000FFFF00000000000
000000000FFFF00000000000
000000000FFFF00000000000
000000000FFFF00000000000
000000000FFFF00000000000
000000000FFFF00000000000
000000000FFFF00000000000
000000000FFFF00000000000
000000000FFFF00000000000
000000000FFFF00000000000
000000000FFFF00000000000
000000000FFFF00000000000
000000000FFFF00000000000
000000000FFFF00000000000
000000000FFFF00000000000
000000000FFFF00000000000
000000000FFFF00000000000
000000000FFFF00000000000
000000000FFFF00000000000
000000000FFFF00000000000
000000000FFFF00000000000
000000000FFFF00000000000
000000000FFFF00000000000
000000000FFFF00000000000
000000000FFFF00000000000
000000000FFFF00000000000
000000000FFFF00000000000
000000000FFFF00000000000
000000000FFFF00000000000
000000000FFFF00000000000
000000000FFFF00000000000
000000000FFFF00000000000
000000000FFFF00000000000
000000000FFFF00000000000
000000000FFFF00000000000
000000000FFFF00000000000
000000000FFFF00000000000
000000000FFFF00000000000
000000000FFFF00000000000
000000000FFFF00000000000
000000000FFFF00000000000
000000000FFFF00000000000
000000000FFFF00000000000
000000000FFFF00000000000
000000000FFFF00000000000
000000000FFFF00000000000
000000000FFFF00000000000
000000000FFFF00000000000
000000000FFFF00000000000
000000000FFFF00000000000
000000000FFFF00000000000
000000000FFFF00000000000
000000000FFFF00000000000
000000000FFFF00000000000
000000000FFFF00000000000
000000000FFFF00000000000
000000000FFFF00000000000
000000000FFFF00000000000
000000000FFFF00000000000
000000000FFFF00000000000
000000000FFFF00000000000
000000000FFFF00000000000
000000000FFFF00000000000
000000000FFFF00000000000
000000000FFFF00000000000
000000000FFFF00000000000
000000000FFFF00000000000
000000000FFFF00000000000
000000000FFFF00000000000
000000000FFFF00000000000
ENDCHAR
STARTCHAR u
ENCODING 117
SWIDTH 889 0
DWIDTH 116 0
BBX 103 97 7 -2
BITMAP
FFFF800000000000000003FFFE
FFFF800000000000000003FFFE
FFFF800000000000000003FFFE
FFFF800000000000000003FFFE
FFFF800000000000000003FFFE
FFFF800000000000000003FFFE
FFFF800000000000000003FFFE
FFFF800000000000000003FFFE
FFFF800000000000000003FFFE
FFFF800000000000000003FFFE
FFFF800000000000000003FFFE
FFFF800000000000000003FFFE
FFFF800000000000000003FFFE
FFFF800000000000000003FFFE
FFFF800000000000000003FFFE
FFFF800000000000000003FFFE
FFFF800000000000000003FFFE
FFFF800000000000000003FFFE
FFFF800000000000000003FFFE
FFFF800000000000000003FFFE
FFFF800000000000000003FFFE
FFFF800000000000000003FFFE
FFFF800000000000000003FFFE
FFFF800000000000000003FFFE
FFFF800000000000000003FFFE
FFFF800000000000000003FFFE
FFFF800000000000000003FFFE
FFFF800000000000000003FFFE
FFFF800000000000000003FFFE
FFFF800000000000000003FFFE
FFFF800000000000000003FFFE
FFFF800000000000000003FFFE
FFFF800000000000000003FFFE
FFFF800000000000000003FFFE
FFFF800000000000000003FFFE
FFFF800000000000000003FFFE
FFFF800000000000000003FFFE
FFFF800000000000000003FFFE
FFFF800000000000000003FFFE
FFFF800000000000000003FFFE
FFFF800000000000000003FFFE
FFFF800000000000000003FFFE
FFFF800000000000000003FFFE
FFFF800000000000000003FFFE
FFFF800000000000000003FFFE
FFFF800000000000000003FFFE
FFFF800000000000000003FFFE
FFFF800000000000000003FFFE
FFFF800000000000000003FFFE
FFFF800000000000000003FFFE
FFFF800000000000000003FFFE
FFFF800000000000000003FFFE
FFFF800000000000000003FFFE
FFFF800000000000000003FFFE
FFFF800000000000000003FFFE
FFFF800000000000000003FFFE
FFFF800000000000000003FFFE
FFFF800000000000000003FFFE
FFFF800000000000000003FFFC
FFFF800000000000000003FFFC
FFFFC00000000000000003FFFC
FFFFC00000000000000003FFFC
FFFFC00000000000000007FFFC
7FFFC00000000000000007FFFC
7FFFC00000000000000007FFFC
7FFFE00000000000000007FFFC
7FFFE0000000000000000FFFF8
7FFFF0000000000000000FFFF8
7FFFF0000000000000001FFFF8
3FFFF8000000000000001FFFF8
3FFFF8000000000000003FFFF0
3FFFFC000000000000007FFFF0
1FFFFE00000000000000FFFFF0
1FFFFF00000000000001FFFFE0
1FFFFFC0000000000003FFFFE0
0FFFFFE000000000000FFFFFE0
0FFFFFF800000000003FFFFFC0
07FFFFFF0000000000FFFFFFC0
07FFFFFFE00000000FFFFFFF80
03FFFFFFFFC00003FFFFFFFF00
01FFFFFFFFFFFFFFFFFFFFFF00
00FFFFFFFFFFFFFFFFFFFFFE00
00FFFFFFFFFFFFFFFFFFFFFC00
007FFFFFFFFFFFFFFFFFFFF800
003FFFFFFFFFFFFFFFFFFFF000
001FFFFFFFFFFFFFFFFFFFE000
000FFFFFFFFFFFFFFFFFFFC000
0003FFFFFFFFFFFFFFFFFF8000
0001FFFFFFFFFFFFFFFFFE0000
00007FFFFFFFFFFFFFFFFC0000
00003FFFFFFFFFFFFFFFF00000
00000FFFFFFFFFFFFFFFC00000
000001FFFFFFFFFFFFFE000000
0000003FFFFFFFFFFFF0000000
00000003FFFFFFFFFF80000000
000000001FFFFFFFE000000000
000000000001FE000000000000
ENDCHAR
STARTCHAR v
ENCODING 118
SWIDTH 989 0
DWIDTH 130 0
BBX 126 97 2 -2
BITMAP
FFFFF0000000000000000000003FFFFC
7FFFF8000000000000000000003FFFF8
7FFFFC000000000000000000007FFFF0
3FFFFC00000000000000000000FFFFF0
1FFFFE00000000000000000000FFFFE0
1FFFFE00000000000000000001FFFFC0
0FFFFF00000000000000000001FFFFC0
0FFFFF80000000000000000003FFFF80
07FFFF80000000000000000007FFFF00
03FFFFC0000000000000000007FFFF00
03FFFFC000000000000000000FFFFE00
01FFFFE000000000000000000FFFFE00
01FFFFF000000000000000001FFFFC00
00FFFFF000000000000000001FFFF800
007FFFF800000000000000003FFFF800
007FFFF800000000000000007FFFF000
003FFFFC00000000000000007FFFF000
003FFFFC0000000000000000FFFFE000
001FFFFE0000000000000000FFFFC000
000FFFFF0000000000000001FFFFC000
000FFFFF0000000000000003FFFF8000
0007FFFF8000000000000003FFFF8000
0007FFFF8000000000000007FFFF0000
0003FFFFC000000000000007FFFE0000
0001FFFFE00000000000000FFFFE0000
0001FFFFE00000000000001FFFFC0000
0000FFFFF00000000000001FFFFC0000
0000FFFFF00000000000003FFFF80000
00007FFFF80000000000003FFFF00000
00003FFFFC0000000000007FFFF00000
00003FFFFC0000000000007FFFE00000
00001FFFFE000000000000FFFFE00000
00001FFFFE000000000001FFFFC00000
00000FFFFF000000000001FFFF800000
000007FFFF000000000003FFFF800000
000007FFFF800000000003FFFF000000
000003FFFFC00000000007FFFF000000
000003FFFFC0000000000FFFFE000000
000001FFFFE0000000000FFFFC000000
000000FFFFE0000000001FFFFC000000
000000FFFFF0000000001FFFF8000000
0000007FFFF8000000003FFFF8000000
0000007FFFF8000000007FFFF0000000
0000003FFFFC000000007FFFE0000000
0000001FFFFC00000000FFFFE0000000
0000001FFFFE00000000FFFFC0000000
0000000FFFFF00000001FFFFC0000000
0000000FFFFF00000001FFFF80000000
00000007FFFF80000003FFFF00000000
00000003FFFF80000007FFFF00000000
00000003FFFFC0000007FFFE00000000
00000001FFFFE000000FFFFE00000000
00000001FFFFE000000FFFFC00000000
00000000FFFFF000001FFFF800000000
000000007FFFF000003FFFF800000000
000000007FFFF800003FFFF000000000
000000003FFFF800007FFFF000000000
000000003FFFFC00007FFFE000000000
000000001FFFFE0000FFFFC000000000
000000000FFFFE0001FFFFC000000000
000000000FFFFF0001FFFF8000000000
0000000007FFFF0003FFFF8000000000
0000000007FFFF8003FFFF0000000000
0000000003FFFFC007FFFE0000000000
0000000001FFFFC007FFFE0000000000
0000000001FFFFE00FFFFC0000000000
0000000000FFFFE01FFFFC0000000000
0000000000FFFFF01FFFF80000000000
00000000007FFFF83FFFF00000000000
00000000003FFFF83FFFF00000000000
00000000003FFFFC7FFFE00000000000
00000000001FFFFCFFFFE00000000000
00000000001FFFFEFFFFC00000000000
00000000000FFFFFFFFF800000000000
000000000007FFFFFFFF800000000000
000000000007FFFFFFFF000000000000
000000000003FFFFFFFF000000000000
000000000003FFFFFFFE000000000000
000000000001FFFFFFFC000000000000
000000000000FFFFFFFC000000000000
000000000000FFFFFFF8000000000000
0000000000007FFFFFF8000000000000
0000000000007FFFFFF0000000000000
0000000000003FFFFFE0000000000000
0000000000001FFFFFE0000000000000
0000000000001FFFFFC0000000000000
0000000000000FFFFFC0000000000000
0000000000000FFFFF80000000000000
00000000000007FFFF00000000000000
00000000000003FFFF00000000000000
00000000000003FFFE00000000000000
00000000000001FFFC00000000000000
00000000000001FFFC00000000000000
00000000000000FFF800000000000000
000000000000007FF000000000000000
000000000000001FE000000000000000
00000000000000020000000000000000
ENDCHAR
STARTCHAR w
ENCODING 119
SWIDTH 1268 0
DWIDTH 166 0
BBX 162 96 2 -1
BITMAP
FFFFF0000000FFFFF0000000000000000001FFFFC0
7FFFF80000007FFFF8000000000000000001FFFF80
7FFFF80000007FFFF8000000000000000003FFFF80
3FFFFC0000003FFFFC000000000000000003FFFF00
3FFFFC0000003FFFFC000000000000000007FFFF00
1FFFFE0000001FFFFE000000000000000007FFFE00
1FFFFE0000001FFFFE00000000000000000FFFFE00
0FFFFF0000000FFFFF00000000000000000FFFFC00
0FFFFF0000000FFFFF00000000000000001FFFFC00
07FFFF80000007FFFF80000000000000003FFFF800
03FFFF80000007FFFF80000000000000003FFFF000
03FFFFC0000003FFFFC0000000000000007FFFF000
01FFFFC0000003FFFFC0000000000000007FFFE000
01FFFFE0000001FFFFE000000000000000FFFFE000
00FFFFE0000001FFFFE000000000000000FFFFC000
00FFFFF0000000FFFFF000000000000001FFFFC000
007FFFF0000000FFFFF000000000000001FFFF8000
007FFFF80000007FFFF800000000000003FFFF8000
003FFFFC0000003FFFF800000000000003FFFF0000
003FFFFC0000003FFFFC00000000000007FFFF0000
001FFFFE0000001FFFFC00000000000007FFFE0000
001FFFFE0000001FFFFE0000000000000FFFFC0000
000FFFFF0000000FFFFE0000000000000FFFFC0000
0007FFFF0000000FFFFF0000000000001FFFF80000
0007FFFF80000007FFFF0000000000001FFFF80000
0003FFFF80000007FFFF8000000000003FFFF00000
0003FFFFC0000003FFFF8000000000007FFFF00000
0001FFFFC0000003FFFFC000000000007FFFE00000
0001FFFFE0000001FFFFC00000000000FFFFE00000
0000FFFFE0000001FFFFE00000000000FFFFC00000
0000FFFFF0000000FFFFE00000000001FFFFC00000
00007FFFF0000000FFFFF00000000001FFFF800000
00007FFFF80000007FFFF00000000003FFFF800000
00003FFFF80000007FFFF80000000003FFFF000000
00001FFFFC0000003FFFF80000000007FFFE000000
00001FFFFC0000003FFFFC0000000007FFFE000000
00000FFFFE0000001FFFFC000000000FFFFC000000
00000FFFFF0000001FFFFE000000000FFFFC000000
000007FFFF0000000FFFFE000000001FFFF8000000
000007FFFF8000000FFFFF000000001FFFF8000000
000003FFFF80000007FFFF000000003FFFF0000000
000003FFFFC0000007FFFF800000003FFFF0000000
000001FFFFC0000003FFFF800000007FFFE0000000
000001FFFFE0000001FFFFC0000000FFFFE0000000
000000FFFFE0000001FFFFC0000000FFFFC0000000
0000007FFFF0000000FFFFE0000001FFFF80000000
0000007FFFF0000000FFFFE0000001FFFF80000000
0000003FFFF80000007FFFF0000003FFFF00000000
0000003FFFF8000000FFFFF0000003FFFF00000000
0000001FFFFC000000FFFFF8000007FFFE00000000
0000001FFFFC000001FFFFF8000007FFFE00000000
0000000FFFFE000003FFFFFC00000FFFFC00000000
0000000FFFFE000003FFFFFC00000FFFFC00000000
00000007FFFF000007FFFFFE00001FFFF800000000
00000007FFFF000007FFFFFE00001FFFF800000000
00000003FFFF80000FFFFFFF00003FFFF000000000
00000003FFFFC0000FFFFFFF00003FFFF000000000
00000001FFFFC0001FFFFFFF80007FFFE000000000
00000000FFFFE0003FFFFFFF8000FFFFC000000000
00000000FFFFE0003FFFFFFFC000FFFFC000000000
000000007FFFF0007FFFFFFFC001FFFF8000000000
000000007FFFF0007FFFFFFFE001FFFF8000000000
000000003FFFF800FFFFFFFFE003FFFF0000000000
000000003FFFF800FFFFFFFFF003FFFF0000000000
000000001FFFFC01FFFF3FFFF007FFFE0000000000
000000001FFFFC01FFFF3FFFF807FFFE0000000000
000000000FFFFE03FFFE1FFFF80FFFFC0000000000
000000000FFFFE07FFFE1FFFFC0FFFFC0000000000
0000000007FFFF07FFFC0FFFFC1FFFF80000000000
0000000003FFFF0FFFFC0FFFFE1FFFF00000000000
0000000003FFFF8FFFF807FFFE3FFFF00000000000
0000000001FFFF9FFFF807FFFF3FFFE00000000000
0000000001FFFFDFFFF003FFFF7FFFE00000000000
0000000000FFFFFFFFF003FFFFFFFFC00000000000
0000000000FFFFFFFFE001FFFFFFFFC00000000000
00000000007FFFFFFFE000FFFFFFFF800000000000
00000000007FFFFFFFC000FFFFFFFF800000000000
00000000003FFFFFFF80007FFFFFFF000000000000
00000000003FFFFFFF80007FFFFFFF000000000000
00000000001FFFFFFF00003FFFFFFE000000000000
00000000001FFFFFFF00003FFFFFFC000000000000
00000000000FFFFFFE00001FFFFFFC000000000000
000000000007FFFFFE00001FFFFFF8000000000000
000000000007FFFFFC00000FFFFFF8000000000000
000000000003FFFFFC00000FFFFFF0000000000000
000000000003FFFFF8000007FFFFF0000000000000
000000000001FFFFF8000007FFFFE0000000000000
000000000001FFFFF0000003FFFFE0000000000000
000000000000FFFFF0000003FFFFC0000000000000
000000000000FFFFE0000001FFFFC0000000000000
0000000000007FFFC0000000FFFF80000000000000
0000000000007FFFC0000000FFFF00000000000000
0000000000003FFF800000007FFF00000000000000
0000000000001FFF000000003FFE00000000000000
0000000000000FFE000000001FF800000000000000
00000000000003F80000000007E000000000000000
ENDCHAR
STARTCHAR x
ENCODING 120
SWIDTH 1000 0
DWIDTH 131 0
BBX 124 95 3 0
BITMAP
0FFFFFE000000000000000003FFFFF00
07FFFFF000000000000000007FFFFE00
03FFFFF80000000000000000FFFFFC00
01FFFFFC0000000000000001FFFFF800
00FFFFFE0000000000000003FFFFF000
007FFFFF0000000000000007FFFFE000
003FFFFF800000000000000FFFFFC000
001FFFFFC00000000000001FFFFF0000
000FFFFFE00000000000003FFFFE0000
0007FFFFF00000000000007FFFFC0000
0003FFFFF8000000000000FFFFF80000
0001FFFFFC000000000001FFFFF00000
0000FFFFFE000000000003FFFFE00000
00007FFFFF000000000007FFFFC00000
00003FFFFF80000000000FFFFF800000
00001FFFFFC0000000001FFFFF000000
00000FFFFFE0000000003FFFFE000000
000007FFFFF0000000007FFFFC000000
000003FFFFF800000000FFFFF8000000
000001FFFFFC00000001FFFFF0000000
000000FFFFFE00000003FFFFE0000000
0000003FFFFF00000007FFFFC0000000
0000001FFFFF8000000FFFFF80000000
0000000FFFFFC000001FFFFF00000000
00000007FFFFE000003FFFFE00000000
00000003FFFFF000007FFFFC00000000
00000001FFFFF80000FFFFF800000000
00000000FFFFFC0001FFFFF000000000
000000007FFFFE0003FFFFE000000000
000000003FFFFF0007FFFFC000000000
000000001FFFFF800FFFFF8000000000
000000000FFFFFC01FFFFF0000000000
0000000007FFFFE03FFFFE0000000000
0000000003FFFFF07FFFFC0000000000
0000000001FFFFF8FFFFF80000000000
0000000000FFFFFDFFFFF00000000000
00000000007FFFFFFFFFE00000000000
00000000003FFFFFFFFFC00000000000
00000000001FFFFFFFFF800000000000
00000000000FFFFFFFFF000000000000
000000000007FFFFFFFE000000000000
000000000003FFFFFFFC000000000000
000000000001FFFFFFF8000000000000
000000000000FFFFFFF0000000000000
0000000000007FFFFFE0000000000000
0000000000003FFFFFC0000000000000
0000000000001FFFFF80000000000000
0000000000003FFFFFC0000000000000
0000000000007FFFFFE0000000000000
000000000000FFFFFFF0000000000000
000000000001FFFFFFF8000000000000
000000000003FFFFFFFC000000000000
000000000007FFFFFFFE000000000000
00000000001FFFFFFFFF000000000000
00000000003FFFFFFFFF800000000000
00000000007FFFFFFFFFC00000000000
0000000000FFFFFFFFFFE00000000000
0000000001FFFFF3FFFFF80000000000
0000000003FFFFE1FFFFFC0000000000
0000000007FFFFC0FFFFFE0000000000
000000000FFFFF807FFFFF0000000000
000000001FFFFF003FFFFF8000000000
000000003FFFFE001FFFFFC000000000
000000007FFFFC000FFFFFE000000000
00000000FFFFF80007FFFFF000000000
00000001FFFFF00003FFFFF800000000
00000003FFFFE00001FFFFFC00000000
00000007FFFFC00000FFFFFE00000000
0000000FFFFF8000007FFFFF00000000
0000001FFFFF0000003FFFFF80000000
0000003FFFFE0000001FFFFFC0000000
0000007FFFFC0000000FFFFFE0000000
000000FFFFF800000007FFFFF0000000
000003FFFFF000000001FFFFFC000000
000007FFFFE000000000FFFFFE000000
00000FFFFFC0000000007FFFFF000000
00001FFFFF80000000003FFFFF800000
00003FFFFF00000000001FFFFFC00000
00007FFFFE00000000000FFFFFE00000
0000FFFFFC000000000007FFFFF00000
0001FFFFF8000000000003FFFFF80000
0003FFFFE0000000000001FFFFFC0000
0007FFFFC0000000000000FFFFFE0000
000FFFFF800000000000007FFFFF0000
001FFFFF000000000000003FFFFF8000
003FFFFE000000000000001FFFFFC000
007FFFFC000000000000000FFFFFE000
00FFFFF80000000000000007FFFFF000
01FFFFF00000000000000003FFFFF800
03FFFFE00000000000000001FFFFFE00
07FFFFC00000000000000000FFFFFF00
0FFFFF8000000000000000007FFFFF80
3FFFFF0000000000000000003FFFFFC0
7FFFFE0000000000000000001FFFFFE0
FFFFFC0000000000000000000FFFFFF0
ENDCHAR
STARTCHAR y
ENCODING 121
SWIDTH 926 0
DWIDTH 121 0
BBX 118 95 2 0
BITMAP
FFFFFE000000000000000000FFFFFC
7FFFFE000000000000000001FFFFF0
3FFFFF000000000000000003FFFFE0
1FFFFF800000000000000007FFFFE0
0FFFFFC00000000000000007FFFFC0
0FFFFFE0000000000000000FFFFF80
07FFFFF0000000000000001FFFFF00
03FFFFF0000000000000003FFFFE00
01FFFFF8000000000000007FFFFC00
00FFFFFC00000000000000FFFFFC00
007FFFFE00000000000000FFFFF800
007FFFFF00000000000001FFFFF000
003FFFFF80000000000003FFFFE000
001FFFFF80000000000007FFFFC000
000FFFFFC000000000000FFFFF8000
0007FFFFE000000000001FFFFF0000
0003FFFFF000000000001FFFFF0000
0001FFFFF800000000003FFFFE0000
0001FFFFFC00000000007FFFFC0000
0000FFFFFC0000000000FFFFF80000
00007FFFFE0000000001FFFFF00000
00003FFFFF0000000003FFFFE00000
00001FFFFF8000000003FFFFC00000
00000FFFFFC000000007FFFFC00000
000007FFFFC00000000FFFFF800000
000007FFFFE00000001FFFFF000000
000003FFFFF00000003FFFFE000000
000001FFFFF80000007FFFFC000000
000000FFFFFC0000007FFFF8000000
0000007FFFFE000000FFFFF0000000
0000003FFFFE000001FFFFF0000000
0000003FFFFF000003FFFFE0000000
0000001FFFFF800007FFFFC0000000
0000000FFFFFC0000FFFFF80000000
00000007FFFFE0000FFFFF00000000
00000003FFFFF0001FFFFE00000000
00000001FFFFF0003FFFFE00000000
00000000FFFFF8007FFFFC00000000
00000000FFFFFC00FFFFF800000000
000000007FFFFE01FFFFF000000000
000000003FFFFF01FFFFE000000000
000000001FFFFF83FFFFC000000000
000000000FFFFF87FFFF8000000000
0000000007FFFFCFFFFF8000000000
0000000003FFFFFFFFFF0000000000
0000000003FFFFFFFFFE0000000000
0000000001FFFFFFFFFC0000000000
0000000000FFFFFFFFF80000000000
00000000007FFFFFFFF00000000000
00000000003FFFFFFFE00000000000
00000000001FFFFFFFE00000000000
00000000001FFFFFFFC00000000000
00000000000FFFFFFF800000000000
000000000007FFFFFF000000000000
000000000003FFFFFE000000000000
000000000001FFFFFC000000000000
000000000000FFFFF8000000000000
0000000000007FFFF8000000000000
0000000000007FFFF0000000000000
0000000000003FFFE0000000000000
0000000000003FFFE0000000000000
0000000000003FFFE0000000000000
0000000000003FFFE0000000000000
0000000000003FFFE0000000000000
0000000000003FFFE0000000000000
0000000000003FFFE0000000000000
0000000000003FFFE0000000000000
0000000000003FFFE0000000000000
0000000000003FFFE0000000000000
0000000000003FFFE0000000000000
0000000000003FFFE0000000000000
0000000000003FFFE0000000000000
0000000000003FFFE0000000000000
0000000000003FFFE0000000000000
0000000000003FFFE0000000000000
0000000000003FFFE0000000000000
0000000000003FFFE0000000000000
0000000000003FFFE0000000000000
0000000000003FFFE0000000000000
0000000000003FFFE0000000000000
0000000000003FFFE0000000000000
0000000000003FFFE0000000000000
0000000000003FFFE0000000000000
0000000000003FFFE0000000000000
0000000000003FFFE0000000000000
0000000000003FFFE0000000000000
0000000000003FFFE0000000000000
0000000000003FFFE0000000000000
0000000000003FFFE0000000000000
0000000000003FFFE0000000000000
0000000000003FFFE0000000000000
0000000000003FFFE0000000000000
0000000000003FFFE0000000000000
0000000000003FFFE0000000000000
0000000000003FFFE0000000000000
ENDCHAR
ENDFONT
